<?xml version="1.0" encoding="UTF-8"?>
<svg version="1.1" xmlns="http://www.w3.org/2000/svg" width="1000" height="1000">
<path d="M0 0 C0.92028079 -0.00205263 1.84056158 -0.00410527 2.78872967 -0.0062201 C5.86532811 -0.01186408 8.94188143 -0.01043607 12.01848412 -0.00901413 C14.2496268 -0.01159928 16.48076902 -0.01461285 18.71191061 -0.01801753 C24.83822923 -0.02607356 30.96453612 -0.02787633 37.09085941 -0.028615 C43.02155539 -0.03027767 48.95224598 -0.03659755 54.88293866 -0.04269341 C70.76858606 -0.05873214 86.65423248 -0.06465481 102.53988653 -0.06944216 C110.06187832 -0.0717808 117.58386936 -0.07538381 125.10586056 -0.07913754 C150.87700998 -0.09197278 176.64815898 -0.1026907 202.41931152 -0.10614014 C204.03629222 -0.10636177 205.65327292 -0.10658355 207.27025362 -0.10680549 C208.89104988 -0.10702613 210.51184613 -0.10724661 212.13264239 -0.10746694 C215.38400817 -0.10790948 218.63537395 -0.1083566 221.88673973 -0.10880661 C222.69288588 -0.108916 223.49903203 -0.10902539 224.32960684 -0.1091381 C250.44518981 -0.11276546 276.56074496 -0.12867354 302.67631728 -0.15199697 C330.31544187 -0.17663571 357.95455058 -0.1903149 385.59368646 -0.19150805 C388.6324656 -0.19167949 391.67124474 -0.19189492 394.71002388 -0.19214249 C395.45820536 -0.19219826 396.20638684 -0.19225402 396.97724048 -0.19231148 C408.9791515 -0.19345858 420.98103382 -0.20445167 432.98293517 -0.21902954 C445.0659226 -0.23345115 457.14887353 -0.23659979 469.23186721 -0.22858956 C475.76831808 -0.2245468 482.30469229 -0.22554298 488.84113312 -0.23964691 C494.83987073 -0.25247148 500.83844132 -0.2511139 506.83717899 -0.2390562 C508.99275741 -0.23711389 511.14834801 -0.24010868 513.30390938 -0.24890056 C532.27175137 -0.32128723 550.99873695 1.37585264 569.47658348 5.81892776 C571.08557518 6.20020828 571.08557518 6.20020828 572.72707176 6.58919144 C618.98575729 17.95485318 666.71396508 43.8853318 697.59377098 80.88142776 C699.06500924 82.63958801 700.57929295 84.3617505 702.10939598 86.06892776 C738.35759974 126.70170266 762.72393857 183.94498013 762.60801125 238.76227474 C762.6110902 240.14189413 762.6110902 240.14189413 762.61423135 241.54938462 C762.61986648 244.61814315 762.61844843 247.68685629 762.61702538 250.75561905 C762.61961103 252.98349999 762.62262474 255.21138046 762.62602878 257.4392603 C762.63407878 263.55191801 762.63588724 269.66456395 762.63662624 275.77722633 C762.6382898 281.69613752 762.64461036 287.61504334 762.65070466 293.53395123 C762.66673704 309.38561576 762.67266519 325.2372793 762.6774534 341.08895048 C762.67979253 348.59523269 762.68339557 356.10151414 762.68714878 363.60779576 C762.69998303 389.32690819 762.71070138 415.0460202 762.71415138 440.76513577 C762.71437301 442.37857835 762.7145948 443.99202094 762.71481673 445.60546352 C762.71503737 447.22270114 762.71525785 448.83993877 762.71547818 450.45717639 C762.71592072 453.70137672 762.71636784 456.94557705 762.71681786 460.18977737 C762.71692725 460.99414579 762.71703664 461.79851421 762.71714934 462.62725743 C762.72077704 488.68765556 762.73668689 514.74802582 762.76000822 540.80841329 C762.784647 568.3916884 762.79832613 595.9749476 762.7995193 623.55823404 C762.79969074 626.59081893 762.79990616 629.62340381 762.80015373 632.65598869 C762.8002095 633.40264052 762.80026527 634.14929235 762.80032273 634.91856999 C762.80146977 646.89532058 762.81246229 658.87204241 762.82704079 670.84878332 C762.84146237 682.90588395 762.84461103 694.96294801 762.83660081 707.0200549 C762.83255814 713.54233591 762.83355381 720.06454011 762.84765816 726.58681107 C762.86048315 732.57255594 762.8591248 738.55813343 762.84706745 744.54387835 C762.84512521 746.69471628 762.84811954 748.84556643 762.85691181 750.99638727 C762.92941003 769.95088724 761.22899225 788.66674947 756.78908348 807.13142776 C756.53489647 808.2040889 756.28070946 809.27675003 756.01881981 810.38191605 C746.00506796 851.13827571 725.75985237 887.93939194 697.53127098 918.85408401 C695.7709255 920.80518937 694.08474025 922.7915632 692.41408348 924.81892776 C689.763201 927.93335254 686.83595646 930.55704858 683.71877098 933.19783401 C681.21497107 935.35703429 678.82403243 937.61807809 676.41408348 939.88142776 C631.69633281 980.48931657 570.81771685 1000.49437509 511.12654686 1000.3988533 C508.89292522 1000.40259601 506.65930489 1000.40719999 504.4256866 1000.41258395 C498.32482363 1000.42475306 492.22401575 1000.42456068 486.12314343 1000.4221952 C480.2069607 1000.42182763 474.2907938 1000.43082781 468.37461891 1000.43942097 C454.78817099 1000.45870525 441.20173822 1000.46438716 427.61527821 1000.46553509 C417.11484838 1000.46645645 406.61442443 1000.47058493 396.11399651 1000.47693634 C393.08434511 1000.47873162 390.0546937 1000.48051125 387.0250423 1000.4822861 C385.89504645 1000.48294924 385.89504645 1000.48294924 384.74222241 1000.48362578 C363.56748103 1000.495925 342.3927417 1000.50382787 321.2179966 1000.50293922 C320.42056585 1000.50290807 319.6231351 1000.50287691 318.80153978 1000.50284481 C314.7604497 1000.50267861 310.71935962 1000.50248053 306.67826954 1000.50227539 C305.47455662 1000.50221556 305.47455662 1000.50221556 304.24652627 1000.50215451 C302.6237255 1000.50207364 301.00092473 1000.50199004 299.37812397 1000.50190373 C274.1535965 1000.50067937 248.92912289 1000.51567406 223.70461082 1000.54304886 C195.31814488 1000.57384297 166.93171431 1000.59097687 138.54523063 1000.58912241 C135.51180697 1000.58897317 132.47838331 1000.58887575 129.44495964 1000.58881378 C128.69814078 1000.58879047 127.95132192 1000.58876716 127.18187218 1000.58874315 C115.21944892 1000.58868188 103.25707281 1000.60139507 91.29466352 1000.61867831 C79.24715953 1000.63572303 67.1997237 1000.63754014 55.15221426 1000.62445967 C48.63937809 1000.6177677 42.12667663 1000.61768705 35.61385345 1000.63516617 C-15.13170596 1000.76294466 -15.13170596 1000.76294466 -37.52341652 996.13142776 C-38.29188329 995.97714113 -39.06035007 995.8228545 -39.85210371 995.66389251 C-43.76526767 994.86841355 -47.61337513 993.94969307 -51.46091652 992.88142776 C-52.56677101 992.58260696 -53.6726255 992.28378616 -54.81199074 991.97591019 C-80.10102271 984.94186273 -104.83527718 973.97036671 -126.52341652 959.13142776 C-127.42060402 958.52500443 -127.42060402 958.52500443 -128.33591652 957.90633011 C-141.71791954 948.81074993 -153.74749737 938.19418194 -165.52341652 927.13142776 C-166.17954933 926.51783401 -166.83568214 925.90424026 -167.51169777 925.27205276 C-172.6641471 920.2972741 -177.0657616 914.72479095 -181.52341652 909.13142776 C-182.42410646 908.02176718 -183.32515896 906.9124008 -184.22654152 905.80330276 C-205.88288282 878.95506063 -221.2262621 847.42311814 -230.21091652 814.19392776 C-230.4843589 813.2148848 -230.75780128 812.23584183 -231.0395298 811.22713089 C-231.99070553 807.55116717 -232.7699533 803.85165041 -233.52341652 800.13142776 C-233.68900661 799.33168502 -233.85459669 798.53194227 -234.02520466 797.7079649 C-238.86239017 773.16515035 -238.09753688 748.28506256 -238.04631519 723.38520026 C-238.03811768 717.4782816 -238.04890213 711.57140295 -238.05890466 705.66449364 C-238.07982556 692.85962163 -238.07819928 680.05483009 -238.06658901 667.24995066 C-238.05647931 656.04339651 -238.05392193 644.83687166 -238.05867958 633.63031387 C-238.05898512 632.88351577 -238.05929066 632.13671768 -238.05960546 631.36728933 C-238.06085106 628.33488847 -238.06212468 625.30248763 -238.06344452 622.27008681 C-238.07564791 593.89269882 -238.06463862 565.51536171 -238.04305693 537.13798159 C-238.02407814 511.99205227 -238.0257768 486.84620403 -238.04490089 461.70027542 C-238.06637472 433.37084796 -238.07478204 405.04146536 -238.06245184 376.71203089 C-238.0611692 373.68553449 -238.05991782 370.65903808 -238.05867958 367.63254166 C-238.05836327 366.8874808 -238.05804696 366.14241994 -238.05772107 365.37478149 C-238.05319393 354.18231795 -238.05844951 342.98988712 -238.06859779 331.79742813 C-238.08009388 319.05588431 -238.07705083 306.31443268 -238.05547482 293.57290018 C-238.04484616 287.08429051 -238.04072366 280.59581035 -238.05407143 274.10719872 C-238.18989012 201.99182863 -222.94460013 137.06528324 -173.52341652 82.13142776 C-173.00859718 81.55489456 -172.49377785 80.97836136 -171.96335793 80.38435745 C-166.14548929 73.88722698 -160.24652004 67.70549178 -153.52341652 62.13142776 C-152.62880714 61.33736526 -151.73419777 60.54330276 -150.81247902 59.72517776 C-126.41215796 38.19083844 -97.24983031 22.50159242 -66.52341652 12.13142776 C-65.37099464 11.73528275 -65.37099464 11.73528275 -64.19529152 11.3311348 C-43.7891648 4.41068452 -21.60008652 -0.0454499 0 0 Z " fill="#E03D65" transform="translate(237.52341651916504,-0.13142776489257813)"/>
<path d="M0 0 C6.52754082 5.11546429 6.52754082 5.11546429 9 8 C9 8.66 9 9.32 9 10 C9.66 10 10.32 10 11 10 C11.66 11.65 12.32 13.3 13 15 C13.66 15 14.32 15 15 15 C16.53722845 17.09594606 17.93807988 19.17525062 19.3125 21.375 C19.71331787 22.00825195 20.11413574 22.64150391 20.52709961 23.29394531 C29 36.85743965 29 36.85743965 29 41 C29.89585815 40.96072388 29.89585815 40.96072388 30.80981445 40.9206543 C45.10133978 40.38091316 57.42895336 41.45994458 71 46 C71.91265625 46.27585937 72.8253125 46.55171875 73.765625 46.8359375 C83.44046213 50.15960604 94.85677435 56.6359905 102 64 C102.78375 64.5775 103.5675 65.155 104.375 65.75 C107.52042921 68.44608218 109.92325417 71.41209019 112 75 C112 75.66 112 76.32 112 77 C112.66 77 113.32 77 114 77 C114.33 78.32 114.66 79.64 115 81 C115.66 81 116.32 81 117 81 C129.53959514 96.67449393 132.43005044 118.42874784 130.45068359 137.86157227 C130.0447494 141.25628172 129.54131433 144.62390802 129 148 C128.79890625 149.30710937 128.79890625 149.30710937 128.59375 150.640625 C126.68840775 160.8268778 121.84365078 169.62144071 116.3125 178.25 C115.82467041 179.01376953 115.33684082 179.77753906 114.83422852 180.56445312 C114.36944092 181.27021484 113.90465332 181.97597656 113.42578125 182.703125 C112.79796753 183.65687012 112.79796753 183.65687012 112.1574707 184.62988281 C111.77550537 185.08202148 111.39354004 185.53416016 111 186 C110.34 186 109.68 186 109 186 C108.773125 186.556875 108.54625 187.11375 108.3125 187.6875 C106.62449964 190.66159588 104.53323483 192.72008865 102 195 C101.34 195 100.68 195 100 195 C99.67 195.99 99.34 196.98 99 198 C98.34 198 97.68 198 97 198 C97 198.66 97 199.32 97 200 C95.5390625 201.2890625 95.5390625 201.2890625 93.625 202.625 C92.68527344 203.29402344 92.68527344 203.29402344 91.7265625 203.9765625 C90 205 90 205 88 205 C88 205.66 88 206.32 88 207 C86.68 207.33 85.36 207.66 84 208 C84 208.66 84 209.32 84 210 C81.734375 211.62109375 81.734375 211.62109375 78.75 213.4375 C74.66004647 215.93749864 74.66004647 215.93749864 70.765625 218.72265625 C69 220 69 220 67 220 C67 220.66 67 221.32 67 222 C64.8828125 223.5078125 64.8828125 223.5078125 62.125 225.125 C61.22007812 225.66382813 60.31515625 226.20265625 59.3828125 226.7578125 C57 228 57 228 55 228 C55 228.66 55 229.32 55 230 C51.01759752 232.20750276 47.03399388 234.41281734 43.04931641 236.61621094 C41.69710517 237.36432494 40.34521013 238.11301079 38.99365234 238.86230469 C20.05531541 249.36027416 20.05531541 249.36027416 11.75 252.4375 C7.50939571 254.03625656 3.30271192 255.68083407 -0.875 257.4375 C-15.4155141 263.52598575 -30.08058583 268.90954955 -45 274 C-43.66098633 273.84180786 -43.66098633 273.84180786 -42.29492188 273.68041992 C-33.95704082 272.69989958 -25.61684417 271.74347304 -17.2729187 270.8157196 C-13.44630312 270.38967066 -9.62074464 269.95835534 -5.79785156 269.5 C23.91549648 265.97057484 52.55198311 266.76468061 82.1875 270.8125 C83.5567865 270.99907669 83.5567865 270.99907669 84.95373535 271.18942261 C94.28965141 272.4855382 103.55465533 273.99948801 112.765625 276.0078125 C113.47232834 276.16051102 114.17903168 276.31320953 114.90715027 276.47053528 C126.61126656 279.13826046 137.08601791 284.09056401 147.1875 290.5 C148.22982788 291.15754272 148.22982788 291.15754272 149.29321289 291.82836914 C153.41504211 294.56535231 156.57991625 297.50217527 159.66918945 301.36914062 C160.98799385 303.05557228 160.98799385 303.05557228 162.66870117 304.58398438 C164 306 164 306 164 308 C164.66 308 165.32 308 166 308 C166.66 309.65 167.32 311.3 168 313 C168.66 313 169.32 313 170 313 C170.66 314.98 171.32 316.96 172 319 C172.66 319 173.32 319 174 319 C179.98813225 330.5615021 184.82796445 342.94279142 186 356 C186.12375 357.30130859 186.12375 357.30130859 186.25 358.62890625 C187.21337599 379.79307261 179.82732348 398.41002809 168.42578125 415.703125 C167.79796753 416.65687012 167.79796753 416.65687012 167.1574707 417.62988281 C166.77550537 418.08202148 166.39354004 418.53416016 166 419 C165.34 419 164.68 419 164 419 C163.835 419.680625 163.67 420.36125 163.5 421.0625 C161.31008067 425.35109203 157.87999001 428.19509056 154 431 C153.34 431 152.68 431 152 431 C152 431.66 152 432.32 152 433 C149.90405394 434.53722845 147.82474938 435.93807988 145.625 437.3125 C144.99174805 437.71331787 144.35849609 438.11413574 143.70605469 438.52709961 C130.14256035 447 130.14256035 447 126 447 C126.08701172 448.90845703 126.08701172 448.90845703 126.17578125 450.85546875 C126.82066036 471.6090318 122.53514287 490.75016366 111.4375 508.4375 C110.95603516 509.22576172 110.47457031 510.01402344 109.97851562 510.82617188 C107.86310524 514.24516389 105.89197203 517.19473355 103 520 C102.4225 520.78375 101.845 521.5675 101.25 522.375 C98.55391782 525.52042921 95.58790981 527.92325417 92 530 C91.34 530 90.68 530 90 530 C90 530.66 90 531.32 90 532 C88.1015625 533.5078125 88.1015625 533.5078125 85.625 535.125 C84.81289063 535.66382813 84.00078125 536.20265625 83.1640625 536.7578125 C81 538 81 538 79 538 C79 538.66 79 539.32 79 540 C75.69009373 541.13272952 72.37664098 542.25472699 69.0625 543.375 C67.67321289 543.85066406 67.67321289 543.85066406 66.25585938 544.3359375 C49.46795383 549.99081095 33.6752918 550.70444228 16.3125 546.8125 C15.42925049 546.61648193 14.54600098 546.42046387 13.63598633 546.21850586 C4.46635087 543.96095183 -3.46999836 539.59680361 -11.3125 534.4375 C-11.89322266 534.06431641 -12.47394531 533.69113281 -13.07226562 533.30664062 C-18.59844181 529.71618717 -22.95115153 526.18758711 -27 521 C-27.804375 520.195625 -28.60875 519.39125 -29.4375 518.5625 C-32.18169541 515.81830459 -34.61759253 513.06309531 -37 510 C-37 509.34 -37 508.68 -37 508 C-37.66 508 -38.32 508 -39 508 C-39.33 506.68 -39.66 505.36 -40 504 C-40.66 504 -41.32 504 -42 504 C-43.44308836 501.96503184 -44.7632706 499.9372496 -46.0625 497.8125 C-49.95949183 491.57023786 -54.07431373 485.53685939 -58.34765625 479.546875 C-60 477 -60 477 -60 475 C-60.66 475 -61.32 475 -62 475 C-63.00508801 473.21118264 -64.00392736 471.41885304 -65 469.625 C-65.8353125 468.12839844 -65.8353125 468.12839844 -66.6875 466.6015625 C-68 464 -68 464 -68 462 C-68.66 462 -69.32 462 -70 462 C-70.51949219 460.96101563 -71.03898437 459.92203125 -71.57421875 458.8515625 C-71.90977783 458.1805249 -72.24533691 457.5094873 -72.59106445 456.81811523 C-73.32553681 455.34900697 -74.0597466 453.8797674 -74.79370117 452.41040039 C-76.36957285 449.25621921 -77.94768798 446.1034291 -79.5390625 442.95703125 C-79.95929688 442.12558594 -80.37953125 441.29414062 -80.8125 440.4375 C-81.34810547 439.38369141 -81.34810547 439.38369141 -81.89453125 438.30859375 C-83.36156434 435.24493101 -84.67659357 432.12839629 -86 429 C-83.18136581 441.37221306 -80.3609729 453.74452181 -77.3125 466.0625 C-77.12276611 466.83883789 -76.93303223 467.61517578 -76.73754883 468.41503906 C-75.6169276 472.89362786 -74.29339852 477.25461569 -72.80102539 481.62280273 C-71.93403115 484.19577528 -71.12107246 486.78187968 -70.31640625 489.375 C-70.02830078 490.29796875 -69.74019531 491.2209375 -69.44335938 492.171875 C-68.85646418 494.05618596 -68.27312459 495.94160808 -67.69335938 497.828125 C-66.04820928 503.07501796 -64.17934518 508.07180409 -61.87719727 513.06542969 C-60.83014036 515.37460834 -59.99256551 517.72170099 -59.1875 520.125 C-56.61795497 527.31372716 -53.32175416 534.13797751 -50 541 C-49.69046387 541.64630371 -49.38092773 542.29260742 -49.06201172 542.95849609 C-36.65876824 568.78839545 -20.63470878 591.3465845 -2 613 C-1.31679688 613.79664063 -0.63359375 614.59328125 0.0703125 615.4140625 C36.81501958 657.88521744 93.12514846 681.8755369 147.375 691.25 C148.3129541 691.41346924 149.2509082 691.57693848 150.21728516 691.74536133 C166.97417351 694.47888888 184.00698505 694.28034395 200.9375 694.5625 C203.3743549 694.60578656 205.81120395 694.64940372 208.24804688 694.69335938 C214.16530256 694.79938386 220.08261735 694.90132956 226 695 C227.52039749 697.9224982 228.37192732 700.32128091 228.8515625 703.58984375 C228.98046875 704.45673828 229.109375 705.32363281 229.2421875 706.21679688 C229.43167969 707.56354492 229.43167969 707.56354492 229.625 708.9375 C229.82609375 710.27844727 229.82609375 710.27844727 230.03125 711.64648438 C230.63831254 715.81849069 231.02730314 719.77991464 231 724 C223.58832854 724.05159628 216.17670492 724.08609986 208.76489258 724.10986328 C206.25445832 724.11979164 203.7440352 724.13333876 201.23364258 724.15087891 C179.18713051 724.30082518 157.64015449 723.38033339 136 719 C134.50132482 718.70951809 133.00262622 718.41915696 131.50390625 718.12890625 C115.46727478 714.95183775 99.1665962 711.18894974 84 705 C82.58460938 704.43345703 82.58460938 704.43345703 81.140625 703.85546875 C73.65260641 700.80012438 66.3055435 697.46661691 59 694 C57.21529297 693.17435547 57.21529297 693.17435547 55.39453125 692.33203125 C33.84885458 682.14421905 13.35576835 668.30053763 -4 652 C-5.30699491 650.86860901 -6.61909421 649.74307308 -7.9375 648.625 C-16.28212776 641.34055036 -23.90473795 633.44718937 -30.7890625 624.7734375 C-33.13154366 621.8349894 -35.56129478 618.98391289 -38 616.125 C-43.08656277 610.0132992 -47.62565603 603.63363963 -52 597 C-52.44037598 596.34241699 -52.88075195 595.68483398 -53.33447266 595.00732422 C-70.02231456 569.98426807 -100 522.75111346 -100 491 C-100.66 491 -101.32 491 -102 491 C-102.03738281 492.00675781 -102.07476563 493.01351562 -102.11328125 494.05078125 C-103.20407026 518.8699667 -107.53137695 541.79977633 -120.4375 563.25 C-120.8919751 564.00716309 -121.3464502 564.76432617 -121.81469727 565.54443359 C-130.23641766 579.20963997 -130.23641766 579.20963997 -137 581 C-137 581.66 -137 582.32 -137 583 C-139.96187272 585.17204 -142.50685991 586.83561997 -146 588 C-146 588.66 -146 589.32 -146 590 C-148.64738916 591.4606285 -149.89448334 592 -153 592 C-153 592.66 -153 593.32 -153 594 C-177.67967485 603.85571303 -201.49078585 608.22416355 -226.875 597.8125 C-237.101243 593.40057616 -246.99321233 587.8205833 -255 580 C-255 579.34 -255 578.68 -255 578 C-255.99 577.67 -256.98 577.34 -258 577 C-258 576.34 -258 575.68 -258 575 C-258.66 575 -259.32 575 -260 575 C-261.83186004 572.83093189 -263.52127104 570.66721862 -265.1875 568.375 C-265.67710205 567.70509033 -266.1667041 567.03518066 -266.67114258 566.3449707 C-278 550.45328233 -278 550.45328233 -278 544 C-278.88558594 544.02320313 -279.77117187 544.04640625 -280.68359375 544.0703125 C-302.45069224 544.38741903 -321.67645313 541.21866936 -340.25 529.3125 C-341.01376953 528.82467041 -341.77753906 528.33684082 -342.56445312 527.83422852 C-343.6230957 527.13704712 -343.6230957 527.13704712 -344.703125 526.42578125 C-345.65687012 525.79796753 -345.65687012 525.79796753 -346.62988281 525.1574707 C-347.08202148 524.77550537 -347.53416016 524.39354004 -348 524 C-348 523.34 -348 522.68 -348 522 C-348.5775 521.9175 -349.155 521.835 -349.75 521.75 C-352.6539336 520.78202213 -354.03740604 519.31305716 -356 517 C-356 516.34 -356 515.68 -356 515 C-356.66 515 -357.32 515 -358 515 C-360.6020866 511.50344613 -362.54997977 508.10839064 -364 504 C-364.66 504 -365.32 504 -366 504 C-380.02789614 485.40583854 -381.51073728 463.12280272 -378.55859375 440.9140625 C-376.72728997 428.08212974 -372.30936308 417.66506096 -365.3125 406.75 C-364.82467041 405.98623047 -364.33684082 405.22246094 -363.83422852 404.43554688 C-363.13704712 403.3769043 -363.13704712 403.3769043 -362.42578125 402.296875 C-362.00723877 401.66104492 -361.58869629 401.02521484 -361.1574707 400.37011719 C-360.77550537 399.91797852 -360.39354004 399.46583984 -360 399 C-359.34 399 -358.68 399 -358 399 C-357.95875 398.443125 -357.9175 397.88625 -357.875 397.3125 C-356.51022892 393.705605 -354.08919824 392.26961504 -351 390 C-350.34 390 -349.68 390 -349 390 C-348.67 389.01 -348.34 388.02 -348 387 C-347.34 387 -346.68 387 -346 387 C-346 386.34 -346 385.68 -346 385 C-344.5390625 383.7109375 -344.5390625 383.7109375 -342.625 382.375 C-341.99851562 381.92898438 -341.37203125 381.48296875 -340.7265625 381.0234375 C-339 380 -339 380 -337 380 C-337 379.34 -337 378.68 -337 378 C-335.68 377.67 -334.36 377.34 -333 377 C-333 376.34 -333 375.68 -333 375 C-330.57350969 373.19931985 -328.15260703 371.52163451 -325.625 369.875 C-324.92632812 369.40707031 -324.22765625 368.93914062 -323.5078125 368.45703125 C-318.26683218 365 -318.26683218 365 -316 365 C-316 364.34 -316 363.68 -316 363 C-313.8828125 361.4921875 -313.8828125 361.4921875 -311.125 359.875 C-310.22007812 359.33617187 -309.31515625 358.79734375 -308.3828125 358.2421875 C-306 357 -306 357 -304 357 C-304 356.34 -304 355.68 -304 355 C-302.79670044 354.33411865 -302.79670044 354.33411865 -301.5690918 353.65478516 C-298.58853943 352.00460902 -295.60863125 350.35328132 -292.62915039 348.70117188 C-291.34034381 347.98684276 -290.05128338 347.27297143 -288.76196289 346.55957031 C-286.9070423 345.53310944 -285.05304567 344.50499696 -283.19921875 343.4765625 C-282.08377686 342.85861816 -280.96833496 342.24067383 -279.8190918 341.60400391 C-277.83603204 340.47568464 -275.89839352 339.26559568 -274 338 C-272.68 338 -271.36 338 -270 338 C-270 337.34 -270 336.68 -270 336 C-259.95107603 331.89346857 -249.81943283 328.04430372 -239.64550781 324.25927734 C-233.57273933 321.99137855 -227.58290427 319.61588754 -221.625 317.0625 C-216.83600158 315.12409588 -211.91751262 313.57551375 -207 312 C-208.0194873 312.19118408 -209.03897461 312.38236816 -210.08935547 312.5793457 C-222.00786581 314.73273257 -233.91880644 315.97035243 -245.98681641 316.93530273 C-249.12890532 317.18781385 -252.26945631 317.45542748 -255.41015625 317.72460938 C-266.64229431 318.662205 -277.72824707 319.27060608 -289 319 C-289.98887207 318.98267822 -290.97774414 318.96535645 -291.99658203 318.94750977 C-306.8064736 318.62053131 -321.3447722 317.08252498 -336 315 C-337.08812988 314.85159668 -338.17625977 314.70319336 -339.29736328 314.55029297 C-350.35592806 313.03610296 -361.34713618 311.46019802 -372.125 308.5 C-372.8164209 308.31066895 -373.5078418 308.12133789 -374.22021484 307.92626953 C-382.57327172 305.46268564 -389.94416755 301.01243014 -397.375 296.5625 C-398.18066406 296.09779297 -398.98632812 295.63308594 -399.81640625 295.15429688 C-404.15621835 292.54822881 -406.52262345 291.04621989 -408 286 C-408.99 285.67 -409.98 285.34 -411 285 C-411 284.34 -411 283.68 -411 283 C-411.66 283 -412.32 283 -413 283 C-413.66 281.35 -414.32 279.7 -415 278 C-415.66 278 -416.32 278 -417 278 C-424.95067953 268.89552793 -430.77371212 256.60090747 -434 245 C-434.37125 243.824375 -434.7425 242.64875 -435.125 241.4375 C-438.20296087 228.0733622 -436.84811284 215.22783883 -434 202 C-433.85884766 201.31437988 -433.71769531 200.62875977 -433.57226562 199.92236328 C-430.29481277 184.88093088 -420.95593028 169.77336416 -410 159 C-407.125 157.5625 -407.125 157.5625 -405 157 C-405 156.34 -405 155.68 -405 155 C-404.360625 154.896875 -403.72125 154.79375 -403.0625 154.6875 C-402.381875 154.460625 -401.70125 154.23375 -401 154 C-400.67 153.01 -400.34 152.02 -400 151 C-397.9375 150.3125 -397.9375 150.3125 -396 150 C-396 149.34 -396 148.68 -396 148 C-395.42967041 147.82799072 -394.85934082 147.65598145 -394.27172852 147.47875977 C-387.9410017 145.39564641 -381.56393552 143.02728521 -377 138 C-374.57538048 131.07325303 -375.69738715 123.35177324 -376.00244141 116.13964844 C-375.99320667 104.26378043 -370.91684782 92.07799546 -365 82 C-364.34515625 80.86433594 -363.6903125 79.72867188 -363.015625 78.55859375 C-358.95608534 71.68918792 -355.31491265 65.65745632 -348 62 C-347.505 60.515 -347.505 60.515 -347 59 C-341.62857143 55 -341.62857143 55 -339 55 C-339 54.34 -339 53.68 -339 53 C-324.65435777 41.61222215 -308.77205013 37.42010292 -290.6875 37.625 C-289.41092529 37.63370117 -288.13435059 37.64240234 -286.8190918 37.65136719 C-269.48064511 37.92126071 -255.48334965 41.714292 -240.875 51.125 C-240.01390625 51.66253906 -239.1528125 52.20007813 -238.265625 52.75390625 C-233.59776192 55.72503814 -233.59776192 55.72503814 -232 57 C-232 57.66 -232 58.32 -232 59 C-231.443125 59.04125 -230.88625 59.0825 -230.3125 59.125 C-226.705605 60.48977108 -225.26961504 62.91080176 -223 66 C-223 66.66 -223 67.32 -223 68 C-222.01 68.33 -221.02 68.66 -220 69 C-220 69.66 -220 70.32 -220 71 C-219.34 71 -218.68 71 -218 71 C-217.34 72.65 -216.68 74.3 -216 76 C-215.34 76 -214.68 76 -214 76 C-213.896875 76.639375 -213.79375 77.27875 -213.6875 77.9375 C-213.3471875 78.9584375 -213.3471875 78.9584375 -213 80 C-212.01 80.33 -211.02 80.66 -210 81 C-208.61328125 82.77734375 -208.61328125 82.77734375 -207.3125 84.9375 C-206.87550781 85.64777344 -206.43851563 86.35804688 -205.98828125 87.08984375 C-205 89 -205 89 -205 91 C-204.34 91 -203.68 91 -203 91 C-202.67 92.32 -202.34 93.64 -202 95 C-201.34 95 -200.68 95 -200 95 C-199.34 96.98 -198.68 98.96 -198 101 C-197.34 101 -196.68 101 -196 101 C-195.34 102.98 -194.68 104.96 -194 107 C-193.34 107 -192.68 107 -192 107 C-191.67 108.32 -191.34 109.64 -191 111 C-190.34 111 -189.68 111 -189 111 C-188.69707031 111.556875 -188.39414062 112.11375 -188.08203125 112.6875 C-185.96175232 116.54966962 -183.81095967 120.32755017 -181.375 124 C-178.76314775 128.08668364 -177.32222152 132.35610004 -176 137 C-175.34 137 -174.68 137 -174 137 C-168.59372118 148.27640996 -163.71502259 159.66565013 -159.36328125 171.39453125 C-159.09330322 172.12164307 -158.8233252 172.84875488 -158.54516602 173.59790039 C-158.02695566 175.0004255 -157.51291003 176.40449862 -157.00366211 177.81030273 C-155.89407066 180.83092111 -154.79633343 183.30549985 -153 186 C-152.4823889 187.34777112 -152.01060336 188.71362549 -151.57421875 190.08984375 C-151.19015869 191.28262939 -151.19015869 191.28262939 -150.79833984 192.49951172 C-150.5348877 193.32467285 -150.27143555 194.14983398 -150 195 C-149.46717926 196.60624537 -148.93203955 198.21172343 -148.39453125 199.81640625 C-146.9296875 204.2109375 -145.46484375 208.60546875 -144 213 C-144.15819214 211.61554688 -144.15819214 211.61554688 -144.31958008 210.203125 C-146.16090573 194.02583525 -147.9865011 177.8456328 -149.55429077 161.63916016 C-149.74393606 159.68740757 -149.93985791 157.73626802 -150.13598633 155.78515625 C-153.86476895 116.35987793 -151.56862203 62.24323615 -132 27 C-131.66274902 26.38592285 -131.32549805 25.7718457 -130.97802734 25.13916016 C-129.83776692 23.08133479 -128.67287444 21.03939205 -127.5 19 C-126.94856323 18.01036255 -126.94856323 18.01036255 -126.38598633 17.00073242 C-124.03391046 13.0071415 -122.3642749 11.4348301 -118 10 C-117.67 9.01 -117.34 8.02 -117 7 C-116.34 7 -115.68 7 -115 7 C-114.67 6.01 -114.34 5.02 -114 4 C-113.34 4 -112.68 4 -112 4 C-112 3.34 -112 2.68 -112 2 C-108.50344613 -0.6020866 -105.10839064 -2.54997977 -101 -4 C-101 -4.66 -101 -5.32 -101 -6 C-93.30776932 -9.83506329 -85.66101192 -13.32930523 -77.4375 -15.875 C-76.78394531 -16.07762451 -76.13039063 -16.28024902 -75.45703125 -16.48901367 C-49.13068877 -24.3334241 -21.66715882 -15.24955273 0 0 Z " fill="#197B60" transform="translate(616,178)"/>
<path d="M0 0 C1.44826172 0.66515625 1.44826172 0.66515625 2.92578125 1.34375 C17.49398676 8.30390918 32.05568181 18.59494111 40 33 C40.51046875 33.87914062 41.0209375 34.75828125 41.546875 35.6640625 C50.88491603 52.814623 53.56292104 75.09908115 48 94 C47.78988281 94.73863281 47.57976562 95.47726562 47.36328125 96.23828125 C45.22745817 102.4373775 41.79795499 107.96612369 38.4375 113.5625 C37.95418213 114.37340088 37.47086426 115.18430176 36.97290039 116.01977539 C36.5061792 116.77766357 36.03945801 117.53555176 35.55859375 118.31640625 C35.13892334 119.00162354 34.71925293 119.68684082 34.28686523 120.39282227 C33 122 33 122 30 123 C29.896875 123.5775 29.79375 124.155 29.6875 124.75 C28.57596163 128.38776193 26.02793119 129.77539749 23 132 C22.34 132 21.68 132 21 132 C21 132.66 21 133.32 21 134 C19.68 134.33 18.36 134.66 17 135 C17 135.66 17 136.32 17 137 C12.16230728 140.6043679 7.13722814 143.67698799 1 144 C1 144.66 1 145.32 1 146 C-0.98 146 -2.96 146 -5 146 C-4.83886719 146.64710938 -4.67773438 147.29421875 -4.51171875 147.9609375 C-2.75700094 158.382086 -3.4877304 169.79090442 -6 180 C-6.17144531 180.86367188 -6.34289062 181.72734375 -6.51953125 182.6171875 C-8.82159212 192.86507137 -14.38001174 201.94500406 -21 210 C-21.8768028 211.26959018 -22.75190722 212.54035561 -23.625 213.8125 C-29.20106542 221.25661756 -37.437341 227.35780558 -46 231 C-46.99 231 -47.98 231 -49 231 C-49 231.66 -49 232.32 -49 233 C-51.12770719 233.7246539 -53.25817803 234.43784971 -55.39453125 235.13671875 C-57.02534091 235.67706198 -58.64936376 236.23888511 -60.26171875 236.83203125 C-78.67465548 243.17808584 -98.96457094 239.78233777 -116.14453125 231.48046875 C-120.80003053 229.01872549 -124.99148021 226.43587411 -129 223 C-129.969375 222.401875 -130.93875 221.80375 -131.9375 221.1875 C-135.07828903 218.94407927 -137.19380775 216.64438627 -139.609375 213.67578125 C-141.09277354 211.82803784 -141.09277354 211.82803784 -143.375 209.6875 C-145 208 -145 208 -145 206 C-145.66 206 -146.32 206 -147 206 C-151 201.52941176 -151 201.52941176 -151 199 C-151.66 199 -152.32 199 -153 199 C-154.42952778 197.02823755 -155.71953085 195.06611293 -157 193 C-157.45246094 192.30390625 -157.90492188 191.6078125 -158.37109375 190.890625 C-162 185.25708215 -162 185.25708215 -162 183 C-162.66 183 -163.32 183 -164 183 C-164.67154933 181.71086513 -165.33708859 180.41859796 -166 179.125 C-166.37125 178.40570312 -166.7425 177.68640625 -167.125 176.9453125 C-168 175 -168 175 -168 173 C-168.66 173 -169.32 173 -170 173 C-170.83848804 171.54462432 -171.67063934 170.08559627 -172.5 168.625 C-172.9640625 167.81289063 -173.428125 167.00078125 -173.90625 166.1640625 C-175 164 -175 164 -175 162 C-175.66 162 -176.32 162 -177 162 C-178.32002556 159.44113496 -179.63113782 156.87832932 -180.9375 154.3125 C-181.31068359 153.59126953 -181.68386719 152.87003906 -182.06835938 152.12695312 C-183.93965239 148.43494258 -185.48269556 145.16306904 -186 141 C-186.66 141 -187.32 141 -188 141 C-188.23074219 140.39414062 -188.46148438 139.78828125 -188.69921875 139.1640625 C-191.40296233 132.21768572 -194.53834684 125.58065862 -198.06640625 119.015625 C-201.39605015 112.6958303 -205 105.21705143 -205 98 C-205.66 98 -206.32 98 -207 98 C-206.86722656 98.74636719 -206.73445312 99.49273438 -206.59765625 100.26171875 C-204.61583732 112.94825305 -204.36857497 125.70049581 -204.07910156 138.52050781 C-204.03109928 140.63201547 -203.9773643 142.74341732 -203.91308594 144.85449219 C-203.01835779 174.72029135 -204.08727612 209.27783913 -216 237 C-216.70962891 238.78083984 -216.70962891 238.78083984 -217.43359375 240.59765625 C-219.34799978 244.75587982 -221.62933938 248.56640166 -224.0625 252.4375 C-224.50916016 253.16904297 -224.95582031 253.90058594 -225.41601562 254.65429688 C-226.55257348 256.47380878 -227.76988279 258.24238828 -229 260 C-229.66 260 -230.32 260 -231 260 C-231.165 260.680625 -231.33 261.36125 -231.5 262.0625 C-233.68991933 266.35109203 -237.12000999 269.19509056 -241 272 C-241.66 272 -242.32 272 -243 272 C-243 272.66 -243 273.32 -243 274 C-244.98 274.66 -246.96 275.32 -249 276 C-249 276.66 -249 277.32 -249 278 C-269.21081397 286.63781676 -292.53072584 291.93494791 -314 284 C-326.22709653 278.92251231 -339.01796129 271.34080214 -347.3125 260.875 C-348.35857422 259.57175781 -348.35857422 259.57175781 -349.42578125 258.2421875 C-351 256 -351 256 -351 254 C-351.66 254 -352.32 254 -353 254 C-353.66 252.02 -354.32 250.04 -355 248 C-355.66 248 -356.32 248 -357 248 C-357.82011312 246.44148245 -358.63076213 244.87798284 -359.4375 243.3125 C-360.11619141 242.00732422 -360.11619141 242.00732422 -360.80859375 240.67578125 C-361.95991928 238.09001736 -362.56320753 235.78643472 -363 233 C-364.32 232.67 -365.64 232.34 -367 232 C-366.40179443 231.92555664 -365.80358887 231.85111328 -365.18725586 231.77441406 C-362.20338435 230.71795236 -361.59064674 229.31951611 -360.00390625 226.609375 C-359.45234863 225.68342529 -358.90079102 224.75747559 -358.33251953 223.8034668 C-357.74841309 222.79582275 -357.16430664 221.78817871 -356.5625 220.75 C-355.30163023 218.62579792 -354.03989376 216.50211008 -352.77734375 214.37890625 C-351.82577393 212.76653076 -351.82577393 212.76653076 -350.85498047 211.12158203 C-348.1715624 206.60589588 -345.40303288 202.14537463 -342.625 197.6875 C-341.55294983 195.95990564 -340.48134495 194.23203489 -339.41015625 192.50390625 C-338.86117676 191.61848145 -338.31219727 190.73305664 -337.74658203 189.82080078 C-329.38080717 176.30973526 -321.06346499 162.76896945 -312.8125 149.1875 C-307.92382433 141.14085382 -302.99472322 133.12068801 -298.03222656 125.11938477 C-288.56134372 109.84822764 -279.14252086 94.54514526 -269.8125 79.1875 C-264.92944184 71.1501001 -260.00971869 63.13678708 -255.04760742 55.14794922 C-251.97253172 50.19518892 -248.91480381 45.23229437 -245.875 40.2578125 C-244.80700465 38.51274168 -243.73881079 36.76779249 -242.67059326 35.02285767 C-241.65918004 33.36841092 -240.65106479 31.71194942 -239.64306641 30.05541992 C-237.78530666 27.02171009 -235.89733739 24.00907428 -234 21 C-233.12891602 19.5620105 -233.12891602 19.5620105 -232.24023438 18.0949707 C-227.51034872 10.6901934 -227.51034872 10.6901934 -223.203125 9.25390625 C-221.89311138 8.98310113 -220.57405288 8.75317006 -219.25 8.5625 C-217.82920486 8.28498949 -216.40863157 8.00634079 -214.98828125 7.7265625 C-214.30330566 7.60571289 -213.61833008 7.48486328 -212.91259766 7.36035156 C-210.36943515 6.88119559 -207.91714277 6.17358586 -205.4375 5.4375 C-201.42133217 4.32387234 -197.40628226 3.46813254 -193.3125 2.6875 C-186.3881963 1.33676314 -179.53857943 -0.25504581 -172.6875 -1.9375 C-171.68565674 -2.17831299 -170.68381348 -2.41912598 -169.65161133 -2.66723633 C-163.18836344 -4.27650114 -157.11442781 -6.35912511 -151 -9 C-150.67 -8.34 -150.34 -7.68 -150 -7 C-148.77539062 -7.45890625 -147.55078125 -7.9178125 -146.2890625 -8.390625 C-107.81162307 -21.11167654 -36.20916253 -17.0396059 0 0 Z " fill="#0E906C" transform="translate(718,461)"/>
<path d="M0 0 C0.91195129 0.1244751 1.82390259 0.2489502 2.76348877 0.37719727 C12.10040231 1.67319928 21.36619149 3.18677786 30.578125 5.1953125 C31.28482834 5.34801102 31.99153168 5.50070953 32.71965027 5.65803528 C44.42376656 8.32576046 54.89851791 13.27806401 65 19.6875 C65.69488525 20.12586182 66.38977051 20.56422363 67.10571289 21.01586914 C71.22754211 23.75285231 74.39241625 26.68967527 77.48168945 30.55664062 C78.80049385 32.24307228 78.80049385 32.24307228 80.48120117 33.77148438 C81.8125 35.1875 81.8125 35.1875 81.8125 37.1875 C82.4725 37.1875 83.1325 37.1875 83.8125 37.1875 C84.4725 38.8375 85.1325 40.4875 85.8125 42.1875 C86.4725 42.1875 87.1325 42.1875 87.8125 42.1875 C88.4725 44.1675 89.1325 46.1475 89.8125 48.1875 C90.4725 48.1875 91.1325 48.1875 91.8125 48.1875 C97.80063225 59.7490021 102.64046445 72.13029142 103.8125 85.1875 C103.93625 86.48880859 103.93625 86.48880859 104.0625 87.81640625 C105.02587599 108.98057261 97.63982348 127.59752809 86.23828125 144.890625 C85.61046753 145.84437012 85.61046753 145.84437012 84.9699707 146.81738281 C84.58800537 147.26952148 84.20604004 147.72166016 83.8125 148.1875 C83.1525 148.1875 82.4925 148.1875 81.8125 148.1875 C81.6475 148.868125 81.4825 149.54875 81.3125 150.25 C79.12258067 154.53859203 75.69249001 157.38259056 71.8125 160.1875 C71.1525 160.1875 70.4925 160.1875 69.8125 160.1875 C69.8125 160.8475 69.8125 161.5075 69.8125 162.1875 C67.71655394 163.72472845 65.63724938 165.12557988 63.4375 166.5 C62.80424805 166.90081787 62.17099609 167.30163574 61.51855469 167.71459961 C47.95506035 176.1875 47.95506035 176.1875 43.8125 176.1875 C43.87050781 177.45980469 43.92851563 178.73210937 43.98828125 180.04296875 C44.63316036 200.7965318 40.34764287 219.93766366 29.25 237.625 C28.76853516 238.41326172 28.28707031 239.20152344 27.79101562 240.01367188 C25.67560524 243.43266389 23.70447203 246.38223355 20.8125 249.1875 C20.235 249.97125 19.6575 250.755 19.0625 251.5625 C16.36641782 254.70792921 13.40040981 257.11075417 9.8125 259.1875 C9.1525 259.1875 8.4925 259.1875 7.8125 259.1875 C7.8125 259.8475 7.8125 260.5075 7.8125 261.1875 C5.9140625 262.6953125 5.9140625 262.6953125 3.4375 264.3125 C2.62539063 264.85132813 1.81328125 265.39015625 0.9765625 265.9453125 C-1.1875 267.1875 -1.1875 267.1875 -3.1875 267.1875 C-3.1875 267.8475 -3.1875 268.5075 -3.1875 269.1875 C-6.49740627 270.32022952 -9.81085902 271.44222699 -13.125 272.5625 C-14.05119141 272.87960937 -14.97738281 273.19671875 -15.93164062 273.5234375 C-32.71954617 279.17831095 -48.5122082 279.89194228 -65.875 276 C-66.75824951 275.80398193 -67.64149902 275.60796387 -68.55151367 275.40600586 C-77.72114913 273.14845183 -85.65749836 268.78430361 -93.5 263.625 C-94.08072266 263.25181641 -94.66144531 262.87863281 -95.25976562 262.49414062 C-100.78594181 258.90368717 -105.13865153 255.37508711 -109.1875 250.1875 C-109.991875 249.383125 -110.79625 248.57875 -111.625 247.75 C-114.36919541 245.00580459 -116.80509253 242.25059531 -119.1875 239.1875 C-119.1875 238.5275 -119.1875 237.8675 -119.1875 237.1875 C-119.8475 237.1875 -120.5075 237.1875 -121.1875 237.1875 C-121.5175 235.8675 -121.8475 234.5475 -122.1875 233.1875 C-122.8475 233.1875 -123.5075 233.1875 -124.1875 233.1875 C-125.63058836 231.15253184 -126.9507706 229.1247496 -128.25 227 C-132.14699183 220.75773786 -136.26181373 214.72435939 -140.53515625 208.734375 C-142.1875 206.1875 -142.1875 206.1875 -142.1875 204.1875 C-142.8475 204.1875 -143.5075 204.1875 -144.1875 204.1875 C-145.19258801 202.39868264 -146.19142736 200.60635304 -147.1875 198.8125 C-148.0228125 197.31589844 -148.0228125 197.31589844 -148.875 195.7890625 C-150.1875 193.1875 -150.1875 193.1875 -150.1875 191.1875 C-150.8475 191.1875 -151.5075 191.1875 -152.1875 191.1875 C-152.70699219 190.14851562 -153.22648437 189.10953125 -153.76171875 188.0390625 C-154.26505737 187.0325061 -154.26505737 187.0325061 -154.77856445 186.00561523 C-155.51303681 184.53650697 -156.2472466 183.0672674 -156.98120117 181.59790039 C-158.55707285 178.44371921 -160.13518798 175.2909291 -161.7265625 172.14453125 C-162.14679688 171.31308594 -162.56703125 170.48164062 -163 169.625 C-163.35707031 168.92246094 -163.71414063 168.21992187 -164.08203125 167.49609375 C-165.54906434 164.43243101 -166.86409357 161.31589629 -168.1875 158.1875 C-165.36886581 170.55971306 -162.5484729 182.93202181 -159.5 195.25 C-159.31026611 196.02633789 -159.12053223 196.80267578 -158.92504883 197.60253906 C-157.8044276 202.08112786 -156.48089852 206.44211569 -154.98852539 210.81030273 C-154.12153115 213.38327528 -153.30857246 215.96937968 -152.50390625 218.5625 C-152.21580078 219.48546875 -151.92769531 220.4084375 -151.63085938 221.359375 C-151.04396418 223.24368596 -150.46062459 225.12910808 -149.88085938 227.015625 C-148.23570928 232.26251796 -146.36684518 237.25930409 -144.06469727 242.25292969 C-143.01764036 244.56210834 -142.18006551 246.90920099 -141.375 249.3125 C-138.80545497 256.50122716 -135.50925416 263.32547751 -132.1875 270.1875 C-131.87796387 270.83380371 -131.56842773 271.48010742 -131.24951172 272.14599609 C-118.84626824 297.97589545 -102.82220878 320.5340845 -84.1875 342.1875 C-83.50429688 342.98414063 -82.82109375 343.78078125 -82.1171875 344.6015625 C-45.37248042 387.07271744 10.93764846 411.0630369 65.1875 420.4375 C66.1254541 420.60096924 67.0634082 420.76443848 68.02978516 420.93286133 C84.78667351 423.66638888 101.81948505 423.46784395 118.75 423.75 C121.1868549 423.79328656 123.62370395 423.83690372 126.06054688 423.88085938 C131.97780256 423.98688386 137.89511735 424.08882956 143.8125 424.1875 C145.33289749 427.1099982 146.18442732 429.50878091 146.6640625 432.77734375 C146.85742188 434.07768555 146.85742188 434.07768555 147.0546875 435.40429688 C147.24417969 436.75104492 147.24417969 436.75104492 147.4375 438.125 C147.5715625 439.01896484 147.705625 439.91292969 147.84375 440.83398438 C148.45081254 445.00599069 148.83980314 448.96741464 148.8125 453.1875 C141.40082854 453.23909628 133.98920492 453.27359986 126.57739258 453.29736328 C124.06695832 453.30729164 121.5565352 453.32083876 119.04614258 453.33837891 C96.99963051 453.48832518 75.45265449 452.56783339 53.8125 448.1875 C52.31382482 447.89701809 50.81512622 447.60665696 49.31640625 447.31640625 C33.27977478 444.13933775 16.9790962 440.37644974 1.8125 434.1875 C0.39710938 433.62095703 0.39710938 433.62095703 -1.046875 433.04296875 C-8.53489359 429.98762438 -15.8819565 426.65411691 -23.1875 423.1875 C-24.97220703 422.36185547 -24.97220703 422.36185547 -26.79296875 421.51953125 C-48.33864542 411.33171905 -68.83173165 397.48803763 -86.1875 381.1875 C-87.49449491 380.05610901 -88.80659421 378.93057308 -90.125 377.8125 C-98.46962776 370.52805036 -106.09223795 362.63468937 -112.9765625 353.9609375 C-115.31904366 351.0224894 -117.74879478 348.17141289 -120.1875 345.3125 C-125.27406277 339.2007992 -129.81315603 332.82113963 -134.1875 326.1875 C-134.62787598 325.52991699 -135.06825195 324.87233398 -135.52197266 324.19482422 C-152.20981456 299.17176807 -182.1875 251.93861346 -182.1875 220.1875 C-182.8475 220.1875 -183.5075 220.1875 -184.1875 220.1875 C-184.22488281 221.19425781 -184.26226563 222.20101562 -184.30078125 223.23828125 C-185.39157026 248.0574667 -189.71887695 270.98727633 -202.625 292.4375 C-203.0794751 293.19466309 -203.5339502 293.95182617 -204.00219727 294.73193359 C-212.42391766 308.39713997 -212.42391766 308.39713997 -219.1875 310.1875 C-219.1875 310.8475 -219.1875 311.5075 -219.1875 312.1875 C-222.14937272 314.35954 -224.69435991 316.02311997 -228.1875 317.1875 C-228.1875 317.8475 -228.1875 318.5075 -228.1875 319.1875 C-230.83488916 320.6481285 -232.08198334 321.1875 -235.1875 321.1875 C-235.1875 321.8475 -235.1875 322.5075 -235.1875 323.1875 C-259.86717485 333.04321303 -283.67828585 337.41166355 -309.0625 327 C-319.288743 322.58807616 -329.18071233 317.0080833 -337.1875 309.1875 C-337.1875 308.5275 -337.1875 307.8675 -337.1875 307.1875 C-338.1775 306.8575 -339.1675 306.5275 -340.1875 306.1875 C-340.1875 305.5275 -340.1875 304.8675 -340.1875 304.1875 C-340.8475 304.1875 -341.5075 304.1875 -342.1875 304.1875 C-344.01936004 302.01843189 -345.70877104 299.85471862 -347.375 297.5625 C-348.10940308 296.5576355 -348.10940308 296.5576355 -348.85864258 295.5324707 C-360.1875 279.64078233 -360.1875 279.64078233 -360.1875 273.1875 C-361.07308594 273.21070313 -361.95867187 273.23390625 -362.87109375 273.2578125 C-384.63819224 273.57491903 -403.86395313 270.40616936 -422.4375 258.5 C-423.20126953 258.01217041 -423.96503906 257.52434082 -424.75195312 257.02172852 C-425.45771484 256.55694092 -426.16347656 256.09215332 -426.890625 255.61328125 C-427.52645508 255.19473877 -428.16228516 254.77619629 -428.81738281 254.3449707 C-429.26952148 253.96300537 -429.72166016 253.58104004 -430.1875 253.1875 C-430.1875 252.5275 -430.1875 251.8675 -430.1875 251.1875 C-430.765 251.105 -431.3425 251.0225 -431.9375 250.9375 C-434.8414336 249.96952213 -436.22490604 248.50055716 -438.1875 246.1875 C-438.1875 245.5275 -438.1875 244.8675 -438.1875 244.1875 C-438.8475 244.1875 -439.5075 244.1875 -440.1875 244.1875 C-442.7895866 240.69094613 -444.73747977 237.29589064 -446.1875 233.1875 C-446.8475 233.1875 -447.5075 233.1875 -448.1875 233.1875 C-462.21539614 214.59333854 -463.69823728 192.31030272 -460.74609375 170.1015625 C-458.91478997 157.26962974 -454.49686308 146.85256096 -447.5 135.9375 C-447.01217041 135.17373047 -446.52434082 134.40996094 -446.02172852 133.62304688 C-445.55694092 132.91728516 -445.09215332 132.21152344 -444.61328125 131.484375 C-444.19473877 130.84854492 -443.77619629 130.21271484 -443.3449707 129.55761719 C-442.96300537 129.10547852 -442.58104004 128.65333984 -442.1875 128.1875 C-441.5275 128.1875 -440.8675 128.1875 -440.1875 128.1875 C-440.14625 127.630625 -440.105 127.07375 -440.0625 126.5 C-438.69772892 122.893105 -436.27669824 121.45711504 -433.1875 119.1875 C-432.5275 119.1875 -431.8675 119.1875 -431.1875 119.1875 C-430.6925 117.7025 -430.6925 117.7025 -430.1875 116.1875 C-429.5275 116.1875 -428.8675 116.1875 -428.1875 116.1875 C-428.1875 115.5275 -428.1875 114.8675 -428.1875 114.1875 C-426.7265625 112.8984375 -426.7265625 112.8984375 -424.8125 111.5625 C-424.18601562 111.11648438 -423.55953125 110.67046875 -422.9140625 110.2109375 C-421.1875 109.1875 -421.1875 109.1875 -419.1875 109.1875 C-419.1875 108.5275 -419.1875 107.8675 -419.1875 107.1875 C-417.2075 106.6925 -417.2075 106.6925 -415.1875 106.1875 C-415.1875 105.5275 -415.1875 104.8675 -415.1875 104.1875 C-412.76100969 102.38681985 -410.34010703 100.70913451 -407.8125 99.0625 C-406.76449219 98.36060547 -406.76449219 98.36060547 -405.6953125 97.64453125 C-400.45433218 94.1875 -400.45433218 94.1875 -398.1875 94.1875 C-398.1875 93.5275 -398.1875 92.8675 -398.1875 92.1875 C-396.0703125 90.6796875 -396.0703125 90.6796875 -393.3125 89.0625 C-392.40757812 88.52367187 -391.50265625 87.98484375 -390.5703125 87.4296875 C-388.1875 86.1875 -388.1875 86.1875 -386.1875 86.1875 C-386.1875 85.5275 -386.1875 84.8675 -386.1875 84.1875 C-384.98420044 83.52161865 -384.98420044 83.52161865 -383.7565918 82.84228516 C-380.77603943 81.19210902 -377.79613125 79.54078132 -374.81665039 77.88867188 C-373.52784381 77.17434276 -372.23878338 76.46047143 -370.94946289 75.74707031 C-369.0945423 74.72060944 -367.24054567 73.69249696 -365.38671875 72.6640625 C-364.27127686 72.04611816 -363.15583496 71.42817383 -362.0065918 70.79150391 C-360.02353204 69.66318464 -358.08589352 68.45309568 -356.1875 67.1875 C-354.8675 67.1875 -353.5475 67.1875 -352.1875 67.1875 C-352.1875 66.5275 -352.1875 65.8675 -352.1875 65.1875 C-344.28003809 61.98361457 -336.35481517 58.8323339 -328.375 55.8125 C-327.68792969 55.55001465 -327.00085938 55.2875293 -326.29296875 55.01708984 C-321.42387921 53.1875 -321.42387921 53.1875 -319.1875 53.1875 C-319.1875 53.8475 -319.1875 54.5075 -319.1875 55.1875 C-320.74770867 55.83884925 -322.31078579 56.48332964 -323.875 57.125 C-325.18017578 57.66447266 -325.18017578 57.66447266 -326.51171875 58.21484375 C-329.06929265 59.1445312 -331.5096323 59.72912625 -334.1875 60.1875 C-334.1875 60.8475 -334.1875 61.5075 -334.1875 62.1875 C-338.1475 63.1775 -338.1475 63.1775 -342.1875 64.1875 C-342.1875 64.8475 -342.1875 65.5075 -342.1875 66.1875 C-346.2063515 67.99992323 -349.79860675 69.52251617 -354.1875 70.1875 C-354.1875 70.8475 -354.1875 71.5075 -354.1875 72.1875 C-355.05632812 72.64640625 -355.92515625 73.1053125 -356.8203125 73.578125 C-357.97273438 74.19171875 -359.12515625 74.8053125 -360.3125 75.4375 C-361.44945312 76.04078125 -362.58640625 76.6440625 -363.7578125 77.265625 C-367.22046867 79.13648723 -367.22046867 79.13648723 -370.4296875 81.421875 C-373.1875 83.1875 -373.1875 83.1875 -376.1875 83.1875 C-376.6825 84.6725 -376.6825 84.6725 -377.1875 86.1875 C-379.18359375 87.57421875 -379.18359375 87.57421875 -381.625 88.875 C-382.42808594 89.31199219 -383.23117187 89.74898437 -384.05859375 90.19921875 C-386.1875 91.1875 -386.1875 91.1875 -388.1875 91.1875 C-388.6825 92.6725 -388.6825 92.6725 -389.1875 94.1875 C-391.25 94.875 -391.25 94.875 -393.1875 95.1875 C-393.1875 95.8475 -393.1875 96.5075 -393.1875 97.1875 C-394.5075 97.5175 -395.8275 97.8475 -397.1875 98.1875 C-397.1875 98.8475 -397.1875 99.5075 -397.1875 100.1875 C-399.6625 101.1775 -399.6625 101.1775 -402.1875 102.1875 C-402.1875 102.8475 -402.1875 103.5075 -402.1875 104.1875 C-403.65625 105.59765625 -403.65625 105.59765625 -405.6875 107.25 C-415.18177898 115.35446389 -423.7683036 125.40297627 -428.1875 137.1875 C-428.87476876 138.85426203 -429.56228551 140.52092183 -430.25 142.1875 C-436.61473078 157.72869002 -436.65778335 176.73376878 -430.82421875 192.49609375 C-428.44287241 198.0335857 -425.77545322 203.43512184 -422.95703125 208.76171875 C-421.52113806 211.5415826 -420.27885988 214.26041682 -419.1875 217.1875 C-418.5275 217.1875 -417.8675 217.1875 -417.1875 217.1875 C-415.83830468 218.84135233 -414.50616272 220.509202 -413.1875 222.1875 C-412.1975 222.8475 -411.2075 223.5075 -410.1875 224.1875 C-410.1875 224.8475 -410.1875 225.5075 -410.1875 226.1875 C-409.5275 226.39375 -408.8675 226.6 -408.1875 226.8125 C-405.52830325 228.03129851 -403.76718937 229.21108182 -401.5 231 C-397.05490556 234.44326444 -392.30211213 236.884673 -387.1875 239.1875 C-386.42824219 239.53167969 -385.66898437 239.87585938 -384.88671875 240.23046875 C-381.38473592 241.47212692 -377.83863929 242.12850333 -374.1875 242.75 C-373.06408203 242.94396362 -373.06408203 242.94396362 -371.91796875 243.1418457 C-362.36570116 244.73151715 -352.86587695 245.35154029 -343.1875 245.1875 C-340.55384013 250.1096313 -338.54274176 254.76653298 -337.1875 260.1875 C-336.5275 260.1875 -335.8675 260.1875 -335.1875 260.1875 C-334.5275 262.1675 -333.8675 264.1475 -333.1875 266.1875 C-332.5275 266.1875 -331.8675 266.1875 -331.1875 266.1875 C-329.8984375 267.6484375 -329.8984375 267.6484375 -328.5625 269.5625 C-328.11648438 270.18898438 -327.67046875 270.81546875 -327.2109375 271.4609375 C-326.1875 273.1875 -326.1875 273.1875 -326.1875 275.1875 C-325.1975 275.5175 -324.2075 275.8475 -323.1875 276.1875 C-323.1875 276.8475 -323.1875 277.5075 -323.1875 278.1875 C-322.62289062 278.45046875 -322.05828125 278.7134375 -321.4765625 278.984375 C-318.99800363 280.28709878 -316.83115023 281.79697768 -314.5625 283.4375 C-296.09156897 296.40759902 -277.15359867 300.8012857 -254.64746094 297.85498047 C-247.41219154 296.51792747 -240.44684665 294.27282442 -233.88671875 290.921875 C-232.1875 290.1875 -232.1875 290.1875 -229.1875 290.1875 C-229.1875 289.5275 -229.1875 288.8675 -229.1875 288.1875 C-227.2075 287.5275 -225.2275 286.8675 -223.1875 286.1875 C-223.1875 285.5275 -223.1875 284.8675 -223.1875 284.1875 C-218.71691176 280.1875 -218.71691176 280.1875 -216.1875 280.1875 C-215.8575 279.1975 -215.5275 278.2075 -215.1875 277.1875 C-214.5275 277.1875 -213.8675 277.1875 -213.1875 277.1875 C-212.94 276.445 -212.6925 275.7025 -212.4375 274.9375 C-211.1875 272.1875 -211.1875 272.1875 -209.390625 270.44921875 C-201.3877145 262.23346488 -196.93258116 251.11093176 -194.1875 240.1875 C-193.86523438 239.06472656 -193.54296875 237.94195313 -193.2109375 236.78515625 C-185.69072368 210.34959545 -184.31171123 181.56643677 -185.1875 154.1875 C-185.2189209 153.03926758 -185.2503418 151.89103516 -185.28271484 150.70800781 C-185.65643053 137.18757095 -186.09294199 123.67152316 -187.1875 110.1875 C-186.5275 110.1875 -185.8675 110.1875 -185.1875 110.1875 C-184.80078125 111.321875 -184.4140625 112.45625 -184.015625 113.625 C-183.48987051 115.14593263 -182.96381254 116.66676039 -182.4375 118.1875 C-182.18484375 118.93128906 -181.9321875 119.67507813 -181.671875 120.44140625 C-179.88125449 125.58944023 -177.69105662 130.35300421 -175.1875 135.1875 C-173.9141722 137.78077191 -172.67297944 140.38852522 -171.4375 143 C-171.12167969 143.65419922 -170.80585937 144.30839844 -170.48046875 144.98242188 C-169.10255451 147.90228777 -168.1875 149.91753983 -168.1875 153.1875 C-167.5275 153.1875 -166.8675 153.1875 -166.1875 153.1875 C-164.68123883 156.30952006 -163.18356757 159.43558399 -161.6875 162.5625 C-161.25824219 163.45195313 -160.82898438 164.34140625 -160.38671875 165.2578125 C-159.98066406 166.10859375 -159.57460938 166.959375 -159.15625 167.8359375 C-158.77919922 168.62145996 -158.40214844 169.40698242 -158.01367188 170.21630859 C-157.1875 172.1875 -157.1875 172.1875 -157.1875 174.1875 C-156.5275 174.1875 -155.8675 174.1875 -155.1875 174.1875 C-154.34901196 175.64287568 -153.51686066 177.10190373 -152.6875 178.5625 C-152.2234375 179.37460937 -151.759375 180.18671875 -151.28125 181.0234375 C-150.1875 183.1875 -150.1875 183.1875 -150.1875 185.1875 C-149.5275 185.1875 -148.8675 185.1875 -148.1875 185.1875 C-147.51595067 186.47663487 -146.85041141 187.76890204 -146.1875 189.0625 C-145.81625 189.78179688 -145.445 190.50109375 -145.0625 191.2421875 C-144.1875 193.1875 -144.1875 193.1875 -144.1875 195.1875 C-143.5275 195.1875 -142.8675 195.1875 -142.1875 195.1875 C-140.78515625 197.234375 -140.78515625 197.234375 -139.25 199.9375 C-137.7612339 202.54188878 -136.32385002 205.00989858 -134.49609375 207.390625 C-133.1875 209.1875 -133.1875 209.1875 -133.1875 211.1875 C-132.5275 211.1875 -131.8675 211.1875 -131.1875 211.1875 C-127.1875 215.65808824 -127.1875 215.65808824 -127.1875 218.1875 C-126.5275 218.1875 -125.8675 218.1875 -125.1875 218.1875 C-124.919375 218.991875 -124.65125 219.79625 -124.375 220.625 C-123.983125 221.470625 -123.59125 222.31625 -123.1875 223.1875 C-122.1975 223.5175 -121.2075 223.8475 -120.1875 224.1875 C-120.1875 224.8475 -120.1875 225.5075 -120.1875 226.1875 C-119.3521875 226.5278125 -119.3521875 226.5278125 -118.5 226.875 C-115.5553865 228.54626712 -113.57897596 230.79602404 -111.1875 233.1875 C-109.22027992 234.56873963 -107.21881672 235.90238126 -105.1875 237.1875 C-104.341875 237.80625 -103.49625 238.425 -102.625 239.0625 C-86.41146047 249.74485807 -67.16424292 252.74984194 -48.1875 250.1875 C-40.66711275 248.76880547 -40.66711275 248.76880547 -34.1875 245.1875 C-32.52132885 245.14686168 -30.85361905 245.144779 -29.1875 245.1875 C-29.1875 244.5275 -29.1875 243.8675 -29.1875 243.1875 C-27.97513672 242.60742188 -27.97513672 242.60742188 -26.73828125 242.015625 C-25.66964844 241.49484375 -24.60101562 240.9740625 -23.5 240.4375 C-22.44425781 239.92703125 -21.38851563 239.4165625 -20.30078125 238.890625 C-17.28932293 237.24320238 -14.85126677 235.33344171 -12.1875 233.1875 C-11.5275 233.1875 -10.8675 233.1875 -10.1875 233.1875 C-9.8575 232.1975 -9.5275 231.2075 -9.1875 230.1875 C-8.5275 230.1875 -7.8675 230.1875 -7.1875 230.1875 C-6.92582031 229.61515625 -6.66414063 229.0428125 -6.39453125 228.453125 C-5.1026137 226.02816649 -3.60485476 224.07009256 -1.875 221.9375 C10.5546807 206.12962807 15.03685854 189.08365008 14.875 169.1875 C14.86823242 167.59615234 14.86823242 167.59615234 14.86132812 165.97265625 C14.84963843 163.37754402 14.83325276 160.78255291 14.8125 158.1875 C16.7925 158.1875 18.7725 158.1875 20.8125 158.1875 C20.8125 157.5275 20.8125 156.8675 20.8125 156.1875 C21.40417969 155.93355469 21.99585938 155.67960938 22.60546875 155.41796875 C26.86333126 153.56340221 30.83637516 151.59727263 34.8125 149.1875 C35.4725 149.1875 36.1325 149.1875 36.8125 149.1875 C36.8125 148.5275 36.8125 147.8675 36.8125 147.1875 C38.1325 146.8575 39.4525 146.5275 40.8125 146.1875 C40.8125 145.5275 40.8125 144.8675 40.8125 144.1875 C46.28869048 139.1875 46.28869048 139.1875 48.8125 139.1875 C48.895 138.61 48.9775 138.0325 49.0625 137.4375 C49.8125 135.1875 49.8125 135.1875 51.54296875 133.52734375 C58.46702281 126.3887751 64.71532225 115.9256993 66.8125 106.1875 C67.11220703 105.09308594 67.11220703 105.09308594 67.41796875 103.9765625 C72.28979142 83.24679356 68.772861 61.25000622 58.00585938 43.03320312 C52.11375114 33.9202043 43.87727143 27.01665163 34.8125 21.1875 C33.843125 20.55972656 32.87375 19.93195313 31.875 19.28515625 C25.11410617 15.12122034 18.4276989 12.37924594 10.8125 10.1875 C9.69875 9.836875 8.585 9.48625 7.4375 9.125 C-4.01577631 6.16294578 -15.4283027 4.29339483 -27.1875 3.1875 C-28.1048291 3.10113281 -29.0221582 3.01476562 -29.96728516 2.92578125 C-48.35510587 1.25057461 -66.73712259 0.62636993 -85.1875 0.1875 C-66.38145757 -12.34986162 -21.21579941 -2.91545884 0 0 Z " fill="#02AC7F" transform="translate(698.1875,448.8125)"/>
<path d="M0 0 C6.52754082 5.11546429 6.52754082 5.11546429 9 8 C9 8.66 9 9.32 9 10 C9.66 10 10.32 10 11 10 C11.99 12.475 11.99 12.475 13 15 C13.66 15 14.32 15 15 15 C16.53722845 17.09594606 17.93807988 19.17525062 19.3125 21.375 C19.71331787 22.00825195 20.11413574 22.64150391 20.52709961 23.29394531 C29 36.85743965 29 36.85743965 29 41 C29.59723877 40.97381592 30.19447754 40.94763184 30.80981445 40.9206543 C45.10133978 40.38091316 57.42895336 41.45994458 71 46 C71.91265625 46.27585937 72.8253125 46.55171875 73.765625 46.8359375 C83.44046213 50.15960604 94.85677435 56.6359905 102 64 C103.175625 64.86625 103.175625 64.86625 104.375 65.75 C107.52042921 68.44608218 109.92325417 71.41209019 112 75 C112 75.66 112 76.32 112 77 C112.66 77 113.32 77 114 77 C114.33 78.32 114.66 79.64 115 81 C115.66 81 116.32 81 117 81 C129.53959514 96.67449393 132.43005044 118.42874784 130.45068359 137.86157227 C130.0447494 141.25628172 129.54131433 144.62390802 129 148 C128.8659375 148.87140625 128.731875 149.7428125 128.59375 150.640625 C126.68840775 160.8268778 121.84365078 169.62144071 116.3125 178.25 C115.82467041 179.01376953 115.33684082 179.77753906 114.83422852 180.56445312 C114.36944092 181.27021484 113.90465332 181.97597656 113.42578125 182.703125 C113.00723877 183.33895508 112.58869629 183.97478516 112.1574707 184.62988281 C111.77550537 185.08202148 111.39354004 185.53416016 111 186 C110.34 186 109.68 186 109 186 C108.773125 186.556875 108.54625 187.11375 108.3125 187.6875 C106.62449964 190.66159588 104.53323483 192.72008865 102 195 C101.34 195 100.68 195 100 195 C99.67 195.99 99.34 196.98 99 198 C98.34 198 97.68 198 97 198 C97 198.66 97 199.32 97 200 C95.5390625 201.2890625 95.5390625 201.2890625 93.625 202.625 C92.99851562 203.07101562 92.37203125 203.51703125 91.7265625 203.9765625 C90 205 90 205 88 205 C88 205.66 88 206.32 88 207 C86.68 207.33 85.36 207.66 84 208 C84 208.66 84 209.32 84 210 C81.734375 211.62109375 81.734375 211.62109375 78.75 213.4375 C74.66004647 215.93749864 74.66004647 215.93749864 70.765625 218.72265625 C69 220 69 220 67 220 C67 220.66 67 221.32 67 222 C64.8828125 223.5078125 64.8828125 223.5078125 62.125 225.125 C61.22007812 225.66382813 60.31515625 226.20265625 59.3828125 226.7578125 C57 228 57 228 55 228 C55 228.66 55 229.32 55 230 C51.01759752 232.20750276 47.03399388 234.41281734 43.04931641 236.61621094 C41.69710517 237.36432494 40.34521013 238.11301079 38.99365234 238.86230469 C20.05531541 249.36027416 20.05531541 249.36027416 11.75 252.4375 C6.31827611 254.47755444 0.97834299 256.67423574 -4.34375 258.984375 C-6.8985986 259.96122888 -9.3071257 260.55118762 -12 261 C-12 260.34 -12 259.68 -12 259 C-11.23816406 258.68546875 -10.47632813 258.3709375 -9.69140625 258.046875 C-3.99736333 255.68679728 1.66487834 253.29081644 7.2578125 250.69921875 C9 250 9 250 11 250 C11 249.34 11 248.68 11 248 C12.0725 247.54625 13.145 247.0925 14.25 246.625 C16.30482173 245.75087221 18.27327148 244.85577339 20.25 243.8125 C22 243 22 243 25 243 C25 242.34 25 241.68 25 241 C26.78881736 239.99491199 28.58114696 238.99607264 30.375 238 C31.37273437 237.443125 32.37046875 236.88625 33.3984375 236.3125 C36 235 36 235 38 235 C38 234.34 38 233.68 38 233 C39.093125 232.566875 40.18625 232.13375 41.3125 231.6875 C44.18456329 230.46071049 45.83603888 229.25412617 48 227 C54.15942029 223 54.15942029 223 57 223 C57 222.34 57 221.68 57 221 C59.475 220.01 59.475 220.01 62 219 C62 218.34 62 217.68 62 217 C63.32 216.67 64.64 216.34 66 216 C66 215.34 66 214.68 66 214 C68.475 213.01 68.475 213.01 71 212 C71 211.34 71 210.68 71 210 C72.64453125 208.37890625 72.64453125 208.37890625 74.8125 206.5625 C77.82463265 204.02660668 77.82463265 204.02660668 80.63671875 201.27734375 C82 200 82 200 84 200 C84.268125 199.278125 84.53625 198.55625 84.8125 197.8125 C86.35923134 194.14918892 87.89140427 190.99773616 90.875 188.3125 C94.23777422 184.6530104 96.05199802 180.54339384 98 176 C98.47179687 174.92363281 98.94359375 173.84726562 99.4296875 172.73828125 C105.45795539 156.71398723 105.8181463 136.92263285 99.37890625 120.98046875 C98.92386719 119.99691406 98.46882812 119.01335937 98 118 C97.59652344 117.06800781 97.19304687 116.13601563 96.77734375 115.17578125 C96.10973184 113.65152037 95.42162659 112.13578639 94.69921875 110.63671875 C94 109 94 109 94 107 C93.34 107 92.68 107 92 107 C89 101.25 89 101.25 89 99 C88.34 99 87.68 99 87 99 C86.896875 98.360625 86.79375 97.72125 86.6875 97.0625 C86.3471875 96.0415625 86.3471875 96.0415625 86 95 C85.01 94.67 84.02 94.34 83 94 C83 93.34 83 92.68 83 92 C82.13181641 91.57654297 82.13181641 91.57654297 81.24609375 91.14453125 C76.59941897 88.7767474 72.23317431 86.29807822 68.625 82.5 C64.91578565 78.9674149 60.64813537 77.06987278 56 75 C55.23042969 74.65582031 54.46085938 74.31164062 53.66796875 73.95703125 C42.42229378 69.92307757 23.44733107 66.58724545 12 71 C10.41775486 72.83393742 10.41775486 72.83393742 9.109375 75.21484375 C8.57328613 76.11501221 8.03719727 77.01518066 7.48486328 77.94262695 C6.9123584 78.93093506 6.33985352 79.91924316 5.75 80.9375 C4.49313179 83.05524822 3.23528255 85.17241444 1.9765625 87.2890625 C0.99671387 88.94856934 0.99671387 88.94856934 -0.00292969 90.64160156 C-3.23117754 96.07042522 -6.55439467 101.43985352 -9.875 106.8125 C-11.2241986 109.00245616 -12.57315513 111.19256147 -13.921875 113.3828125 C-15.96144581 116.6924708 -18.00123083 120.00199701 -20.04101562 123.31152344 C-27.11771332 134.79504295 -34.18412643 146.28407998 -41.1875 157.8125 C-46.07615669 165.85915755 -51.0052769 173.87931219 -55.96777344 181.88061523 C-66.02559798 198.09817609 -76.01473723 214.35729968 -85.92163086 230.66748047 C-90.2723196 237.82304739 -94.67175701 244.94729271 -99.09082031 252.06079102 C-103.83462118 259.70687762 -108.50891261 267.39453522 -113.15625 275.09960938 C-116.62891565 280.83402299 -120.23015375 286.45625859 -124 292 C-126.62108355 289.37891645 -126.98438064 287.14722726 -127.98828125 283.578125 C-128.26358421 282.60610138 -128.26358421 282.60610138 -128.54444885 281.61444092 C-129.14156274 279.49504675 -129.72775656 277.37283802 -130.3125 275.25 C-130.61404999 274.1662207 -130.61404999 274.1662207 -130.92169189 273.06054688 C-134.333583 260.78903588 -137.43235179 248.47841048 -140 236 C-140.16226074 235.22156738 -140.32452148 234.44313477 -140.49169922 233.64111328 C-143.02007812 221.38539017 -143.02007812 221.38539017 -142.94921875 216.49609375 C-142.83149206 213.05349133 -142.83149206 213.05349133 -143.90893555 210.12744141 C-145.61958121 204.3890075 -145.93551652 198.40102634 -146.5078125 192.46484375 C-146.63815887 191.15399307 -146.76850525 189.8431424 -146.90280151 188.49256897 C-147.17756196 185.72176139 -147.44762196 182.95054653 -147.71435547 180.17895508 C-148.05268841 176.66748758 -148.4028558 173.15732392 -148.75671577 169.64739132 C-149.03109788 166.91168334 -149.29885366 164.17535536 -149.564785 161.43881416 C-149.75165148 159.52784866 -149.94398539 157.61742024 -150.13650513 155.70701599 C-153.88805915 116.1807532 -151.57458299 62.25397189 -132 27 C-131.66274902 26.38592285 -131.32549805 25.7718457 -130.97802734 25.13916016 C-129.83776692 23.08133479 -128.67287444 21.03939205 -127.5 19 C-127.13237549 18.3402417 -126.76475098 17.6804834 -126.38598633 17.00073242 C-124.03391046 13.0071415 -122.3642749 11.4348301 -118 10 C-117.505 8.515 -117.505 8.515 -117 7 C-116.34 7 -115.68 7 -115 7 C-114.505 5.515 -114.505 5.515 -114 4 C-113.34 4 -112.68 4 -112 4 C-112 3.34 -112 2.68 -112 2 C-108.50344613 -0.6020866 -105.10839064 -2.54997977 -101 -4 C-101 -4.66 -101 -5.32 -101 -6 C-93.30776932 -9.83506329 -85.66101192 -13.32930523 -77.4375 -15.875 C-76.78394531 -16.07762451 -76.13039063 -16.28024902 -75.45703125 -16.48901367 C-49.13068877 -24.3334241 -21.66715882 -15.24955273 0 0 Z " fill="#0E906C" transform="translate(616,178)"/>
<path d="M0 0 C1.91486206 0.01305176 1.91486206 0.01305176 3.8684082 0.02636719 C21.20685489 0.29626071 35.20415035 4.089292 49.8125 13.5 C50.67359375 14.03753906 51.5346875 14.57507813 52.421875 15.12890625 C57.08973808 18.10003814 57.08973808 18.10003814 58.6875 19.375 C58.6875 20.035 58.6875 20.695 58.6875 21.375 C59.244375 21.41625 59.80125 21.4575 60.375 21.5 C63.981895 22.86477108 65.41788496 25.28580176 67.6875 28.375 C67.6875 29.035 67.6875 29.695 67.6875 30.375 C68.6775 30.705 69.6675 31.035 70.6875 31.375 C70.6875 32.035 70.6875 32.695 70.6875 33.375 C71.3475 33.375 72.0075 33.375 72.6875 33.375 C73.6775 35.85 73.6775 35.85 74.6875 38.375 C75.3475 38.375 76.0075 38.375 76.6875 38.375 C76.790625 39.014375 76.89375 39.65375 77 40.3125 C77.226875 40.993125 77.45375 41.67375 77.6875 42.375 C78.6775 42.705 79.6675 43.035 80.6875 43.375 C82.07421875 45.15234375 82.07421875 45.15234375 83.375 47.3125 C83.81199219 48.02277344 84.24898437 48.73304688 84.69921875 49.46484375 C85.6875 51.375 85.6875 51.375 85.6875 53.375 C86.3475 53.375 87.0075 53.375 87.6875 53.375 C88.0175 54.695 88.3475 56.015 88.6875 57.375 C89.3475 57.375 90.0075 57.375 90.6875 57.375 C91.6775 60.345 91.6775 60.345 92.6875 63.375 C93.3475 63.375 94.0075 63.375 94.6875 63.375 C95.3475 65.355 96.0075 67.335 96.6875 69.375 C97.3475 69.375 98.0075 69.375 98.6875 69.375 C99.0175 70.695 99.3475 72.015 99.6875 73.375 C100.3475 73.375 101.0075 73.375 101.6875 73.375 C101.99042969 73.931875 102.29335938 74.48875 102.60546875 75.0625 C104.72574768 78.92466962 106.87654033 82.70255017 109.3125 86.375 C111.92435225 90.46168364 113.36527848 94.73110004 114.6875 99.375 C115.3475 99.375 116.0075 99.375 116.6875 99.375 C120.88015475 108.12003432 124.80115405 116.90211375 128.328125 125.9375 C129.03185153 127.71703834 129.74440932 129.49569358 130.56054688 131.2265625 C132.74940351 135.89215261 132.74940351 135.89215261 132.375 138.8125 C132.0346875 139.5859375 132.0346875 139.5859375 131.6875 140.375 C130.5594806 138.14731922 129.43456639 135.91818065 128.3125 133.6875 C127.95816895 132.98359131 127.60383789 132.27968262 127.23876953 131.55444336 C125.14993439 127.3790308 123.11599754 123.18348901 121.140625 118.953125 C120.71185059 118.03748779 120.28307617 117.12185059 119.84130859 116.1784668 C119.00986655 114.39637443 118.18433514 112.61150833 117.36572266 110.82348633 C114.92492268 105.59973224 112.17181592 100.88710814 108.82861328 96.18530273 C107.6875 94.375 107.6875 94.375 107.6875 92.375 C107.0275 92.375 106.3675 92.375 105.6875 92.375 C104.2268715 89.72761084 103.6875 88.48051666 103.6875 85.375 C103.0275 85.375 102.3675 85.375 101.6875 85.375 C101.3575 84.055 101.0275 82.735 100.6875 81.375 C100.0275 81.375 99.3675 81.375 98.6875 81.375 C95.6875 75.625 95.6875 75.625 95.6875 73.375 C95.0275 73.375 94.3675 73.375 93.6875 73.375 C93.2853125 72.4778125 93.2853125 72.4778125 92.875 71.5625 C91.7981021 69.33172092 91.7981021 69.33172092 90.0625 67.75 C89.60875 67.29625 89.155 66.8425 88.6875 66.375 C88.6875 65.715 88.6875 65.055 88.6875 64.375 C88.0275 64.375 87.3675 64.375 86.6875 64.375 C86.254375 63.4159375 86.254375 63.4159375 85.8125 62.4375 C84.85926549 60.22293921 84.85926549 60.22293921 82.6875 59.375 C82.6875 58.715 82.6875 58.055 82.6875 57.375 C82.0275 57.375 81.3675 57.375 80.6875 57.375 C80.2853125 56.1684375 80.2853125 56.1684375 79.875 54.9375 C79.2871875 53.6690625 79.2871875 53.6690625 78.6875 52.375 C77.6975 52.045 76.7075 51.715 75.6875 51.375 C75.6875 50.715 75.6875 50.055 75.6875 49.375 C74.6975 49.045 73.7075 48.715 72.6875 48.375 C72.6875 47.715 72.6875 47.055 72.6875 46.375 C71.965625 46.106875 71.24375 45.83875 70.5 45.5625 C67.10627665 44.12959459 63.88801624 42.65927318 61.34375 39.9375 C59.33179292 38.03942728 57.29868196 37.01780706 54.8125 35.8125 C53.54792969 35.19181641 53.54792969 35.19181641 52.2578125 34.55859375 C49.76173661 33.40918495 47.24643627 32.3754242 44.6875 31.375 C43.71876953 30.97087891 43.71876953 30.97087891 42.73046875 30.55859375 C42.11816406 30.31238281 41.50585938 30.06617188 40.875 29.8125 C40.27042969 29.56371094 39.66585937 29.31492188 39.04296875 29.05859375 C32.40615766 27.13248771 25.47915953 27.19266515 18.625 27.1875 C17.76583984 27.17525391 16.90667969 27.16300781 16.02148438 27.15039062 C10.81295043 27.13845357 6.6364085 27.78160143 1.6875 29.375 C-1.75 29.5 -1.75 29.5 -4.3125 29.375 C-4.3125 30.035 -4.3125 30.695 -4.3125 31.375 C-5.74804025 31.88059908 -7.1860202 32.3792749 -8.625 32.875 C-9.42550781 33.1534375 -10.22601563 33.431875 -11.05078125 33.71875 C-13.3125 34.375 -13.3125 34.375 -16.3125 34.375 C-16.3125 35.035 -16.3125 35.695 -16.3125 36.375 C-19.2825 37.365 -22.2525 38.355 -25.3125 39.375 C-25.3125 40.035 -25.3125 40.695 -25.3125 41.375 C-26.9625 42.035 -28.6125 42.695 -30.3125 43.375 C-30.3125 44.035 -30.3125 44.695 -30.3125 45.375 C-31.97115977 46.7182808 -33.63943365 48.04970587 -35.3125 49.375 C-50.90962505 66.5745694 -57.94815959 86.44379319 -57.515625 109.66015625 C-57.30844919 114.10020872 -57.30844919 114.10020872 -56.3125 118.375 C-54.15973696 120.30764631 -54.15973696 120.30764631 -51.3359375 121.87109375 C-50.2843042 122.50490967 -49.2326709 123.13872559 -48.14916992 123.79174805 C-46.99540021 124.46553801 -45.84150709 125.13911667 -44.6875 125.8125 C-43.50205571 126.52029365 -42.31757692 127.22970667 -41.1340332 127.94067383 C-38.70900055 129.39473352 -36.27928559 130.8404198 -33.84521484 132.27929688 C-28.70021492 135.32443577 -23.60219672 138.44637554 -18.5 141.5625 C-16.60422312 142.71493662 -14.7083903 143.86728123 -12.8125 145.01953125 C-6.66397245 148.76413133 -0.5428541 152.55226138 5.57470703 156.34716797 C15.81406066 162.69835266 26.07989906 169.00638215 36.34375 175.31787109 C39.66759525 177.36275428 42.99023696 179.40957866 46.3125 181.45703125 C56.62836131 187.81302924 66.95337848 194.15222025 77.3125 200.4375 C85.0389916 205.12659419 92.72032406 209.88213109 100.375 214.6875 C109.16219541 220.20302846 118.00032746 225.6270108 126.875 231 C144.18900321 241.48943839 144.18900321 241.48943839 152.75 246.75 C153.61842529 247.27932129 154.48685059 247.80864258 155.3815918 248.35400391 C156.17476807 248.84304199 156.96794434 249.33208008 157.78515625 249.8359375 C158.47101807 250.25665527 159.15687988 250.67737305 159.86352539 251.11083984 C161.69473622 252.38001528 163.16737 253.75175525 164.6875 255.375 C156.69092079 257.49522356 148.72748112 259.45819345 140.5625 260.8125 C127.11523988 263.08086354 113.77187479 265.77299542 100.9375 270.4375 C81.82488885 277.12701965 61.08987123 277.92071281 41.0625 279.625 C39.50955231 279.75868988 39.50955231 279.75868988 37.92523193 279.89508057 C25.81378836 280.92333601 13.84472953 281.65756501 1.6875 281.375 C0.6979834 281.35775879 -0.2915332 281.34051758 -1.31103516 281.32275391 C-16.12032281 280.99424265 -30.65776371 279.45745513 -45.3125 277.375 C-46.40062988 277.22659668 -47.48875977 277.07819336 -48.60986328 276.92529297 C-59.66842806 275.41110296 -70.65963618 273.83519802 -81.4375 270.875 C-82.1289209 270.68566895 -82.8203418 270.49633789 -83.53271484 270.30126953 C-91.88577172 267.83768564 -99.25666755 263.38743014 -106.6875 258.9375 C-107.49316406 258.47279297 -108.29882812 258.00808594 -109.12890625 257.52929688 C-113.46871835 254.92322881 -115.83512345 253.42121989 -117.3125 248.375 C-118.3025 248.045 -119.2925 247.715 -120.3125 247.375 C-120.3125 246.715 -120.3125 246.055 -120.3125 245.375 C-120.9725 245.375 -121.6325 245.375 -122.3125 245.375 C-123.3025 242.9 -123.3025 242.9 -124.3125 240.375 C-124.9725 240.375 -125.6325 240.375 -126.3125 240.375 C-134.26317953 231.27052793 -140.08621212 218.97590747 -143.3125 207.375 C-143.68375 206.199375 -144.055 205.02375 -144.4375 203.8125 C-147.51546087 190.4483622 -146.16061284 177.60283883 -143.3125 164.375 C-143.17134766 163.68937988 -143.03019531 163.00375977 -142.88476562 162.29736328 C-139.60731277 147.25593088 -130.26843028 132.14836416 -119.3125 121.375 C-116.4375 119.9375 -116.4375 119.9375 -114.3125 119.375 C-114.3125 118.715 -114.3125 118.055 -114.3125 117.375 C-113.673125 117.271875 -113.03375 117.16875 -112.375 117.0625 C-111.694375 116.835625 -111.01375 116.60875 -110.3125 116.375 C-109.8175 114.89 -109.8175 114.89 -109.3125 113.375 C-107.25 112.6875 -107.25 112.6875 -105.3125 112.375 C-105.3125 111.715 -105.3125 111.055 -105.3125 110.375 C-104.45700562 110.11698608 -104.45700562 110.11698608 -103.58422852 109.85375977 C-97.2535017 107.77064641 -90.87643552 105.40228521 -86.3125 100.375 C-83.88788048 93.44825303 -85.00988715 85.72677324 -85.31494141 78.51464844 C-85.30570667 66.63878043 -80.22934782 54.45299546 -74.3125 44.375 C-73.65765625 43.23933594 -73.0028125 42.10367188 -72.328125 40.93359375 C-68.26858534 34.06418792 -64.62741265 28.03245632 -57.3125 24.375 C-56.8175 22.89 -56.8175 22.89 -56.3125 21.375 C-50.94107143 17.375 -50.94107143 17.375 -48.3125 17.375 C-48.3125 16.715 -48.3125 16.055 -48.3125 15.375 C-33.96685777 3.98722215 -18.08455013 -0.20489708 0 0 Z " fill="#0E906C" transform="translate(325.3125,215.625)"/>
<path d="M0 0 C6.99792721 3.31791013 13.49367429 7.28212005 20.0625 11.375 C21.80072443 12.45260319 23.53975034 13.52890434 25.27885437 14.60508728 C26.45951011 15.33573068 27.63993956 16.06673986 28.82014465 16.79811096 C34.46437283 20.29404917 40.13621118 23.74389778 45.8125 27.1875 C53.86173344 32.07698994 61.8840921 37.00759582 69.88720703 41.97216797 C80.12656066 48.32335266 90.39239906 54.63138215 100.65625 60.94287109 C103.98009525 62.98775428 107.30273696 65.03457866 110.625 67.08203125 C121.95307732 74.0618218 133.29642387 81.01481541 144.66870117 87.92236328 C151.83480306 92.27948229 158.96891143 96.68640895 166.09375 101.1105957 C171.5251594 104.47927063 176.97439396 107.81674126 182.43896484 111.13134766 C186.27958613 113.46182491 190.11424479 115.80202294 193.94873047 118.14257812 C196.07539992 119.43716135 198.20485263 120.72717873 200.33642578 122.01367188 C203.68972035 124.03935117 207.03301908 126.08072308 210.375 128.125 C211.42212158 128.7526123 212.46924316 129.38022461 213.5480957 130.02685547 C214.5093335 130.61869629 215.47057129 131.21053711 216.4609375 131.8203125 C217.74170166 132.59785889 217.74170166 132.59785889 219.04833984 133.39111328 C221.31852656 135.26258319 221.68118151 136.12171078 222 139 C222.41919874 148.8365472 222.36337429 158.39596946 220 168 C219.82855469 168.86367188 219.65710938 169.72734375 219.48046875 170.6171875 C217.17840788 180.86507137 211.61998826 189.94500406 205 198 C204.1231972 199.26959018 203.24809278 200.54035561 202.375 201.8125 C196.79893458 209.25661756 188.562659 215.35780558 180 219 C179.01 219 178.02 219 177 219 C177 219.66 177 220.32 177 221 C174.87229281 221.7246539 172.74182197 222.43784971 170.60546875 223.13671875 C168.97465909 223.67706198 167.35063624 224.23888511 165.73828125 224.83203125 C147.32534452 231.17808584 127.03542906 227.78233777 109.85546875 219.48046875 C105.19996947 217.01872549 101.00851979 214.43587411 97 211 C96.030625 210.401875 95.06125 209.80375 94.0625 209.1875 C90.92171097 206.94407927 88.80619225 204.64438627 86.390625 201.67578125 C84.90722646 199.82803784 84.90722646 199.82803784 82.625 197.6875 C81 196 81 196 81 194 C80.34 194 79.68 194 79 194 C75 189.52941176 75 189.52941176 75 187 C74.34 187 73.68 187 73 187 C71.57047222 185.02823755 70.28046915 183.06611293 69 181 C68.54753906 180.30390625 68.09507812 179.6078125 67.62890625 178.890625 C64 173.25708215 64 173.25708215 64 171 C63.34 171 62.68 171 62 171 C61.32845067 169.71086513 60.66291141 168.41859796 60 167.125 C59.62875 166.40570312 59.2575 165.68640625 58.875 164.9453125 C58 163 58 163 58 161 C57.34 161 56.68 161 56 161 C55.16151196 159.54462432 54.32936066 158.08559627 53.5 156.625 C53.0359375 155.81289063 52.571875 155.00078125 52.09375 154.1640625 C51 152 51 152 51 150 C50.34 150 49.68 150 49 150 C47.67997444 147.44113496 46.36886218 144.87832932 45.0625 142.3125 C44.68931641 141.59126953 44.31613281 140.87003906 43.93164062 140.12695312 C42.06034761 136.43494258 40.51730444 133.16306904 40 129 C39.34 129 38.68 129 38 129 C37.76925781 128.39414062 37.53851562 127.78828125 37.30078125 127.1640625 C34.63168691 120.3067055 31.53194264 113.76206431 28.07836914 107.26660156 C25.33971754 101.9994048 23.30033138 96.6316827 21.4375 91 C21.13231445 90.08226807 20.82712891 89.16453613 20.51269531 88.21899414 C18.30429388 81.38162641 16.77871756 74.63882035 15.609375 67.55859375 C15.05318699 64.31059841 14.33790864 61.18490785 13.5 58 C12.36195435 53.64523348 11.50944467 49.31126828 10.75 44.875 C9.23642265 36.20898531 6.87624637 27.77911517 4.51269531 19.31201172 C2.73526049 12.91188358 1.18706471 6.53663541 0 0 Z " fill="#197B60" transform="translate(492,473)"/>
<path d="M0 0 C1.91486206 0.01305176 1.91486206 0.01305176 3.8684082 0.02636719 C21.20685489 0.29626071 35.20415035 4.089292 49.8125 13.5 C50.67359375 14.03753906 51.5346875 14.57507813 52.421875 15.12890625 C57.08973808 18.10003814 57.08973808 18.10003814 58.6875 19.375 C58.6875 20.035 58.6875 20.695 58.6875 21.375 C59.244375 21.41625 59.80125 21.4575 60.375 21.5 C63.981895 22.86477108 65.41788496 25.28580176 67.6875 28.375 C67.6875 29.035 67.6875 29.695 67.6875 30.375 C68.6775 30.705 69.6675 31.035 70.6875 31.375 C70.6875 32.035 70.6875 32.695 70.6875 33.375 C71.3475 33.375 72.0075 33.375 72.6875 33.375 C73.6775 35.85 73.6775 35.85 74.6875 38.375 C75.3475 38.375 76.0075 38.375 76.6875 38.375 C76.790625 39.014375 76.89375 39.65375 77 40.3125 C77.226875 40.993125 77.45375 41.67375 77.6875 42.375 C78.6775 42.705 79.6675 43.035 80.6875 43.375 C82.07421875 45.15234375 82.07421875 45.15234375 83.375 47.3125 C83.81199219 48.02277344 84.24898437 48.73304688 84.69921875 49.46484375 C85.6875 51.375 85.6875 51.375 85.6875 53.375 C86.3475 53.375 87.0075 53.375 87.6875 53.375 C88.0175 54.695 88.3475 56.015 88.6875 57.375 C89.3475 57.375 90.0075 57.375 90.6875 57.375 C91.6775 60.345 91.6775 60.345 92.6875 63.375 C93.3475 63.375 94.0075 63.375 94.6875 63.375 C95.3475 65.355 96.0075 67.335 96.6875 69.375 C97.3475 69.375 98.0075 69.375 98.6875 69.375 C99.0175 70.695 99.3475 72.015 99.6875 73.375 C100.3475 73.375 101.0075 73.375 101.6875 73.375 C101.99042969 73.931875 102.29335938 74.48875 102.60546875 75.0625 C104.72574768 78.92466962 106.87654033 82.70255017 109.3125 86.375 C111.92435225 90.46168364 113.36527848 94.73110004 114.6875 99.375 C115.3475 99.375 116.0075 99.375 116.6875 99.375 C120.88015475 108.12003432 124.80115405 116.90211375 128.328125 125.9375 C129.03185153 127.71703834 129.74440932 129.49569358 130.56054688 131.2265625 C132.74940351 135.89215261 132.74940351 135.89215261 132.375 138.8125 C132.0346875 139.5859375 132.0346875 139.5859375 131.6875 140.375 C130.5594806 138.14731922 129.43456639 135.91818065 128.3125 133.6875 C127.95816895 132.98359131 127.60383789 132.27968262 127.23876953 131.55444336 C125.14993439 127.3790308 123.11599754 123.18348901 121.140625 118.953125 C120.71185059 118.03748779 120.28307617 117.12185059 119.84130859 116.1784668 C119.00986655 114.39637443 118.18433514 112.61150833 117.36572266 110.82348633 C114.92492268 105.59973224 112.17181592 100.88710814 108.82861328 96.18530273 C107.6875 94.375 107.6875 94.375 107.6875 92.375 C107.0275 92.375 106.3675 92.375 105.6875 92.375 C104.2268715 89.72761084 103.6875 88.48051666 103.6875 85.375 C103.0275 85.375 102.3675 85.375 101.6875 85.375 C101.3575 84.055 101.0275 82.735 100.6875 81.375 C100.0275 81.375 99.3675 81.375 98.6875 81.375 C95.6875 75.625 95.6875 75.625 95.6875 73.375 C95.0275 73.375 94.3675 73.375 93.6875 73.375 C93.2853125 72.4778125 93.2853125 72.4778125 92.875 71.5625 C91.7981021 69.33172092 91.7981021 69.33172092 90.0625 67.75 C89.60875 67.29625 89.155 66.8425 88.6875 66.375 C88.6875 65.715 88.6875 65.055 88.6875 64.375 C88.0275 64.375 87.3675 64.375 86.6875 64.375 C86.254375 63.4159375 86.254375 63.4159375 85.8125 62.4375 C84.85926549 60.22293921 84.85926549 60.22293921 82.6875 59.375 C82.6875 58.715 82.6875 58.055 82.6875 57.375 C82.0275 57.375 81.3675 57.375 80.6875 57.375 C80.2853125 56.1684375 80.2853125 56.1684375 79.875 54.9375 C79.2871875 53.6690625 79.2871875 53.6690625 78.6875 52.375 C77.6975 52.045 76.7075 51.715 75.6875 51.375 C75.6875 50.715 75.6875 50.055 75.6875 49.375 C74.6975 49.045 73.7075 48.715 72.6875 48.375 C72.6875 47.715 72.6875 47.055 72.6875 46.375 C71.965625 46.106875 71.24375 45.83875 70.5 45.5625 C67.10627665 44.12959459 63.88801624 42.65927318 61.34375 39.9375 C59.33179292 38.03942728 57.29868196 37.01780706 54.8125 35.8125 C53.54792969 35.19181641 53.54792969 35.19181641 52.2578125 34.55859375 C49.76173661 33.40918495 47.24643627 32.3754242 44.6875 31.375 C43.71876953 30.97087891 43.71876953 30.97087891 42.73046875 30.55859375 C42.11816406 30.31238281 41.50585938 30.06617188 40.875 29.8125 C40.27042969 29.56371094 39.66585937 29.31492188 39.04296875 29.05859375 C32.40615766 27.13248771 25.47915953 27.19266515 18.625 27.1875 C17.76583984 27.17525391 16.90667969 27.16300781 16.02148438 27.15039062 C10.81295043 27.13845357 6.6364085 27.78160143 1.6875 29.375 C-1.75 29.5 -1.75 29.5 -4.3125 29.375 C-4.3125 30.035 -4.3125 30.695 -4.3125 31.375 C-5.74804025 31.88059908 -7.1860202 32.3792749 -8.625 32.875 C-9.42550781 33.1534375 -10.22601563 33.431875 -11.05078125 33.71875 C-13.3125 34.375 -13.3125 34.375 -16.3125 34.375 C-16.3125 35.035 -16.3125 35.695 -16.3125 36.375 C-19.2825 37.365 -22.2525 38.355 -25.3125 39.375 C-25.3125 40.035 -25.3125 40.695 -25.3125 41.375 C-26.9625 42.035 -28.6125 42.695 -30.3125 43.375 C-30.3125 44.035 -30.3125 44.695 -30.3125 45.375 C-31.97115977 46.7182808 -33.63943365 48.04970587 -35.3125 49.375 C-53.99377285 69.9755817 -57.99335831 92.35714557 -57.3125 119.375 C-58.74804025 119.88059908 -60.1860202 120.3792749 -61.625 120.875 C-62.42550781 121.1534375 -63.22601563 121.431875 -64.05078125 121.71875 C-66.3125 122.375 -66.3125 122.375 -69.3125 122.375 C-69.3125 123.035 -69.3125 123.695 -69.3125 124.375 C-75.0625 127.375 -75.0625 127.375 -77.3125 127.375 C-77.3125 128.035 -77.3125 128.695 -77.3125 129.375 C-78.7734375 130.6640625 -78.7734375 130.6640625 -80.6875 132 C-81.31398438 132.44601562 -81.94046875 132.89203125 -82.5859375 133.3515625 C-84.3125 134.375 -84.3125 134.375 -86.3125 134.375 C-86.3125 135.035 -86.3125 135.695 -86.3125 136.375 C-87.97465268 137.71395632 -89.64213607 139.04630142 -91.3125 140.375 C-101.48324157 152.06700633 -110.68549864 167.62159091 -111.3125 183.375 C-111.3640625 184.51324219 -111.415625 185.65148437 -111.46875 186.82421875 C-111.92530223 206.24671172 -108.02066164 224.44968061 -96.3125 240.375 C-95.46558594 241.20644531 -95.46558594 241.20644531 -94.6015625 242.0546875 C-93.3125 243.375 -93.3125 243.375 -93.3125 245.375 C-92.3225 245.705 -91.3325 246.035 -90.3125 246.375 C-90.3125 247.035 -90.3125 247.695 -90.3125 248.375 C-89.508125 248.643125 -88.70375 248.91125 -87.875 249.1875 C-87.029375 249.579375 -86.18375 249.97125 -85.3125 250.375 C-84.9825 251.365 -84.6525 252.355 -84.3125 253.375 C-82.66501126 254.08774335 -80.99364796 254.7457435 -79.3125 255.375 C-77.3801708 256.6006488 -75.46492544 257.85343067 -73.5625 259.125 C-39.23098106 280.73550885 8.6907794 276.66602112 47.6875 277.375 C44.38391422 279.57739052 42.93287792 279.72701543 39.05078125 280.0078125 C37.36130371 280.13385864 37.36130371 280.13385864 35.63769531 280.26245117 C34.43725586 280.34084229 33.23681641 280.4192334 32 280.5 C30.76991211 280.58419189 29.53982422 280.66838379 28.27246094 280.75512695 C19.38420243 281.33303941 10.59333153 281.65407675 1.6875 281.375 C0.85927734 281.35566406 0.03105469 281.33632813 -0.82226562 281.31640625 C-15.80567166 280.95121929 -30.48122066 279.48254211 -45.3125 277.375 C-46.40062988 277.22659668 -47.48875977 277.07819336 -48.60986328 276.92529297 C-59.66842806 275.41110296 -70.65963618 273.83519802 -81.4375 270.875 C-82.1289209 270.68566895 -82.8203418 270.49633789 -83.53271484 270.30126953 C-91.88577172 267.83768564 -99.25666755 263.38743014 -106.6875 258.9375 C-107.49316406 258.47279297 -108.29882812 258.00808594 -109.12890625 257.52929688 C-113.46871835 254.92322881 -115.83512345 253.42121989 -117.3125 248.375 C-118.3025 248.045 -119.2925 247.715 -120.3125 247.375 C-120.3125 246.715 -120.3125 246.055 -120.3125 245.375 C-120.9725 245.375 -121.6325 245.375 -122.3125 245.375 C-123.3025 242.9 -123.3025 242.9 -124.3125 240.375 C-124.9725 240.375 -125.6325 240.375 -126.3125 240.375 C-134.26317953 231.27052793 -140.08621212 218.97590747 -143.3125 207.375 C-143.68375 206.199375 -144.055 205.02375 -144.4375 203.8125 C-147.51546087 190.4483622 -146.16061284 177.60283883 -143.3125 164.375 C-143.17134766 163.68937988 -143.03019531 163.00375977 -142.88476562 162.29736328 C-139.60731277 147.25593088 -130.26843028 132.14836416 -119.3125 121.375 C-116.4375 119.9375 -116.4375 119.9375 -114.3125 119.375 C-114.3125 118.715 -114.3125 118.055 -114.3125 117.375 C-113.673125 117.271875 -113.03375 117.16875 -112.375 117.0625 C-111.694375 116.835625 -111.01375 116.60875 -110.3125 116.375 C-109.8175 114.89 -109.8175 114.89 -109.3125 113.375 C-107.25 112.6875 -107.25 112.6875 -105.3125 112.375 C-105.3125 111.715 -105.3125 111.055 -105.3125 110.375 C-104.45700562 110.11698608 -104.45700562 110.11698608 -103.58422852 109.85375977 C-97.2535017 107.77064641 -90.87643552 105.40228521 -86.3125 100.375 C-83.88788048 93.44825303 -85.00988715 85.72677324 -85.31494141 78.51464844 C-85.30570667 66.63878043 -80.22934782 54.45299546 -74.3125 44.375 C-73.65765625 43.23933594 -73.0028125 42.10367188 -72.328125 40.93359375 C-68.26858534 34.06418792 -64.62741265 28.03245632 -57.3125 24.375 C-56.8175 22.89 -56.8175 22.89 -56.3125 21.375 C-50.94107143 17.375 -50.94107143 17.375 -48.3125 17.375 C-48.3125 16.715 -48.3125 16.055 -48.3125 15.375 C-33.96685777 3.98722215 -18.08455013 -0.20489708 0 0 Z " fill="#03AC7F" transform="translate(325.3125,215.625)"/>
<path d="M0 0 C6.52754082 5.11546429 6.52754082 5.11546429 9 8 C9 8.66 9 9.32 9 10 C9.66 10 10.32 10 11 10 C11.99 12.475 11.99 12.475 13 15 C13.66 15 14.32 15 15 15 C16.53722845 17.09594606 17.93807988 19.17525062 19.3125 21.375 C19.71331787 22.00825195 20.11413574 22.64150391 20.52709961 23.29394531 C29 36.85743965 29 36.85743965 29 41 C29.59723877 40.97381592 30.19447754 40.94763184 30.80981445 40.9206543 C45.10133978 40.38091316 57.42895336 41.45994458 71 46 C71.91265625 46.27585937 72.8253125 46.55171875 73.765625 46.8359375 C83.44046213 50.15960604 94.85677435 56.6359905 102 64 C103.175625 64.86625 103.175625 64.86625 104.375 65.75 C107.52042921 68.44608218 109.92325417 71.41209019 112 75 C112 75.66 112 76.32 112 77 C112.66 77 113.32 77 114 77 C114.33 78.32 114.66 79.64 115 81 C115.66 81 116.32 81 117 81 C129.53959514 96.67449393 132.43005044 118.42874784 130.45068359 137.86157227 C130.0447494 141.25628172 129.54131433 144.62390802 129 148 C128.8659375 148.87140625 128.731875 149.7428125 128.59375 150.640625 C126.68840775 160.8268778 121.84365078 169.62144071 116.3125 178.25 C115.82467041 179.01376953 115.33684082 179.77753906 114.83422852 180.56445312 C114.36944092 181.27021484 113.90465332 181.97597656 113.42578125 182.703125 C113.00723877 183.33895508 112.58869629 183.97478516 112.1574707 184.62988281 C111.77550537 185.08202148 111.39354004 185.53416016 111 186 C110.34 186 109.68 186 109 186 C108.773125 186.556875 108.54625 187.11375 108.3125 187.6875 C106.62449964 190.66159588 104.53323483 192.72008865 102 195 C101.34 195 100.68 195 100 195 C99.67 195.99 99.34 196.98 99 198 C98.34 198 97.68 198 97 198 C97 198.66 97 199.32 97 200 C95.5390625 201.2890625 95.5390625 201.2890625 93.625 202.625 C92.99851562 203.07101562 92.37203125 203.51703125 91.7265625 203.9765625 C90 205 90 205 88 205 C88 205.66 88 206.32 88 207 C86.68 207.33 85.36 207.66 84 208 C84 208.66 84 209.32 84 210 C81.734375 211.62109375 81.734375 211.62109375 78.75 213.4375 C74.66004647 215.93749864 74.66004647 215.93749864 70.765625 218.72265625 C69 220 69 220 67 220 C67 220.66 67 221.32 67 222 C64.8828125 223.5078125 64.8828125 223.5078125 62.125 225.125 C61.22007812 225.66382813 60.31515625 226.20265625 59.3828125 226.7578125 C57 228 57 228 55 228 C55 228.66 55 229.32 55 230 C51.01759752 232.20750276 47.03399388 234.41281734 43.04931641 236.61621094 C41.69710517 237.36432494 40.34521013 238.11301079 38.99365234 238.86230469 C20.05531541 249.36027416 20.05531541 249.36027416 11.75 252.4375 C6.31827611 254.47755444 0.97834299 256.67423574 -4.34375 258.984375 C-6.8985986 259.96122888 -9.3071257 260.55118762 -12 261 C-12 260.34 -12 259.68 -12 259 C-11.23816406 258.68546875 -10.47632813 258.3709375 -9.69140625 258.046875 C-3.99736333 255.68679728 1.66487834 253.29081644 7.2578125 250.69921875 C9 250 9 250 11 250 C11 249.34 11 248.68 11 248 C12.0725 247.54625 13.145 247.0925 14.25 246.625 C16.30482173 245.75087221 18.27327148 244.85577339 20.25 243.8125 C22 243 22 243 25 243 C25 242.34 25 241.68 25 241 C26.78881736 239.99491199 28.58114696 238.99607264 30.375 238 C31.37273437 237.443125 32.37046875 236.88625 33.3984375 236.3125 C36 235 36 235 38 235 C38 234.34 38 233.68 38 233 C39.093125 232.566875 40.18625 232.13375 41.3125 231.6875 C44.18456329 230.46071049 45.83603888 229.25412617 48 227 C54.15942029 223 54.15942029 223 57 223 C57 222.34 57 221.68 57 221 C59.475 220.01 59.475 220.01 62 219 C62 218.34 62 217.68 62 217 C63.32 216.67 64.64 216.34 66 216 C66 215.34 66 214.68 66 214 C68.475 213.01 68.475 213.01 71 212 C71 211.34 71 210.68 71 210 C72.64453125 208.37890625 72.64453125 208.37890625 74.8125 206.5625 C77.82463265 204.02660668 77.82463265 204.02660668 80.63671875 201.27734375 C82 200 82 200 84 200 C84.268125 199.278125 84.53625 198.55625 84.8125 197.8125 C86.35923134 194.14918892 87.89140427 190.99773616 90.875 188.3125 C94.23777422 184.6530104 96.05199802 180.54339384 98 176 C98.47179687 174.92363281 98.94359375 173.84726562 99.4296875 172.73828125 C105.45795539 156.71398723 105.8181463 136.92263285 99.37890625 120.98046875 C98.92386719 119.99691406 98.46882812 119.01335937 98 118 C97.59652344 117.06800781 97.19304687 116.13601563 96.77734375 115.17578125 C96.10973184 113.65152037 95.42162659 112.13578639 94.69921875 110.63671875 C94 109 94 109 94 107 C93.34 107 92.68 107 92 107 C89 101.25 89 101.25 89 99 C88.34 99 87.68 99 87 99 C86.896875 98.360625 86.79375 97.72125 86.6875 97.0625 C86.3471875 96.0415625 86.3471875 96.0415625 86 95 C85.01 94.67 84.02 94.34 83 94 C83 93.34 83 92.68 83 92 C82.13181641 91.57654297 82.13181641 91.57654297 81.24609375 91.14453125 C76.59941897 88.7767474 72.23317431 86.29807822 68.625 82.5 C54.28304568 68.84099588 31.16915856 69.54327111 12.84155273 69.95239258 C12.23384033 69.96810303 11.62612793 69.98381348 11 70 C10.69582153 68.980271 10.69582153 68.980271 10.38549805 67.93994141 C10.11777588 67.04452637 9.85005371 66.14911133 9.57421875 65.2265625 C9.30955811 64.34049316 9.04489746 63.45442383 8.7722168 62.54150391 C7.90142654 59.67557706 6.96952186 56.83398697 6 54 C5.34 54 4.68 54 4 54 C3.34 52.02 2.68 50.04 2 48 C1.34 48 0.68 48 0 48 C-0.33 46.68 -0.66 45.36 -1 44 C-1.66 44 -2.32 44 -3 44 C-3.4021875 42.7934375 -3.4021875 42.7934375 -3.8125 41.5625 C-4.4003125 40.2940625 -4.4003125 40.2940625 -5 39 C-5.99 38.67 -6.98 38.34 -8 38 C-8 37.34 -8 36.68 -8 36 C-8.57621094 35.72542969 -9.15242187 35.45085937 -9.74609375 35.16796875 C-11.97642581 34.01221609 -13.98836691 32.72756276 -16.0625 31.3125 C-16.85269531 30.78527344 -17.64289063 30.25804687 -18.45703125 29.71484375 C-20.17407094 28.55696292 -21.8796709 27.38196111 -23.57421875 26.19140625 C-39.68342698 15.25595833 -60.40740718 13.36519336 -79.3125 16.8359375 C-88.43376805 18.87832418 -96.22579331 22.25793964 -104.1171875 27.23046875 C-107 29 -107 29 -109.8203125 30.05078125 C-110.53960937 30.36402344 -111.25890625 30.67726562 -112 31 C-112.33 31.99 -112.66 32.98 -113 34 C-113.66 34 -114.32 34 -115 34 C-115.33 34.99 -115.66 35.98 -116 37 C-116.66 37 -117.32 37 -118 37 C-118.2475 37.7425 -118.495 38.485 -118.75 39.25 C-120 42 -120 42 -121.796875 43.73828125 C-129.7997855 51.95403512 -134.25491884 63.07656824 -137 74 C-137.32226562 75.12277344 -137.64453125 76.24554688 -137.9765625 77.40234375 C-146.72655552 108.16090701 -146.46214143 141.23365712 -147 173 C-147.33 173 -147.66 173 -148 173 C-148.51293407 168.62641851 -149.00786994 164.25096728 -149.5 159.875 C-149.64308594 158.65683594 -149.78617187 157.43867188 -149.93359375 156.18359375 C-154.29289977 116.94983957 -151.48095183 62.08534146 -132 27 C-131.66274902 26.38592285 -131.32549805 25.7718457 -130.97802734 25.13916016 C-129.83776692 23.08133479 -128.67287444 21.03939205 -127.5 19 C-127.13237549 18.3402417 -126.76475098 17.6804834 -126.38598633 17.00073242 C-124.03391046 13.0071415 -122.3642749 11.4348301 -118 10 C-117.505 8.515 -117.505 8.515 -117 7 C-116.34 7 -115.68 7 -115 7 C-114.505 5.515 -114.505 5.515 -114 4 C-113.34 4 -112.68 4 -112 4 C-112 3.34 -112 2.68 -112 2 C-108.50344613 -0.6020866 -105.10839064 -2.54997977 -101 -4 C-101 -4.66 -101 -5.32 -101 -6 C-93.30776932 -9.83506329 -85.66101192 -13.32930523 -77.4375 -15.875 C-76.78394531 -16.07762451 -76.13039063 -16.28024902 -75.45703125 -16.48901367 C-49.13068877 -24.3334241 -21.66715882 -15.24955273 0 0 Z " fill="#02AC7F" transform="translate(616,178)"/>
<path d="M0 0 C0 0.66 0 1.32 0 2 C-1.56020867 2.65134925 -3.12328579 3.29582964 -4.6875 3.9375 C-5.55761719 4.29714844 -6.42773438 4.65679687 -7.32421875 5.02734375 C-9.88179265 5.9570312 -12.3221323 6.54162625 -15 7 C-15 7.66 -15 8.32 -15 9 C-17.64 9.66 -20.28 10.32 -23 11 C-23 11.66 -23 12.32 -23 13 C-25.31 13.66 -27.62 14.32 -30 15 C-30 13.68 -30 12.36 -30 11 C-26.83392468 9.72769002 -23.66703203 8.45742647 -20.5 7.1875 C-19.1696875 6.65286133 -19.1696875 6.65286133 -17.8125 6.10742188 C-2.57196101 0 -2.57196101 0 0 0 Z " fill="#13A17B" transform="translate(379,502)"/>
<path d="M0 0 C2 1 2 1 3 3 C0.4392555 3.98397585 -2.12341492 4.96229967 -4.6875 5.9375 C-5.7693457 6.35418945 -5.7693457 6.35418945 -6.87304688 6.77929688 C-10.56271893 8.17766574 -14.08108282 9.38936004 -18 10 C-18 9.34 -18 8.68 -18 8 C-17.20335937 7.67386719 -16.40671875 7.34773438 -15.5859375 7.01171875 C-8.87706928 4.29225606 -8.87706928 4.29225606 -2.375 1.125 C-1.199375 0.568125 -1.199375 0.568125 0 0 Z " fill="#1A9977" transform="translate(622,429)"/>
<path d="M0 0 C3.10832536 1.55416268 3.44625555 4.07753567 4.6875 7.25 C5.14511719 8.38953125 5.60273437 9.5290625 6.07421875 10.703125 C7.02934126 14.10448957 6.95703701 15.67343158 6 19 C5.9629721 20.6662553 5.95240038 22.33401319 6 24 C4.40875338 21.09728639 3.55385007 18.48002037 2.9296875 15.234375 C2.75566406 14.34492187 2.58164062 13.45546875 2.40234375 12.5390625 C2.14130859 11.15847656 2.14130859 11.15847656 1.875 9.75 C1.69324219 8.81414063 1.51148438 7.87828125 1.32421875 6.9140625 C0.87757696 4.61033115 0.4363672 2.3056957 0 0 Z " fill="#A35C6D" transform="translate(529,605)"/>
<path d="M0 0 C3 1 3 1 4.859375 4.45703125 C5.5009368 5.90387291 6.13069726 7.3559917 6.75 8.8125 C7.07871094 9.53759766 7.40742188 10.26269531 7.74609375 11.00976562 C8.05160156 11.71423828 8.35710937 12.41871094 8.671875 13.14453125 C8.9512793 13.78753174 9.23068359 14.43053223 9.51855469 15.09301758 C10.09803681 17.38831921 9.73623356 18.77865878 9 21 C7.67997444 18.44113496 6.36886218 15.87832932 5.0625 13.3125 C4.68931641 12.59126953 4.31613281 11.87003906 3.93164062 11.12695312 C2.06034761 7.43494258 0.51730444 4.16306904 0 0 Z " fill="#169E7A" transform="translate(448,335)"/>
<path d="M0 0 C0.66 0.33 1.32 0.66 2 1 C1.67 1.33 1.34 1.66 1 2 C1.66 2.66 2.32 3.32 3 4 C1.23358317 4.6987693 -0.53832664 5.38366583 -2.3125 6.0625 C-3.79169922 6.63677734 -3.79169922 6.63677734 -5.30078125 7.22265625 C-8 8 -8 8 -11 7 C-9.68 6.34 -8.36 5.68 -7 5 C-7 4.34 -7 3.68 -7 3 C-4.69631264 1.93347808 -2.35981813 0.93578995 0 0 Z " fill="#06A77C" transform="translate(634,423)"/>
<path d="M0 0 C0 0.66 0 1.32 0 2 C1.32 2.66 2.64 3.32 4 4 C-5.405 4.99 -5.405 4.99 -15 6 C-12.61874536 3.61874536 -10.66142433 2.99813759 -7.5 1.875 C-6.5203125 1.52179688 -5.540625 1.16859375 -4.53125 0.8046875 C-2 0 -2 0 0 0 Z " fill="#B15268" transform="translate(584,447)"/>
<path d="M0 0 C-2.45714547 0.83698386 -4.91558857 1.66972424 -7.375 2.5 C-8.42300781 2.85771484 -8.42300781 2.85771484 -9.4921875 3.22265625 C-14.7734375 5 -14.7734375 5 -17 5 C-16.67 4.01 -16.34 3.02 -16 2 C-13.41796875 1.015625 -13.41796875 1.015625 -10.1875 0.25 C-9.12917969 -0.01296875 -8.07085937 -0.2759375 -6.98046875 -0.546875 C-4.18266064 -0.97222984 -2.62468156 -0.94056385 0 0 Z " fill="#AE5368" transform="translate(412,490)"/>
<path d="M0 0 C0.33 0 0.66 0 1 0 C1.33868777 2.20751848 1.67071689 4.41605911 2 6.625 C2.185625 7.85476563 2.37125 9.08453125 2.5625 10.3515625 C2.95402516 13.6166027 3.08080924 16.71712451 3 20 C0.99006295 16.98509443 0.27376659 14.7850073 -0.625 11.3125 C-0.88539063 10.31863281 -1.14578125 9.32476562 -1.4140625 8.30078125 C-1.60742188 7.54152344 -1.80078125 6.78226562 -2 6 C-1.34 6 -0.68 6 0 6 C0 4.02 0 2.04 0 0 Z " fill="#A95568" transform="translate(470,374)"/>
<path d="M0 0 C0 0.66 0 1.32 0 2 C-1.58199631 2.64910154 -3.16565724 3.29414694 -4.75 3.9375 C-5.63171875 4.29714844 -6.5134375 4.65679687 -7.421875 5.02734375 C-11.88157895 6.70986842 -11.88157895 6.70986842 -14 7 C-14.66 6.34 -15.32 5.68 -16 5 C-13.70967689 4.16280617 -11.41789043 3.3301071 -9.125 2.5 C-8.47402344 2.26152344 -7.82304687 2.02304687 -7.15234375 1.77734375 C-2.2265625 0 -2.2265625 0 0 0 Z " fill="#269577" transform="translate(379,502)"/>
<path d="M0 0 C0.99 1.485 0.99 1.485 2 3 C2.66 2.67 3.32 2.34 4 2 C4.99 4.97 5.98 7.94 7 11 C6.01 11 5.02 11 4 11 C2.03810791 7.3321148 0.60698743 4.12751449 0 0 Z " fill="#0BA57C" transform="translate(528,600)"/>
<path d="M0 0 C0.66 0.33 1.32 0.66 2 1 C1.67 1.33 1.34 1.66 1 2 C1.66 2.66 2.32 3.32 3 4 C0.36 4.66 -2.28 5.32 -5 6 C-2.25 1.125 -2.25 1.125 0 0 Z " fill="#12A17B" transform="translate(634,423)"/>
</svg>
