<?xml version="1.0" encoding="UTF-8"?>
<svg version="1.1" xmlns="http://www.w3.org/2000/svg" width="1000" height="1000">
<path d="M0 0 C0.92028079 -0.00205263 1.84056158 -0.00410527 2.78872967 -0.0062201 C5.86532811 -0.01186408 8.94188143 -0.01043607 12.01848412 -0.00901413 C14.2496268 -0.01159928 16.48076902 -0.01461285 18.71191061 -0.01801753 C24.83822923 -0.02607356 30.96453612 -0.02787633 37.09085941 -0.028615 C43.02155539 -0.03027767 48.95224598 -0.03659755 54.88293866 -0.04269341 C70.76858606 -0.05873214 86.65423248 -0.06465481 102.53988653 -0.06944216 C110.06187832 -0.0717808 117.58386936 -0.07538381 125.10586056 -0.07913754 C150.87700998 -0.09197278 176.64815898 -0.1026907 202.41931152 -0.10614014 C204.03629222 -0.10636177 205.65327292 -0.10658355 207.27025362 -0.10680549 C208.89104988 -0.10702613 210.51184613 -0.10724661 212.13264239 -0.10746694 C215.38400817 -0.10790948 218.63537395 -0.1083566 221.88673973 -0.10880661 C222.69288588 -0.108916 223.49903203 -0.10902539 224.32960684 -0.1091381 C250.44518981 -0.11276546 276.56074496 -0.12867354 302.67631728 -0.15199697 C330.31544187 -0.17663571 357.95455058 -0.1903149 385.59368646 -0.19150805 C388.6324656 -0.19167949 391.67124474 -0.19189492 394.71002388 -0.19214249 C395.45820536 -0.19219826 396.20638684 -0.19225402 396.97724048 -0.19231148 C408.9791515 -0.19345858 420.98103382 -0.20445167 432.98293517 -0.21902954 C445.0659226 -0.23345115 457.14887353 -0.23659979 469.23186721 -0.22858956 C475.76831808 -0.2245468 482.30469229 -0.22554298 488.84113312 -0.23964691 C494.83987073 -0.25247148 500.83844132 -0.2511139 506.83717899 -0.2390562 C508.99275741 -0.23711389 511.14834801 -0.24010868 513.30390938 -0.24890056 C532.27175137 -0.32128723 550.99873695 1.37585264 569.47658348 5.81892776 C571.08557518 6.20020828 571.08557518 6.20020828 572.72707176 6.58919144 C618.98575729 17.95485318 666.71396508 43.8853318 697.59377098 80.88142776 C699.06500924 82.63958801 700.57929295 84.3617505 702.10939598 86.06892776 C738.35759974 126.70170266 762.72393857 183.94498013 762.60801125 238.76227474 C762.6110902 240.14189413 762.6110902 240.14189413 762.61423135 241.54938462 C762.61986648 244.61814315 762.61844843 247.68685629 762.61702538 250.75561905 C762.61961103 252.98349999 762.62262474 255.21138046 762.62602878 257.4392603 C762.63407878 263.55191801 762.63588724 269.66456395 762.63662624 275.77722633 C762.6382898 281.69613752 762.64461036 287.61504334 762.65070466 293.53395123 C762.66673704 309.38561576 762.67266519 325.2372793 762.6774534 341.08895048 C762.67979253 348.59523269 762.68339557 356.10151414 762.68714878 363.60779576 C762.69998303 389.32690819 762.71070138 415.0460202 762.71415138 440.76513577 C762.71437301 442.37857835 762.7145948 443.99202094 762.71481673 445.60546352 C762.71503737 447.22270114 762.71525785 448.83993877 762.71547818 450.45717639 C762.71592072 453.70137672 762.71636784 456.94557705 762.71681786 460.18977737 C762.71692725 460.99414579 762.71703664 461.79851421 762.71714934 462.62725743 C762.72077704 488.68765556 762.73668689 514.74802582 762.76000822 540.80841329 C762.784647 568.3916884 762.79832613 595.9749476 762.7995193 623.55823404 C762.79969074 626.59081893 762.79990616 629.62340381 762.80015373 632.65598869 C762.8002095 633.40264052 762.80026527 634.14929235 762.80032273 634.91856999 C762.80146977 646.89532058 762.81246229 658.87204241 762.82704079 670.84878332 C762.84146237 682.90588395 762.84461103 694.96294801 762.83660081 707.0200549 C762.83255814 713.54233591 762.83355381 720.06454011 762.84765816 726.58681107 C762.86048315 732.57255594 762.8591248 738.55813343 762.84706745 744.54387835 C762.84512521 746.69471628 762.84811954 748.84556643 762.85691181 750.99638727 C762.92941003 769.95088724 761.22899225 788.66674947 756.78908348 807.13142776 C756.53489647 808.2040889 756.28070946 809.27675003 756.01881981 810.38191605 C746.00506796 851.13827571 725.75985237 887.93939194 697.53127098 918.85408401 C695.7709255 920.80518937 694.08474025 922.7915632 692.41408348 924.81892776 C689.763201 927.93335254 686.83595646 930.55704858 683.71877098 933.19783401 C681.21497107 935.35703429 678.82403243 937.61807809 676.41408348 939.88142776 C631.69633281 980.48931657 570.81771685 1000.49437509 511.12654686 1000.3988533 C508.89292522 1000.40259601 506.65930489 1000.40719999 504.4256866 1000.41258395 C498.32482363 1000.42475306 492.22401575 1000.42456068 486.12314343 1000.4221952 C480.2069607 1000.42182763 474.2907938 1000.43082781 468.37461891 1000.43942097 C454.78817099 1000.45870525 441.20173822 1000.46438716 427.61527821 1000.46553509 C417.11484838 1000.46645645 406.61442443 1000.47058493 396.11399651 1000.47693634 C393.08434511 1000.47873162 390.0546937 1000.48051125 387.0250423 1000.4822861 C385.89504645 1000.48294924 385.89504645 1000.48294924 384.74222241 1000.48362578 C363.56748103 1000.495925 342.3927417 1000.50382787 321.2179966 1000.50293922 C320.42056585 1000.50290807 319.6231351 1000.50287691 318.80153978 1000.50284481 C314.7604497 1000.50267861 310.71935962 1000.50248053 306.67826954 1000.50227539 C305.47455662 1000.50221556 305.47455662 1000.50221556 304.24652627 1000.50215451 C302.6237255 1000.50207364 301.00092473 1000.50199004 299.37812397 1000.50190373 C274.1535965 1000.50067937 248.92912289 1000.51567406 223.70461082 1000.54304886 C195.31814488 1000.57384297 166.93171431 1000.59097687 138.54523063 1000.58912241 C135.51180697 1000.58897317 132.47838331 1000.58887575 129.44495964 1000.58881378 C128.69814078 1000.58879047 127.95132192 1000.58876716 127.18187218 1000.58874315 C115.21944892 1000.58868188 103.25707281 1000.60139507 91.29466352 1000.61867831 C79.24715953 1000.63572303 67.1997237 1000.63754014 55.15221426 1000.62445967 C48.63937809 1000.6177677 42.12667663 1000.61768705 35.61385345 1000.63516617 C-15.13170596 1000.76294466 -15.13170596 1000.76294466 -37.52341652 996.13142776 C-38.29188329 995.97714113 -39.06035007 995.8228545 -39.85210371 995.66389251 C-43.76526767 994.86841355 -47.61337513 993.94969307 -51.46091652 992.88142776 C-52.56677101 992.58260696 -53.6726255 992.28378616 -54.81199074 991.97591019 C-80.10102271 984.94186273 -104.83527718 973.97036671 -126.52341652 959.13142776 C-127.42060402 958.52500443 -127.42060402 958.52500443 -128.33591652 957.90633011 C-141.71791954 948.81074993 -153.74749737 938.19418194 -165.52341652 927.13142776 C-166.17954933 926.51783401 -166.83568214 925.90424026 -167.51169777 925.27205276 C-172.6641471 920.2972741 -177.0657616 914.72479095 -181.52341652 909.13142776 C-182.42410646 908.02176718 -183.32515896 906.9124008 -184.22654152 905.80330276 C-205.88288282 878.95506063 -221.2262621 847.42311814 -230.21091652 814.19392776 C-230.4843589 813.2148848 -230.75780128 812.23584183 -231.0395298 811.22713089 C-231.99070553 807.55116717 -232.7699533 803.85165041 -233.52341652 800.13142776 C-233.68900661 799.33168502 -233.85459669 798.53194227 -234.02520466 797.7079649 C-238.86239017 773.16515035 -238.09753688 748.28506256 -238.04631519 723.38520026 C-238.03811768 717.4782816 -238.04890213 711.57140295 -238.05890466 705.66449364 C-238.07982556 692.85962163 -238.07819928 680.05483009 -238.06658901 667.24995066 C-238.05647931 656.04339651 -238.05392193 644.83687166 -238.05867958 633.63031387 C-238.05898512 632.88351577 -238.05929066 632.13671768 -238.05960546 631.36728933 C-238.06085106 628.33488847 -238.06212468 625.30248763 -238.06344452 622.27008681 C-238.07564791 593.89269882 -238.06463862 565.51536171 -238.04305693 537.13798159 C-238.02407814 511.99205227 -238.0257768 486.84620403 -238.04490089 461.70027542 C-238.06637472 433.37084796 -238.07478204 405.04146536 -238.06245184 376.71203089 C-238.0611692 373.68553449 -238.05991782 370.65903808 -238.05867958 367.63254166 C-238.05836327 366.8874808 -238.05804696 366.14241994 -238.05772107 365.37478149 C-238.05319393 354.18231795 -238.05844951 342.98988712 -238.06859779 331.79742813 C-238.08009388 319.05588431 -238.07705083 306.31443268 -238.05547482 293.57290018 C-238.04484616 287.08429051 -238.04072366 280.59581035 -238.05407143 274.10719872 C-238.18989012 201.99182863 -222.94460013 137.06528324 -173.52341652 82.13142776 C-173.00859718 81.55489456 -172.49377785 80.97836136 -171.96335793 80.38435745 C-166.14548929 73.88722698 -160.24652004 67.70549178 -153.52341652 62.13142776 C-152.62880714 61.33736526 -151.73419777 60.54330276 -150.81247902 59.72517776 C-126.41215796 38.19083844 -97.24983031 22.50159242 -66.52341652 12.13142776 C-65.37099464 11.73528275 -65.37099464 11.73528275 -64.19529152 11.3311348 C-43.7891648 4.41068452 -21.60008652 -0.0454499 0 0 Z " fill="#EF8C3D" transform="translate(237.52341651916504,-0.13142776489257813)"/>
<path d="M0 0 C6.95641257 0.18007063 12.17099801 3.46292636 18.125 6.8125 C19.71453491 7.69047241 19.71453491 7.69047241 21.33618164 8.58618164 C29.80722103 13.28191201 38.21803732 18.08443903 46.61328125 22.9140625 C62.488586 32.03335765 78.53353092 40.85860559 94.54101562 49.74316406 C101.02040369 53.34052333 107.49232107 56.95018038 113.94775391 60.59033203 C119.93768405 63.96794812 125.9371946 67.32835467 131.9375 70.6875 C133.00226563 71.28369141 134.06703125 71.87988281 135.1640625 72.49414062 C140.56053082 75.5155166 145.9576262 78.53576737 151.35546875 81.5546875 C161.37482177 87.15985459 171.38607536 92.77826349 181.375 98.4375 C189.68607701 103.14462053 198.02269385 107.80394739 206.375 112.4375 C222.71310315 121.50127941 239.04985312 130.56625418 255.25 139.875 C264.94261346 145.4434996 274.72507469 150.84417521 284.52636719 156.21826172 C288.02195843 158.13766796 291.5133958 160.0643323 295 162 C295.63560852 162.35231689 296.27121704 162.70463379 296.92608643 163.06762695 C298.85120801 164.13818413 300.77186454 165.21635059 302.69140625 166.296875 C303.82908447 166.93463867 304.9667627 167.57240234 306.13891602 168.22949219 C310.60756843 170.99480214 310.60756843 170.99480214 312 173 C312.37231445 175.56738281 312.37231445 175.56738281 312.36328125 178.703125 C312.3646106 180.48505249 312.3646106 180.48505249 312.3659668 182.30297852 C312.33950073 184.25675415 312.33950073 184.25675415 312.3125 186.25 C312.30172894 187.62752193 312.29107077 189.00504474 312.28051758 190.38256836 C311.91827027 224.29860478 309.99662858 258.58558783 304 292 C303.78730469 293.22847656 303.57460938 294.45695312 303.35546875 295.72265625 C300.92884614 309.21808372 297.94373126 322.60996208 295 336 C294.74283203 337.17143555 294.48566406 338.34287109 294.22070312 339.54980469 C291.6468643 351.19757149 289.00035078 362.72441012 285.265625 374.05859375 C284.05000019 377.76132633 283.00813659 381.50215123 281.97314453 385.25878906 C276.56909371 404.80970352 269.74897989 423.9060349 261.97509766 442.63525391 C260.98986003 445.02459083 260.03047269 447.42315292 259.07421875 449.82421875 C255.55267234 458.55981714 251.60865327 466.79697001 246.91577148 474.96289062 C243.53781675 480.88693001 240.57582724 486.94929002 237.6875 493.125 C233.76079778 501.47760328 229.62667873 509.68609782 225.25 517.8125 C224.73139404 518.78396973 224.21278809 519.75543945 223.6784668 520.75634766 C220.64933586 526.32217739 217.34102127 531.5198292 213.64697266 536.66674805 C211.28501834 540.01290835 209.1810161 543.49702856 207.0625 547 C203.76298014 552.36677895 200.28651621 557.30042437 196.2421875 562.140625 C193.22986561 565.9821226 190.53821475 570.01469111 187.8125 574.0625 C176.31338669 591.06780691 163.86179918 607.43737589 149.19458008 621.83984375 C145.97353256 625.00371912 142.95692193 628.25262077 140.02734375 631.68359375 C129.25953372 643.98669847 118.09985511 656.17510867 105 666 C102.74190015 667.76057659 100.49690781 669.53767535 98.25 671.3125 C95.8351117 673.21060479 93.41786727 675.10569193 91 677 C90.20335937 677.62479248 90.20335937 677.62479248 89.390625 678.26220703 C85.62117098 681.2118524 81.82053603 684.11712761 78 687 C77.05858154 687.71446289 77.05858154 687.71446289 76.09814453 688.44335938 C21.0342517 730 21.0342517 730 5 730 C5 730.66 5 731.32 5 732 C-10.27554531 728.79456719 -25.7023699 717.76162859 -38.75537109 709.42822266 C-41.17706423 707.88733677 -43.61259976 706.37011772 -46.05078125 704.85546875 C-47.74253376 703.80003399 -49.43394835 702.74405735 -51.125 701.6875 C-51.89497314 701.20796875 -52.66494629 700.7284375 -53.45825195 700.234375 C-57.82928643 697.47904431 -62.00454018 694.56663716 -66.11083984 691.4309082 C-68.39157059 689.70341235 -70.72624626 688.06429277 -73.07104492 686.42553711 C-79.34751276 682.03100568 -85.28846826 677.40148448 -91.12890625 672.4375 C-93.92822804 670.06093293 -96.76865004 667.74501414 -99.625 665.4375 C-111.19989383 655.96562694 -122.24436383 645.71996999 -131.9609375 634.328125 C-134.90494443 630.96676842 -137.95221664 627.70468872 -141 624.4375 C-141.58185059 623.81190186 -142.16370117 623.18630371 -142.76318359 622.54174805 C-145.69618187 619.40384394 -148.6663366 616.31900652 -151.71875 613.296875 C-155.87887044 609.15933873 -159.44089832 604.65649136 -163 600 C-163.55816406 599.26990723 -164.11632812 598.53981445 -164.69140625 597.78759766 C-171.44659795 588.92228997 -178.11844895 580.059125 -184.1875 570.70703125 C-186.14761022 567.77953905 -188.23818281 564.98836281 -190.375 562.1875 C-195.57713281 555.3350354 -200.30508076 548.20427262 -205 541 C-205.6290625 540.0409375 -206.258125 539.081875 -206.90625 538.09375 C-214.71333662 526.0282525 -221.45956857 513.40561217 -228 500.625 C-228.70678324 499.24934472 -229.41373462 497.8737758 -230.12084961 496.49829102 C-234.24931656 488.4590409 -238.35891505 480.41048388 -242.35546875 472.3046875 C-243.43734263 470.13066066 -244.54359342 467.96856633 -245.67578125 465.8203125 C-251.70146767 454.26761715 -256.30682279 442.14010468 -261 430 C-261.33032227 429.15244141 -261.66064453 428.30488281 -262.00097656 427.43164062 C-269.69417806 407.60210522 -275.52844362 387.11131254 -281.25048828 366.64160156 C-281.79918278 364.70776623 -282.36207006 362.77794249 -282.93310547 360.85058594 C-285.56754644 351.8861158 -287.67494789 342.88037643 -289.625 333.75 C-289.92667939 332.35668331 -290.22876167 330.96345379 -290.53125 329.5703125 C-291.92351831 323.1387983 -293.28023907 316.70155435 -294.55273438 310.24511719 C-295.00659692 307.96688576 -295.48306642 305.69435479 -295.96484375 303.421875 C-300.28298607 282.84670208 -302.58535883 262.13535384 -304.1875 241.1875 C-304.27305145 240.07600586 -304.35860291 238.96451172 -304.44674683 237.81933594 C-305.6364106 222.05055853 -306.43660764 206.31398937 -306.5625 190.5 C-306.57703217 189.6266098 -306.59156433 188.7532196 -306.60653687 187.85336304 C-306.64156076 185.41177614 -306.64169997 182.97299769 -306.62890625 180.53125 C-306.64852921 179.46466911 -306.64852921 179.46466911 -306.66854858 178.37654114 C-306.60179679 174.83981127 -306.29619462 173.30664002 -303.80541992 170.72802734 C-301.05482099 169.03376756 -298.31767086 167.37307448 -295.484375 165.8203125 C-293.8744165 164.93267212 -293.8744165 164.93267212 -292.23193359 164.02709961 C-291.08289551 163.39940674 -289.93385742 162.77171387 -288.75 162.125 C-287.53826638 161.45832288 -286.32684545 160.79107716 -285.11572266 160.12329102 C-283.24971125 159.0944883 -281.38352555 158.06601852 -279.51638794 157.03926086 C-273.45142322 153.7037724 -267.41117045 150.32479348 -261.375 146.9375 C-259.30991265 145.77991792 -257.24480847 144.62236586 -255.1796875 143.46484375 C-254.16100586 142.89362793 -253.14232422 142.32241211 -252.09277344 141.73388672 C-246.89629255 138.8206086 -241.69805304 135.91047173 -236.5 133 C-234.41665834 131.8333482 -232.33332501 130.66668154 -230.25 129.5 C-217.75 122.5 -217.75 122.5 -214.62451172 120.74975586 C-212.54277268 119.58396248 -210.46106691 118.41810968 -208.37939453 117.25219727 C-203.14694077 114.3216794 -197.91389914 111.39222084 -192.6796875 108.46484375 C-182.64855394 102.85327585 -172.62553954 97.22843231 -162.625 91.5625 C-153.12877712 86.18317001 -143.59293401 80.87735184 -134.04736328 75.58618164 C-126.8457207 71.5908061 -119.66411315 67.56224848 -112.5 63.5 C-103.09434555 58.16761529 -93.65118943 52.90513854 -84.19628906 47.66064453 C-67.66027865 38.48681507 -51.16530971 29.24072437 -34.71142578 19.92041016 C-29.49578439 16.96810907 -24.2723499 14.03027959 -19.0390625 11.109375 C-18.17042572 10.62428467 -18.17042572 10.62428467 -17.28424072 10.12939453 C-14.45958272 8.55217735 -11.63390077 6.97684593 -8.80664062 5.40429688 C-7.80052734 4.84291016 -6.79441406 4.28152344 -5.7578125 3.703125 C-4.8620752 3.20458008 -3.96633789 2.70603516 -3.04345703 2.19238281 C-1.07524549 1.16003349 -1.07524549 1.16003349 0 0 Z " fill="#617E8B" transform="translate(497,149)"/>
<path d="M0 0 C4.00446613 1.2375382 7.53416247 2.6960487 11.17578125 4.765625 C12.15530762 5.31855225 13.13483398 5.87147949 14.14404297 6.44116211 C15.7124292 7.33653687 15.7124292 7.33653687 17.3125 8.25 C19.57154718 9.52746295 21.83066366 10.80480336 24.08984375 12.08203125 C25.25251579 12.74156812 26.41511352 13.40123597 27.57763672 14.06103516 C32.83300041 17.03849973 38.10375234 19.98827669 43.375 22.9375 C44.39811279 23.51072998 45.42122559 24.08395996 46.4753418 24.67456055 C54.18114965 28.98998102 61.90148964 33.27886317 69.625 37.5625 C78.92134761 42.71962697 88.19274572 47.91829909 97.44238281 53.15869141 C107.55546339 58.88687178 117.69882477 64.56060391 127.84277344 70.23388672 C134.10328908 73.73594132 140.36148612 77.24213753 146.62011719 80.74755859 C151.85275048 83.67812785 157.08594222 86.60769044 162.3203125 89.53515625 C167.518055 92.44247027 172.71385771 95.35322267 177.90820312 98.26660156 C179.98969566 99.43357859 182.07173775 100.59957589 184.15429688 101.76464844 C187.22963127 103.48580358 190.30256623 105.21117345 193.375 106.9375 C194.28330566 107.44482666 195.19161133 107.95215332 196.12744141 108.47485352 C200.72086984 111.06146486 205.20865994 113.74771474 209.63671875 116.609375 C214.1139896 119.4891499 218.64306611 122.00757472 223.4375 124.3125 C224.4574707 124.81233398 224.4574707 124.81233398 225.49804688 125.32226562 C227.32982869 126.21935525 229.16476227 127.11000177 231 128 C231.68964844 128.47695313 232.37929688 128.95390625 233.08984375 129.4453125 C235.20485415 130.28417176 235.20485415 130.28417176 237.8828125 128.69140625 C238.95273437 127.98886719 240.02265625 127.28632813 241.125 126.5625 C241.70628662 126.18706055 242.28757324 125.81162109 242.88647461 125.42480469 C246.17307401 123.2841043 249.37703279 121.03831245 252.5625 118.75 C258.22028242 114.70872685 264.20517772 111.23973295 270.18164062 107.69775391 C275.89609509 104.2985656 281.50579566 100.77570245 287.0625 97.125 C301.99909975 87.33363342 301.99909975 87.33363342 309 85 C309.5849705 124.35051546 307.96190214 164.20689075 301 203 C300.78730469 204.22847656 300.57460938 205.45695313 300.35546875 206.72265625 C297.92884614 220.21808372 294.94373126 233.60996208 292 247 C291.74283203 248.17143555 291.48566406 249.34287109 291.22070312 250.54980469 C288.6468643 262.19757149 286.00035078 273.72441012 282.265625 285.05859375 C281.05000019 288.76132633 280.00813659 292.50215123 278.97314453 296.25878906 C273.56909371 315.80970352 266.74897989 334.9060349 258.97509766 353.63525391 C257.98986003 356.02459083 257.03047269 358.42315292 256.07421875 360.82421875 C252.55267234 369.55981714 248.60865327 377.79697001 243.91577148 385.96289062 C240.53781675 391.88693001 237.57582724 397.94929002 234.6875 404.125 C230.76079778 412.47760328 226.62667873 420.68609782 222.25 428.8125 C221.73139404 429.78396973 221.21278809 430.75543945 220.6784668 431.75634766 C217.64933586 437.32217739 214.34102127 442.5198292 210.64697266 447.66674805 C208.28501834 451.01290835 206.1810161 454.49702856 204.0625 458 C200.76298014 463.36677895 197.28651621 468.30042437 193.2421875 473.140625 C190.22986561 476.9821226 187.53821475 481.01469111 184.8125 485.0625 C173.31338669 502.06780691 160.86179918 518.43737589 146.19458008 532.83984375 C142.97353256 536.00371912 139.95692193 539.25262077 137.02734375 542.68359375 C126.25953372 554.98669847 115.09985511 567.17510867 102 577 C99.74190015 578.76057659 97.49690781 580.53767535 95.25 582.3125 C92.8351117 584.21060479 90.41786727 586.10569193 88 588 C87.20335937 588.62479248 87.20335937 588.62479248 86.390625 589.26220703 C82.62117098 592.2118524 78.82053603 595.11712761 75 598 C74.05858154 598.71446289 74.05858154 598.71446289 73.09814453 599.44335938 C18.0342517 641 18.0342517 641 2 641 C2 641.66 2 642.32 2 643 C1.01 643 0.02 643 -1 643 C-0.97477768 641.79667526 -0.94955536 640.59335052 -0.92356873 639.3535614 C-0.69641173 627.98147903 -0.55974837 616.61137718 -0.51034451 605.23709393 C-0.48207292 599.38963488 -0.42258831 593.54605505 -0.2902832 587.69995117 C-0.16361923 582.05128463 -0.12089277 576.40749353 -0.13490486 570.75748634 C-0.12576166 568.60873031 -0.08700189 566.45987877 -0.01739311 564.31223106 C0.68302371 553.02064768 0.68302371 553.02064768 -3.6400032 543.05115128 C-7.64622207 539.62626382 -12.07550011 537.26822281 -16.83595085 535.06032181 C-20.22738539 533.39861648 -23.25322957 531.30831611 -26.375 529.1875 C-27.05143555 528.73842285 -27.72787109 528.2893457 -28.42480469 527.82666016 C-40.45772528 519.66586241 -52.13179096 511.02968631 -63.109375 501.4921875 C-65.77418199 499.19469174 -68.49413717 496.99903788 -71.25 494.8125 C-84.42804221 484.0884334 -97.15096362 471.97685669 -108.203125 459.07421875 C-110.1746243 456.79842282 -112.21134395 454.59077333 -114.25 452.375 C-119.83311892 446.17048842 -124.94766125 439.63638427 -130 433 C-130.54849609 432.28134766 -131.09699219 431.56269531 -131.66210938 430.82226562 C-144.15635651 414.37503635 -155.07896958 397.23517397 -164.88134766 379.06103516 C-165.90781423 377.16984553 -166.95508026 375.29241289 -168.01171875 373.41796875 C-203.57505072 309.14427953 -220.49083091 229.61312516 -220.0625 156.5625 C-220.05746574 155.04101713 -220.0529063 153.51953261 -220.04882812 151.99804688 C-220.03799622 148.33199603 -220.02084235 144.66600926 -220 141 C-219.34 140.67 -218.68 140.34 -218 140 C-216.55675142 145.92900498 -215.59386074 151.73546925 -215.04296875 157.80859375 C-209.33433665 215.7548747 -196.64125345 271.61652447 -173 325 C-172.65114746 325.79696289 -172.30229492 326.59392578 -171.94287109 327.41503906 C-155.57611132 364.59938724 -131.70266287 398.92579259 -104.15234375 428.6640625 C-102.25942567 430.71844546 -100.43510729 432.81051542 -98.625 434.9375 C-91.97960349 442.57263642 -84.67759295 449.75291788 -76.96875 456.30859375 C-74.72218493 458.23867842 -72.55416096 460.24418139 -70.375 462.25 C-64.1736911 467.83684994 -57.61777366 472.92184355 -51 478 C-50.38914551 478.47308594 -49.77829102 478.94617188 -49.14892578 479.43359375 C-38.58240655 487.60555204 -27.60967358 495.08126663 -16.43408203 502.39355469 C-14.79599637 503.47465837 -13.16682476 504.56937786 -11.54638672 505.67675781 C-10.76666504 506.20881836 -9.98694336 506.74087891 -9.18359375 507.2890625 C-8.15383423 507.9998999 -8.15383423 507.9998999 -7.10327148 508.72509766 C-4.61306522 510.3130023 -4.61306522 510.3130023 0 512 C0 358.88 0 205.76 0 48 C6.42459062 49.92737719 12.34799848 51.82593309 18.42578125 54.484375 C19.19885117 54.81667618 19.97192108 55.14897736 20.76841736 55.49134827 C22.42446757 56.20337662 24.07956317 56.91762876 25.73376465 57.63394165 C30.18277814 59.5594431 34.63983325 61.46609319 39.09765625 63.37109375 C40.00780487 63.76016403 40.91795349 64.14923431 41.85568237 64.5500946 C50.94014224 68.42158192 60.08735366 72.13077158 69.25 75.8125 C81.0770336 80.56943187 92.83385324 85.44701535 104.53369141 90.51074219 C113.68954167 94.46437471 122.89747345 98.28022221 132.125 102.0625 C143.52403917 106.73515819 154.89407333 111.46604449 166.23242188 116.28466797 C174.79507928 119.92201234 183.38646674 123.48500662 192 127 C185.02815393 122.59024577 177.98744698 118.39504612 170.75 114.4375 C162.29924761 109.80442005 154.05079851 104.86527793 145.80371094 99.88061523 C138.25423742 95.32738878 130.64871186 90.88422786 123 86.5 C114.44218693 81.59255713 105.94517207 76.59884652 97.5 71.5 C87.9092479 65.71064031 78.24258899 60.06804695 68.52832031 54.48876953 C58.87659932 48.9421542 49.2889904 43.29199814 39.71630859 37.61035156 C35.94733242 35.37593067 32.17367349 33.14951066 28.39794922 30.92651367 C26.52949926 29.82175684 24.66511468 28.71009091 22.80517578 27.59106445 C18.69422586 25.12427015 14.60497774 22.75902779 10.28515625 20.67578125 C6.40068284 18.74191625 3.14383618 17.03377799 0 14 C-1.21687544 9.10116239 -0.9463925 4.92825132 0 0 Z " fill="#445C66" transform="translate(500,238)"/>
<path d="M0 0 C0.66 0 1.32 0 2 0 C2.31605649 11.38659702 2.58861354 22.7733247 2.8056488 34.16226482 C2.90779606 39.45068459 3.0249134 44.73788809 3.17626953 50.02514648 C3.32178601 55.12766644 3.42794276 60.22962753 3.50683594 65.33359718 C3.54385177 67.28075745 3.59505262 69.22770131 3.66064453 71.17410851 C3.75013564 73.90160506 3.78913511 76.62551845 3.81640625 79.35424805 C3.87357567 80.56158096 3.87357567 80.56158096 3.93190002 81.79330444 C3.92385634 84.12037626 3.83185569 85.82327641 3 88 C0.57415249 90.21436635 -2.04919526 91.59664387 -5 93 C-5.91563721 93.53286621 -6.83127441 94.06573242 -7.7746582 94.61474609 C-8.60827881 95.07961426 -9.44189941 95.54448242 -10.30078125 96.0234375 C-11.26387207 96.56170166 -12.22696289 97.09996582 -13.21923828 97.65454102 C-14.24001465 98.22229248 -15.26079102 98.79004395 -16.3125 99.375 C-17.39772949 99.98077881 -18.48295898 100.58655762 -19.60107422 101.21069336 C-28.74076003 106.30915947 -37.8940851 111.38311227 -47.0456543 116.46020508 C-55.20112936 120.98906782 -63.32997908 125.56314873 -71.44677734 130.16088867 C-87.12802742 139.04169336 -102.86576804 147.82096334 -118.625 156.5625 C-127.9213171 161.71968261 -137.19274518 166.91829879 -146.44238281 172.15869141 C-156.55546339 177.88687178 -166.69882477 183.56060391 -176.84277344 189.23388672 C-182.06293711 192.15398137 -187.28138716 195.077135 -192.5 198 C-194.55077291 199.1484524 -196.60155419 200.29688984 -198.65234375 201.4453125 C-199.67956543 202.02055664 -200.70678711 202.59580078 -201.76513672 203.18847656 C-215.88256836 211.09423828 -215.88256836 211.09423828 -230 219 C-231.26747049 263.1469722 -224.58271445 306.22994508 -214.37547302 349.08390808 C-213.44864522 353.00154133 -212.59252314 356.92184401 -211.83203125 360.875 C-208.64500099 377.15547629 -202.57881146 392.37276903 -196.61328125 407.7980957 C-195.26643753 411.28806446 -193.96170111 414.79220605 -192.66670227 418.30168152 C-189.99909239 425.51586581 -187.10409641 432.57970634 -183.875 439.5625 C-183.45863281 440.48095703 -183.04226563 441.39941406 -182.61328125 442.34570312 C-180.59745725 446.74702417 -178.48958442 451.00428315 -176.03222656 455.17358398 C-174.31888922 458.20515367 -172.82654587 461.34403473 -171.29736328 464.47143555 C-162.23612414 482.98597104 -151.87396727 500.16310025 -140 517 C-139.08949353 518.30574545 -138.17931714 519.61172114 -137.26953125 520.91796875 C-132.15764661 528.21313542 -126.72159764 535.17066854 -121 542 C-119.58088621 543.7271589 -118.16426957 545.45637222 -116.75 547.1875 C-116.00363281 548.09371094 -115.25726563 548.99992188 -114.48828125 549.93359375 C-112.66598282 552.17928334 -110.87705844 554.43776426 -109.10546875 556.72265625 C-101.21620205 566.80572312 -92.5371865 575.47786367 -83 584 C-81.69869141 585.18722656 -81.69869141 585.18722656 -80.37109375 586.3984375 C-74.75741645 591.47986991 -68.90761297 596.26592636 -63 601 C-62.12859375 601.71285156 -61.2571875 602.42570313 -60.359375 603.16015625 C-42.87969041 617.08181761 -23.43853517 629.35235828 -4.19140625 640.640625 C-3.46824219 641.08921875 -2.74507813 641.5378125 -2 642 C-0.95625214 642.52978203 -0.95625214 642.52978203 0.10858154 643.07026672 C2.53905356 645.54997327 2.47213388 647.44984336 2.49768066 650.83093262 C2.48329956 651.6243103 2.46891846 652.41768799 2.45410156 653.23510742 C2.45468567 654.07435257 2.45526978 654.91359772 2.45587158 655.77827454 C2.4530831 658.55442558 2.42195563 661.32950512 2.390625 664.10546875 C2.38316531 666.02931634 2.3774711 667.95317152 2.37347412 669.87702942 C2.35819635 674.94234165 2.31889603 680.00719559 2.2746582 685.07232666 C2.23375173 690.240212 2.21547299 695.40817133 2.1953125 700.57617188 C2.15240389 710.71764935 2.0841266 720.85878658 2 731 C-1.0570091 729.55893057 -4.11294621 728.11560165 -7.16870117 726.671875 C-8.03049736 726.26565918 -8.89229355 725.85944336 -9.78020477 725.44091797 C-15.38671769 722.79034341 -20.91959015 720.06645086 -26.3125 717 C-27.04484863 716.58830566 -27.77719727 716.17661133 -28.53173828 715.75244141 C-35.53572993 711.77300454 -42.29445477 707.45959153 -49 703 C-50.57394531 701.96359375 -50.57394531 701.96359375 -52.1796875 700.90625 C-67.78425268 690.58261909 -82.64169311 679.48306359 -97.07324219 667.5859375 C-98.83758169 666.13368846 -100.60957243 664.69135022 -102.3828125 663.25 C-113.07187925 654.47602384 -123.12870211 644.7853975 -132.06640625 634.22265625 C-134.9666515 630.88883899 -137.98566594 627.66806867 -141 624.4375 C-141.58209229 623.81166016 -142.16418457 623.18582031 -142.76391602 622.54101562 C-145.69663594 619.40332286 -148.66658185 616.31876371 -151.71875 613.296875 C-155.87887044 609.15933873 -159.44089832 604.65649136 -163 600 C-163.55816406 599.26990723 -164.11632812 598.53981445 -164.69140625 597.78759766 C-171.44659795 588.92228997 -178.11844895 580.059125 -184.1875 570.70703125 C-186.14761022 567.77953905 -188.23818281 564.98836281 -190.375 562.1875 C-195.57713281 555.3350354 -200.30508076 548.20427262 -205 541 C-205.6290625 540.0409375 -206.258125 539.081875 -206.90625 538.09375 C-214.71333662 526.0282525 -221.45956857 513.40561217 -228 500.625 C-228.70678324 499.24934472 -229.41373462 497.8737758 -230.12084961 496.49829102 C-234.24931656 488.4590409 -238.35891505 480.41048388 -242.35546875 472.3046875 C-243.43734263 470.13066066 -244.54359342 467.96856633 -245.67578125 465.8203125 C-251.70146767 454.26761715 -256.30682279 442.14010468 -261 430 C-261.33032227 429.15244141 -261.66064453 428.30488281 -262.00097656 427.43164062 C-269.69417806 407.60210522 -275.52844362 387.11131254 -281.25048828 366.64160156 C-281.79918278 364.70776623 -282.36207006 362.77794249 -282.93310547 360.85058594 C-285.56754644 351.8861158 -287.67494789 342.88037643 -289.625 333.75 C-289.92667939 332.35668331 -290.22876167 330.96345379 -290.53125 329.5703125 C-291.92351831 323.1387983 -293.28023907 316.70155435 -294.55273438 310.24511719 C-295.00659692 307.96688576 -295.48306642 305.69435479 -295.96484375 303.421875 C-300.28298607 282.84670208 -302.58535883 262.13535384 -304.1875 241.1875 C-304.27305145 240.07600586 -304.35860291 238.96451172 -304.44674683 237.81933594 C-305.6364106 222.05055853 -306.43660764 206.31398937 -306.5625 190.5 C-306.57703217 189.6266098 -306.59156433 188.7532196 -306.60653687 187.85336304 C-306.64156076 185.41177614 -306.64169997 182.97299769 -306.62890625 180.53125 C-306.64852921 179.46466911 -306.64852921 179.46466911 -306.66854858 178.37654114 C-306.60179679 174.83981127 -306.29619462 173.30664002 -303.80541992 170.72802734 C-301.05482099 169.03376756 -298.31767086 167.37307448 -295.484375 165.8203125 C-293.8744165 164.93267212 -293.8744165 164.93267212 -292.23193359 164.02709961 C-291.08289551 163.39940674 -289.93385742 162.77171387 -288.75 162.125 C-287.53826638 161.45832288 -286.32684545 160.79107716 -285.11572266 160.12329102 C-283.24971125 159.0944883 -281.38352555 158.06601852 -279.51638794 157.03926086 C-273.45142322 153.7037724 -267.41117045 150.32479348 -261.375 146.9375 C-259.30991265 145.77991792 -257.24480847 144.62236586 -255.1796875 143.46484375 C-254.16100586 142.89362793 -253.14232422 142.32241211 -252.09277344 141.73388672 C-246.89629255 138.8206086 -241.69805304 135.91047173 -236.5 133 C-234.41665834 131.8333482 -232.33332501 130.66668154 -230.25 129.5 C-217.75 122.5 -217.75 122.5 -214.62451172 120.74975586 C-212.54277268 119.58396248 -210.46106691 118.41810968 -208.37939453 117.25219727 C-203.14694077 114.3216794 -197.91389914 111.39222084 -192.6796875 108.46484375 C-182.64855394 102.85327585 -172.62553954 97.22843231 -162.625 91.5625 C-153.12877712 86.18317001 -143.59293401 80.87735184 -134.04736328 75.58618164 C-126.8457207 71.5908061 -119.66411315 67.56224848 -112.5 63.5 C-103.09434555 58.16761529 -93.65118943 52.90513854 -84.19628906 47.66064453 C-67.66027865 38.48681507 -51.16530971 29.24072437 -34.71142578 19.92041016 C-29.49578439 16.96810907 -24.2723499 14.03027959 -19.0390625 11.109375 C-18.17042572 10.62428467 -18.17042572 10.62428467 -17.28424072 10.12939453 C-14.45958272 8.55217735 -11.63390077 6.97684593 -8.80664062 5.40429688 C-7.80052734 4.84291016 -6.79441406 4.28152344 -5.7578125 3.703125 C-4.8620752 3.20458008 -3.96633789 2.70603516 -3.04345703 2.19238281 C-1.07524549 1.16003349 -1.07524549 1.16003349 0 0 Z " fill="#8DA4A9" transform="translate(497,149)"/>
<path d="M0 0 C0.5849705 39.35051546 -1.03809786 79.20689075 -8 118 C-8.21269531 119.22847656 -8.42539062 120.45695312 -8.64453125 121.72265625 C-11.07115386 135.21808372 -14.05626874 148.60996208 -17 162 C-17.25716797 163.17143555 -17.51433594 164.34287109 -17.77929688 165.54980469 C-20.3531357 177.19757149 -22.99964922 188.72441012 -26.734375 200.05859375 C-27.94999981 203.76132633 -28.99186341 207.50215123 -30.02685547 211.25878906 C-35.43090629 230.80970352 -42.25102011 249.9060349 -50.02490234 268.63525391 C-51.01013997 271.02459083 -51.96952731 273.42315292 -52.92578125 275.82421875 C-56.44732766 284.55981714 -60.39134673 292.79697001 -65.08422852 300.96289062 C-68.46218325 306.88693001 -71.42417276 312.94929002 -74.3125 319.125 C-78.23920222 327.47760328 -82.37332127 335.68609782 -86.75 343.8125 C-87.26860596 344.78396973 -87.78721191 345.75543945 -88.3215332 346.75634766 C-91.35066414 352.32217739 -94.65897873 357.5198292 -98.35302734 362.66674805 C-100.71498166 366.01290835 -102.8189839 369.49702856 -104.9375 373 C-108.23701986 378.36677895 -111.71348379 383.30042437 -115.7578125 388.140625 C-118.77013439 391.9821226 -121.46178525 396.01469111 -124.1875 400.0625 C-135.68661331 417.06780691 -148.13820082 433.43737589 -162.80541992 447.83984375 C-166.02646744 451.00371912 -169.04307807 454.25262077 -171.97265625 457.68359375 C-182.74046628 469.98669847 -193.90014489 482.17510867 -207 492 C-209.25809985 493.76057659 -211.50309219 495.53767535 -213.75 497.3125 C-216.1648883 499.21060479 -218.58213273 501.10569193 -221 503 C-221.53109375 503.41652832 -222.0621875 503.83305664 -222.609375 504.26220703 C-226.37882902 507.2118524 -230.17946397 510.11712761 -234 513 C-234.94141846 513.71446289 -234.94141846 513.71446289 -235.90185547 514.44335938 C-290.9657483 556 -290.9657483 556 -307 556 C-307 556.66 -307 557.32 -307 558 C-307.99 558 -308.98 558 -310 558 C-309.97477768 556.79667526 -309.94955536 555.59335052 -309.92356873 554.3535614 C-309.69641173 542.98147903 -309.55974837 531.61137718 -309.51034451 520.23709393 C-309.48207292 514.38963488 -309.42258831 508.54605505 -309.2902832 502.69995117 C-309.16361923 497.05128463 -309.12089277 491.40749353 -309.13490486 485.75748634 C-309.12576166 483.60873031 -309.08700189 481.45987877 -309.01739311 479.31223106 C-308.31697629 468.02064768 -308.31697629 468.02064768 -312.6400032 458.05115128 C-316.64622207 454.62626382 -321.07550011 452.26822281 -325.83595085 450.06032181 C-329.22738539 448.39861648 -332.25322957 446.30831611 -335.375 444.1875 C-336.05143555 443.73842285 -336.72787109 443.2893457 -337.42480469 442.82666016 C-349.45772528 434.66586241 -361.13179096 426.02968631 -372.109375 416.4921875 C-374.77418199 414.19469174 -377.49413717 411.99903788 -380.25 409.8125 C-393.42804221 399.0884334 -406.15096362 386.97685669 -417.203125 374.07421875 C-419.1746243 371.79842282 -421.21134395 369.59077333 -423.25 367.375 C-428.83311892 361.17048842 -433.94766125 354.63638427 -439 348 C-439.54849609 347.28134766 -440.09699219 346.56269531 -440.66210938 345.82226562 C-453.15635651 329.37503635 -464.07896958 312.23517397 -473.88134766 294.06103516 C-474.90781423 292.16984553 -475.95508026 290.29241289 -477.01171875 288.41796875 C-512.57505072 224.14427953 -529.49083091 144.61312516 -529.0625 71.5625 C-529.05746574 70.04101713 -529.0529063 68.51953261 -529.04882812 66.99804688 C-529.03799622 63.33199603 -529.02084235 59.66600926 -529 56 C-528.01 55.505 -528.01 55.505 -527 55 C-525.55675142 60.92900498 -524.59386074 66.73546925 -524.04296875 72.80859375 C-518.33433665 130.7548747 -505.64125345 186.61652447 -482 240 C-481.65114746 240.79696289 -481.30229492 241.59392578 -480.94287109 242.41503906 C-464.57611132 279.59938724 -440.70266287 313.92579259 -413.15234375 343.6640625 C-411.25942567 345.71844546 -409.43510729 347.81051542 -407.625 349.9375 C-400.97960349 357.57263642 -393.67759295 364.75291788 -385.96875 371.30859375 C-383.72218493 373.23867842 -381.55416096 375.24418139 -379.375 377.25 C-373.1736911 382.83684994 -366.61777366 387.92184355 -360 393 C-359.38914551 393.47308594 -358.77829102 393.94617188 -358.14892578 394.43359375 C-347.58240655 402.60555204 -336.60967358 410.08126663 -325.43408203 417.39355469 C-323.79599637 418.47465837 -322.16682476 419.56937786 -320.54638672 420.67675781 C-319.76666504 421.20881836 -318.98694336 421.74087891 -318.18359375 422.2890625 C-317.15383423 422.9998999 -317.15383423 422.9998999 -316.10327148 423.72509766 C-313.61306522 425.3130023 -313.61306522 425.3130023 -309 427 C-309 441.52 -309 456.04 -309 471 C-298.01619143 464.77237712 -298.01619143 464.77237712 -287.73046875 457.89453125 C-284.37644394 455.56734665 -280.91586452 453.44727409 -277.4375 451.3125 C-263.49669406 442.68821501 -250.44955598 433.06877959 -237.87255859 422.56396484 C-236.06276235 421.05241924 -234.24494772 419.55102589 -232.42578125 418.05078125 C-226.69524784 413.29541368 -221.23269504 408.3894907 -216.04296875 403.0390625 C-214.10781062 401.10760448 -212.10352372 399.36898233 -210 397.625 C-205.95474896 394.14624368 -202.73128624 390.18826633 -199.41796875 386.01953125 C-197.29401817 383.36716647 -195.12027419 380.778356 -192.90698242 378.20141602 C-188.15362892 372.66449738 -183.63581756 367.01335674 -179.31152344 361.13012695 C-177.15529751 358.21029461 -174.96758352 355.31715362 -172.7734375 352.42578125 C-159.14786379 334.25601857 -147.31150754 315.22670896 -137 295 C-136.60103516 294.22027832 -136.20207031 293.44055664 -135.79101562 292.63720703 C-134.08501605 289.28996441 -132.40234406 285.9326417 -130.75 282.55859375 C-129.62447098 280.26985058 -128.48007512 277.99023849 -127.3125 275.72265625 C-117.95869789 257.51305538 -110.62544934 238.71345396 -104.15966797 219.31005859 C-103.11108617 216.31707502 -101.96961788 213.37482084 -100.80007935 210.42753601 C-96.93385731 200.57922068 -94.58832266 190.57752162 -92.375 180.25 C-92.00363547 178.56487656 -91.63124162 176.87997962 -91.2578125 175.1953125 C-87.83495356 159.66151287 -84.54352576 144.06890584 -81.9375 128.375 C-81.77467529 127.3948291 -81.61185059 126.4146582 -81.4440918 125.40478516 C-78.42822781 106.70731412 -75.5762712 87.35391388 -76.17578125 68.38671875 C-76.65627058 48.80896277 -76.65627058 48.80896277 -73.74414062 43.87011719 C-70.13659737 40.2782589 -65.6973157 38.75086315 -61 37 C-58.55300859 35.43015668 -58.55300859 35.43015668 -56.375 33.6875 C-50.73406553 29.67678633 -44.76774198 26.22381012 -38.81811523 22.69750977 C-33.10367499 19.2985448 -27.49391417 15.7759258 -21.9375 12.125 C-3.46028761 0 -3.46028761 0 0 0 Z " fill="#546E7A" transform="translate(809,323)"/>
<path d="M0 0 C3.77675919 0.69211292 6.62236378 1.67013383 10 3.51953125 C10.9583374 4.04087646 11.9166748 4.56222168 12.90405273 5.09936523 C13.92571533 5.66469971 14.94737793 6.23003418 16 6.8125 C17.60307007 7.69047241 17.60307007 7.69047241 19.23852539 8.58618164 C27.75202361 13.26630437 36.19210046 18.07042509 44.61328125 22.9140625 C60.488586 32.03335765 76.53353092 40.85860559 92.54101562 49.74316406 C99.02040369 53.34052333 105.49232107 56.95018038 111.94775391 60.59033203 C117.93768405 63.96794812 123.9371946 67.32835467 129.9375 70.6875 C131.00226563 71.28369141 132.06703125 71.87988281 133.1640625 72.49414062 C138.56053082 75.5155166 143.9576262 78.53576737 149.35546875 81.5546875 C159.37482177 87.15985459 169.38607536 92.77826349 179.375 98.4375 C187.68607701 103.14462053 196.02269385 107.80394739 204.375 112.4375 C220.71310315 121.50127941 237.04985312 130.56625418 253.25 139.875 C262.94261346 145.4434996 272.72507469 150.84417521 282.52636719 156.21826172 C285.42459434 157.80965925 288.31927291 159.40715122 291.21063232 161.01098633 C292.44727747 161.69450094 293.68589596 162.37445307 294.92608643 163.05151367 C296.85258868 164.10413181 298.77240764 165.16815185 300.69140625 166.234375 C301.82908447 166.86053711 302.9667627 167.48669922 304.13891602 168.13183594 C306.83560821 169.89265928 308.30766432 171.29913837 310 174 C308.33669441 175.08848675 306.66914935 176.1704958 305 177.25 C304.071875 177.85328125 303.14375 178.4565625 302.1875 179.078125 C299.88196852 180.46822486 297.68149715 181.66799286 295.26953125 182.828125 C290.16408358 185.33304955 285.45708051 188.41467231 280.6875 191.5 C278.73854024 192.75170544 276.78931651 194.00299994 274.83984375 195.25390625 C273.86515137 195.88055176 272.89045898 196.50719727 271.88623047 197.15283203 C267.52573096 199.94352221 263.13640064 202.6877897 258.75 205.4375 C253.03908411 209.02185502 247.42699834 212.67591636 242.0078125 216.6953125 C237.8016958 219.42847004 237.8016958 219.42847004 235 220 C232.12961787 218.97675471 229.64133368 217.41918282 227.0625 215.8125 C225.67908031 214.98451492 224.29497598 214.15767259 222.91015625 213.33203125 C222.24234131 212.92774902 221.57452637 212.5234668 220.88647461 212.10693359 C218.32369012 210.60315918 215.65986829 209.32287879 213 208 C210.59313617 206.59903153 208.20011465 205.18286175 205.8125 203.75 C197.66974183 198.91164212 189.40771808 194.30130054 181.12002563 189.7166748 C173.2248237 185.34911047 165.34770965 180.9524499 157.5 176.5 C149.19131353 171.78835797 140.85405636 167.13070625 132.5 162.5 C123.16010881 157.32226477 113.84553955 152.10279525 104.55371094 146.83935547 C87.74146501 137.31822345 70.86189863 127.91841599 53.96606445 118.54663086 C45.65879961 113.93375309 37.37954449 109.27317592 29.11376953 104.58642578 C22.26326551 100.70459477 15.38926566 96.86713077 8.49194336 93.0690918 C5.58672563 91.4645235 2.76325699 89.84217133 0 88 C-0.28618725 85.15899567 -0.37815744 82.53689419 -0.34057617 79.69482422 C-0.34101425 78.83621796 -0.34145233 77.97761169 -0.34190369 77.09298706 C-0.33980874 74.24665822 -0.31644467 71.40091381 -0.29296875 68.5546875 C-0.2873753 66.58456748 -0.28310402 64.6144433 -0.28010559 62.64431763 C-0.26863705 57.4524997 -0.23915262 52.26093254 -0.20599365 47.06921387 C-0.17533601 41.77404167 -0.16160948 36.47882906 -0.14648438 31.18359375 C-0.11428482 20.78895217 -0.06306426 10.39449692 0 0 Z " fill="#77919C" transform="translate(499,149)"/>
<path d="M0 0 C0.99 0.33 1.98 0.66 3 1 C3.41307526 24.19576486 2.62215724 46.94639253 0 70 C-0.13921875 71.23911133 -0.2784375 72.47822266 -0.421875 73.75488281 C-4.80563256 111.45316827 -13.55571761 148.49030634 -27 184 C-27.34579102 184.92312988 -27.69158203 185.84625977 -28.04785156 186.79736328 C-41.70769473 222.97861892 -59.71950588 257.06690781 -83 288 C-83.74378906 288.99902344 -84.48757813 289.99804688 -85.25390625 291.02734375 C-91.77125269 299.69987627 -98.78309812 307.90432772 -106 316 C-106.48162598 316.54092285 -106.96325195 317.0818457 -107.45947266 317.63916016 C-113.83917295 324.76445324 -120.50239987 331.59841948 -127.25 338.375 C-127.99467529 339.12434814 -128.73935059 339.87369629 -129.5065918 340.64575195 C-134.17594787 345.30161428 -138.99150444 349.71293125 -144 354 C-144.96421875 354.845625 -145.9284375 355.69125 -146.921875 356.5625 C-165.05505292 372.19109534 -184.75156539 385.7751524 -204.875 398.6875 C-205.84550293 399.31277588 -206.81600586 399.93805176 -207.81591797 400.58227539 C-209.17160889 401.44453735 -209.17160889 401.44453735 -210.5546875 402.32421875 C-211.36405762 402.84072998 -212.17342773 403.35724121 -213.00732422 403.8894043 C-215 405 -215 405 -217 405 C-217 394.11 -217 383.22 -217 372 C-210.07 368.04 -210.07 368.04 -203 364 C-200.28698073 362.24138215 -197.63260913 360.48955563 -195 358.625 C-194.33758301 358.16222656 -193.67516602 357.69945312 -192.99267578 357.22265625 C-190.99090499 355.82098703 -188.99540954 354.41070349 -187 353 C-185.78928259 352.15333102 -184.57835206 351.3069667 -183.3671875 350.4609375 C-164.59332124 337.27673508 -146.19849345 322.68593781 -130.25 306.1484375 C-128 304 -128 304 -126 304 C-125.7306665 303.40324463 -125.46133301 302.80648926 -125.18383789 302.19165039 C-123.99987812 299.99977436 -122.8495338 298.64442964 -121.05859375 296.93359375 C-120.47972412 296.37172363 -119.90085449 295.80985352 -119.30444336 295.23095703 C-118.68835205 294.63911621 -118.07226074 294.04727539 -117.4375 293.4375 C-111.49134166 287.60378963 -106.16151658 281.54313465 -101 275 C-100.02132681 273.81904067 -99.03933412 272.64082725 -98.0546875 271.46484375 C-43.29489405 205.808413 -16.55556958 124.59938869 -4.8125 41.0625 C-4.68575897 40.16464783 -4.55901794 39.26679565 -4.42843628 38.34173584 C-2.6394762 25.58705629 -1.19476965 12.823746 0 0 Z " fill="#3F4B56" transform="translate(717,378)"/>
<path d="M0 0 C2.97547201 0.85910941 5.29334576 2.06138559 7.96801758 3.62280273 C8.99604492 4.21899414 10.02407227 4.81518555 11.08325195 5.42944336 C12.18475586 6.07848633 13.28625977 6.7275293 14.42114258 7.39624023 C15.58558963 8.07573359 16.75030788 8.75476237 17.9152832 9.43334961 C26.74577078 14.58930268 35.51041884 19.85506291 44.26513672 25.13842773 C52.8339045 30.29944542 61.4842491 35.30959264 70.15820312 40.29125977 C77.84983186 44.71136472 85.50221388 49.1925482 93.1328125 53.71704102 C100.79743715 58.26052185 108.48218113 62.76913618 116.17114258 67.27124023 C124.82568257 72.3398735 133.47525021 77.41663159 142.10864258 82.52124023 C142.98472168 83.03912109 143.86080078 83.55700195 144.76342773 84.09057617 C149.29642509 86.77149868 153.82666815 89.45700104 158.35473633 92.14624023 C160.25174196 93.27145907 162.14887602 94.39646142 164.04614258 95.52124023 C164.95517334 96.06087402 165.8642041 96.60050781 166.80078125 97.15649414 C171.01885004 99.65112914 175.2490512 102.11174053 179.53833008 104.48217773 C180.2829248 104.89371094 181.02751953 105.30524414 181.79467773 105.72924805 C183.16813687 106.48299485 184.54520105 107.23022624 185.92651367 107.96948242 C189.06219334 109.68474036 190.64586076 110.73331751 192.67114258 113.77124023 C185.8892905 111.68188177 179.50487246 109.00872207 173.04614258 106.08374023 C162.21207055 101.24900484 151.28135249 96.68771662 140.29614258 92.20874023 C126.26683436 86.48559781 112.2673425 80.6973729 98.29614258 74.83374023 C82.3885941 68.16032002 66.47488186 61.50233471 50.52758789 54.92431641 C48.85795403 54.23536108 47.1883574 53.5463155 45.51879883 52.85717773 C44.70216766 52.52013321 43.8855365 52.18308868 43.04415894 51.83583069 C38.09229894 49.78722853 33.15500863 47.70721766 28.22761536 45.60046387 C25.08052022 44.25632564 21.9284026 42.92422467 18.77566528 41.59338379 C17.30813812 40.9699504 15.84309975 40.34062028 14.38082886 39.70495605 C12.37691285 38.8342498 10.36530583 37.98435321 8.35083008 37.13842773 C6.66062744 36.41308838 6.66062744 36.41308838 4.9362793 35.6730957 C-0.81330601 34.08501673 -5.56438038 35.62562693 -10.91479492 37.89624023 C-12.52475342 38.57130615 -12.52475342 38.57130615 -14.16723633 39.26000977 C-15.33432129 39.75871582 -16.50140625 40.25742187 -17.70385742 40.77124023 C-18.97219703 41.30582897 -20.24092747 41.8394912 -21.51000977 42.37231445 C-24.28883757 43.53961832 -27.06605899 44.71064567 -29.8425293 45.88354492 C-34.50155284 47.848005 -39.17181668 49.78480483 -43.84448242 51.71655273 C-44.66187897 52.05450867 -45.47927551 52.3924646 -46.32144165 52.74066162 C-48.00685955 53.43741924 -49.69229475 54.13413502 -51.37774658 54.83081055 C-67.4439867 61.47549715 -83.48672203 68.17586812 -99.51992798 74.89981079 C-109.37058685 79.03081153 -119.2257605 83.15000951 -129.09838867 87.22827148 C-129.97806305 87.59173676 -130.85773743 87.95520203 -131.7640686 88.3296814 C-135.24609158 89.7682337 -138.72812259 91.20676564 -142.21057129 92.64428711 C-150.96510892 96.26041072 -159.7038947 99.90530984 -168.38745117 103.68920898 C-169.09263382 103.99647415 -169.79781647 104.30373932 -170.52436829 104.62031555 C-173.79068148 106.04634693 -177.05307774 107.48064116 -180.31054688 108.92675781 C-181.43549561 109.42199951 -182.56044434 109.91724121 -183.71948242 110.42749023 C-184.68917969 110.85868164 -185.65887695 111.28987305 -186.65795898 111.73413086 C-189.22015125 112.72902965 -191.62214239 113.32606493 -194.32885742 113.77124023 C-190.37206373 110.37970278 -186.26595855 107.96594091 -181.70385742 105.52124023 C-173.87489491 101.24712034 -166.17999126 96.77209088 -158.51635742 92.20874023 C-156.18699282 90.82191651 -153.85756552 89.43519816 -151.52807617 88.04858398 C-150.93841064 87.69748566 -150.34874512 87.34638733 -149.74121094 86.98464966 C-143.12288771 83.04752036 -136.47606584 79.15932678 -129.82885742 75.27124023 C-120.37337759 69.73867771 -110.93611651 64.17693388 -101.51635742 58.58374023 C-91.21997406 52.47151786 -80.89127633 46.41738615 -70.54370117 40.39233398 C-54.38681099 30.98370315 -38.25978938 21.5231431 -22.16567993 12.00750732 C-20.43835012 10.9865167 -18.71015375 9.96699259 -16.98193359 8.94750977 C-15.93239502 8.32602051 -14.88285645 7.70453125 -13.80151367 7.06420898 C-12.83358887 6.49234863 -11.86566406 5.92048828 -10.8684082 5.33129883 C-8.78776297 4.05314818 -6.84449583 2.71348579 -4.88745117 1.25952148 C-2.32885742 -0.22875977 -2.32885742 -0.22875977 0 0 Z " fill="#7D8C91" transform="translate(500.328857421875,252.228759765625)"/>
<path d="M0 0 C0 10.56 0 21.12 0 32 C-6.70567375 35.35283688 -13.30217237 38.49089954 -20.2109375 41.3359375 C-21.16431 41.73199692 -22.1176825 42.12805634 -23.09994507 42.53611755 C-26.19026197 43.8190726 -29.28261535 45.09703809 -32.375 46.375 C-34.53954031 47.27266348 -36.70392669 48.17069819 -38.86816406 49.0690918 C-43.21254711 50.8720618 -47.55762853 52.67333134 -51.90332031 54.47314453 C-59.4680853 57.60705959 -67.0262655 60.75668649 -74.58340454 63.90893555 C-78.20231244 65.4181774 -81.82190888 66.92576628 -85.44140625 68.43359375 C-90.48363403 70.53436917 -95.52552962 72.63593916 -100.56704712 74.73841858 C-103.53016888 75.97409931 -106.49341123 77.2094907 -109.45666504 78.44485474 C-110.93791982 79.062463 -112.41912143 79.68019878 -113.90026855 80.29806519 C-122.81834529 84.01810631 -131.74275637 87.72223881 -140.67578125 91.40625 C-143.40033654 92.53121179 -146.12481103 93.65636907 -148.84927368 94.78155518 C-150.57549177 95.4936333 -152.3021739 96.20458785 -154.02938843 96.91424561 C-156.46871533 97.9164986 -158.90664719 98.92203908 -161.34375 99.9296875 C-162.12704178 100.2530307 -162.91033356 100.5763739 -163.71736145 100.90951538 C-168.03632543 102.70919676 -172.30988299 104.58375304 -176.55859375 106.54394531 C-177.47338501 106.96491486 -178.38817627 107.3858844 -179.33068848 107.8196106 C-181.09721285 108.63773504 -182.85971614 109.46461303 -184.61755371 110.30123901 C-185.40956177 110.6686319 -186.20156982 111.03602478 -187.01757812 111.41455078 C-187.71564575 111.74512482 -188.41371338 112.07569885 -189.13293457 112.41629028 C-191 113 -191 113 -194 112 C-193.273573 111.58826538 -193.273573 111.58826538 -192.5324707 111.16821289 C-178.16305481 103.0134986 -163.8945364 94.69253723 -149.65144348 86.32009888 C-145.31970318 83.77405842 -140.98501656 81.23310153 -136.6484375 78.6953125 C-124.80927309 71.76581404 -112.98353159 64.81522889 -101.1875 57.8125 C-90.89105511 51.70038037 -80.56241982 45.64614645 -70.21484375 39.62109375 C-37.50058979 20.9230051 -37.50058979 20.9230051 -5.3515625 1.30029297 C-3 0 -3 0 0 0 Z " fill="#8CA5AA" transform="translate(500,253)"/>
<path d="M0 0 C1.8871875 0.061875 1.8871875 0.061875 3.8125 0.125 C3.8125 0.785 3.8125 1.445 3.8125 2.125 C4.43125 2.3725 5.05 2.62 5.6875 2.875 C8.27525992 4.39721172 8.86842658 5.29277975 9.8125 8.125 C10.27222376 11.14604186 10.41275379 13.16325508 8.76171875 15.80859375 C5.6077664 19.68823425 4.01837885 20.98431413 -0.9375 21.5625 C-4.32758252 21.50682346 -6.13345264 20.86891304 -8.6875 18.625 C-10.81983465 16.16058045 -11.62717681 14.31801065 -11.8125 11.0625 C-11.13021324 6.7640934 -10.27103234 5.12043142 -7.1875 2.125 C-4.09861478 0.06574319 -3.47814073 -0.1140374 0 0 Z " fill="#312D3B" transform="translate(461.1875,207.875)"/>
<path d="M0 0 C2.70366919 1.41676988 3.88272922 2.62452546 6 5 C6.79380648 9.36593564 6.3211758 11.39206009 4.25 15.3125 C1.02136138 19.16892946 -0.51955628 19.84138103 -5.5 20.375 C-9 20 -9 20 -11.4375 18.125 C-13 16 -13 16 -13 14 C-13.66 14 -14.32 14 -15 14 C-15.78279267 6.01551481 -15.78279267 6.01551481 -12.6875 2 C-8.20158328 -1.33835663 -5.35252565 -1.27009083 0 0 Z " fill="#33313E" transform="translate(237,394)"/>
<path d="M0 0 C2.70366919 1.41676988 3.88272922 2.62452546 6 5 C6.8130153 9.47158412 6.30260945 11.44521601 4.125 15.4375 C3.42375 16.283125 2.7225 17.12875 2 18 C1.34 18 0.68 18 0 18 C0 18.66 0 19.32 0 20 C-7.23746374 20.61334438 -7.23746374 20.61334438 -10.875 17.6875 C-14.92703583 12.56286645 -14.92703583 12.56286645 -15.4375 8.625 C-14.88897827 4.08010567 -13.53443573 2.79467011 -10 0 C-6.14217025 -1.28594325 -3.95337324 -0.93808857 0 0 Z " fill="#302E3C" transform="translate(772,394)"/>
<path d="M0 0 C2.80228882 1.53008408 4.50814925 3.17062788 6 6 C6.46461431 9.0724495 6.36939662 11.92169484 6 15 C5.34 15 4.68 15 4 15 C3.566875 15.9590625 3.566875 15.9590625 3.125 16.9375 C2 19 2 19 0 20 C-3.42998634 20.53422796 -6.58169404 20.64931714 -10 20 C-13.73017145 17.22501594 -14.8283543 13.88943682 -15.6875 9.4375 C-14.89970713 5.49853563 -13.89465526 3.7308915 -10.91015625 1.11328125 C-7.30796244 -0.98615686 -3.98184035 -1.04336993 0 0 Z " fill="#322F3D" transform="translate(738,316)"/>
<path d="M0 0 C2.61592199 1.59925362 4.38193044 3.39851007 6 6 C6.80017639 10.48098781 6.3369686 12.39345651 4.125 16.375 C1.99403138 19.007373 1.29199253 19.84516396 -1.98828125 20.23828125 C-6.11276575 20.36998748 -8.38721453 20.37022455 -12 18.1875 C-14.5930271 15.35137661 -14.95288103 13.4240707 -15.375 9.625 C-15 6 -15 6 -12.6875 3.125 C-8.54414326 -0.15114254 -5.19852003 -0.61677356 0 0 Z " fill="#33303D" transform="translate(253,494)"/>
<path d="M0 0 C0 0.66 0 1.32 0 2 C0.61875 2.28875 1.2375 2.5775 1.875 2.875 C4 4 4 4 6 6 C6.46768364 10.95744661 6.14407255 14.06990931 3 18 C-0.42176689 20.56632517 -3.84640421 20.36435051 -8 20 C-10.9375 18.625 -10.9375 18.625 -13 17 C-13 16.34 -13 15.68 -13 15 C-13.66 15 -14.32 15 -15 15 C-15.78279267 7.01551481 -15.78279267 7.01551481 -12.6875 3 C-8.41327093 -0.18082164 -5.20284687 -0.09816692 0 0 Z " fill="#312E3C" transform="translate(271,316)"/>
<path d="M0 0 C4.46574948 0.50419752 6.35417024 1.54171712 9.54296875 4.59375 C11.46617368 7.25578145 11.73068017 9.24055719 11.4453125 12.47265625 C10.42436167 15.99004164 8.48057679 17.89396075 5.875 20.4375 C2.60648429 22.07175785 -0.61906632 22.24192073 -4.125 21.4375 C-7.19283013 19.03595279 -8.73453475 16.13378345 -9.6015625 12.3671875 C-9.89317769 8.33061941 -9.26519795 6.6064565 -6.6875 3.5 C-5.841875 2.819375 -4.99625 2.13875 -4.125 1.4375 C-3.125 0.4375 -3.125 0.4375 0 0 Z " fill="#2F2C3A" transform="translate(662.125,686.5625)"/>
<path d="M0 0 C2.93377649 1.54119591 5.06752637 3.30160694 7 6 C7.53133458 9.91859249 7.24242813 12.2727156 6 16 C2.75614452 18.7032129 0.65522088 19.91953428 -3.5625 20.4375 C-7.24042089 19.96940098 -9.11915561 19.30467552 -12 17 C-14.56093034 13.58542621 -14.30140993 10.14438649 -14 6 C-13.34 5.01 -12.68 4.02 -12 3 C-11.34 3 -10.68 3 -10 3 C-10 2.34 -10 1.68 -10 1 C-6.72676123 -0.63661939 -3.52393589 -0.65797008 0 0 Z " fill="#302D3B" transform="translate(755,494)"/>
<path d="M0 0 C4.99503071 0.4913145 6.31841769 1.88091769 9.8125 5.375 C11.38705739 8.52411479 11.16049118 10.89508816 10.8125 14.375 C9.03969439 17.35172584 6.95641985 19.80304007 3.8125 21.375 C0.68988337 21.513649 -2.17873952 21.23006514 -5.1875 20.375 C-8.28776029 17.27473971 -9.42457149 14.60815629 -9.75 10.3125 C-9.08068933 5.62732534 -7.80918312 4.29001324 -4.1875 1.375 C-3.1875 0.375 -3.1875 0.375 0 0 Z " fill="#302D3A" transform="translate(336.1875,686.625)"/>
<path d="M0 0 C3.81227054 0.0968635 6.1462875 0.89741948 9.1875 3.3125 C11.86741326 7.3323699 12.1052725 10.59134595 11.1875 15.3125 C8.53331105 18.64725022 7.05224757 19.8872067 2.9609375 20.8203125 C-1.5684845 21.16872958 -3.30689243 20.73555939 -6.875 17.75 C-9.11179942 13.7814849 -9.46451862 11.79512803 -8.8125 7.3125 C-6.5747857 2.73535711 -5.26188829 0.43130232 0 0 Z " fill="#302D3B" transform="translate(546.8125,801.6875)"/>
<path d="M0 0 C4.35820909 0.10319985 6.91073093 1.52440445 10.25 4.375 C11.45190901 7.98072704 11.57670315 10.5852435 11.25 14.375 C9.45437595 17.12829021 8.19745078 18.90127461 5.25 20.375 C0.72305825 20.82769417 -2.45504096 21.06761379 -6.25 18.375 C-9.07465586 14.98541297 -9.48146344 13.55916151 -9.15234375 9.3046875 C-8.03862731 3.96317372 -5.41166432 0.54116643 0 0 Z " fill="#312E3C" transform="translate(450.75,801.625)"/>
<path d="M0 0 C4.35820909 0.10319985 6.91073093 1.52440445 10.25 4.375 C11.45190901 7.98072704 11.57670315 10.5852435 11.25 14.375 C9.45437595 17.12829021 8.19745078 18.90127461 5.25 20.375 C1.05258754 20.86928988 -2.53161011 21.07557419 -6.25 18.9375 C-8.43623702 15.20267843 -8.9653683 11.68236594 -8.75 7.375 C-6.7025325 2.79257274 -5.12263018 0.51226302 0 0 Z " fill="#312E3C" transform="translate(382.75,744.625)"/>
<path d="M0 0 C0.90492188 0.02320313 1.80984375 0.04640625 2.7421875 0.0703125 C4.10730469 0.09738281 4.10730469 0.09738281 5.5 0.125 C6.19867188 0.14820313 6.89734375 0.17140625 7.6171875 0.1953125 C7.6171875 0.8553125 7.6171875 1.5153125 7.6171875 2.1953125 C8.57625 2.659375 8.57625 2.659375 9.5546875 3.1328125 C11.6171875 4.1953125 11.6171875 4.1953125 12.6171875 5.1953125 C12.96931439 10.47721585 13.1235246 13.93761745 9.6171875 18.1953125 C6.59497191 20.09147774 4.57763119 20.41912065 1.0546875 20.0078125 C0.29027344 19.93175781 -0.47414063 19.85570312 -1.26171875 19.77734375 C-3.83379603 19.07156196 -4.79926255 18.33092574 -6.3828125 16.1953125 C-7.63922021 11.94897251 -7.88341271 8.31570344 -6.0703125 4.2578125 C-2.77258886 0.22726138 -2.77258886 0.22726138 0 0 Z " fill="#312E3C" transform="translate(285.3828125,600.8046875)"/>
<path d="M0 0 C3.81227054 0.0968635 6.1462875 0.89741948 9.1875 3.3125 C11.67136059 7.03829089 11.5679212 8.89961402 11.1875 13.3125 C9.53610695 16.8511994 8.47144771 18.12320153 5.1875 20.3125 C2.09735913 20.91432519 -0.72285203 20.92393646 -3.8125 20.3125 C-7.45818185 17.26203151 -8.6513089 15.46098661 -9.3125 10.75 C-8.45229101 4.83606317 -6.21784498 0.50965942 0 0 Z " fill="#302C3A" transform="translate(614.8125,744.6875)"/>
<path d="M0 0 C2.74526313 1.65604942 4.70561241 2.92733931 5.6015625 6.1015625 C5.76791859 10.4933633 4.89598506 13.71391546 2.0546875 17.1640625 C-0.9086772 19.46890171 -4.26010066 19.71562531 -7.97265625 19.59765625 C-10.81199336 18.97356433 -12.45223058 17.4302489 -14.09765625 15.08203125 C-15.69350366 11.4711507 -15.74696726 7.99742979 -14.9453125 4.1640625 C-11.33262086 -0.81896045 -5.78166018 -2.48448851 0 0 Z " fill="#302D3B" transform="translate(641.9453125,261.8359375)"/>
<path d="M0 0 C3.44312714 2.1244827 4.71617547 3.14852641 6 7 C6.38887761 11.19987818 6.45908323 13.29607238 4.125 16.875 C1.38653854 19.61346146 0.59119587 19.95538144 -3.3125 20.25 C-7.24058469 19.98368917 -8.95647943 19.43481646 -12 17 C-14.35452096 13.22631573 -14.21608994 10.42163744 -13.59375 6.12890625 C-13 4 -13 4 -10.9375 1.4375 C-7.13930216 -0.42119256 -4.15171936 -0.8471185 0 0 Z " fill="#312E3B" transform="translate(367,261)"/>
<path d="M0 0 C3.4375 1.4375 3.4375 1.4375 6 4 C7.42170682 8.28109471 7.50320773 11.75522298 5.8125 15.9375 C3.42759578 18.65135653 1.41521773 19.88040414 -2.21875 20.1875 C-6.48878861 19.83653792 -8.43535947 19.53775289 -11.625 16.5 C-13.4066641 11.96485502 -13.3510648 8.65366763 -12 4 C-9.12824857 -0.70967234 -5.12312456 -0.93415899 0 0 Z " fill="#2F2C3A" transform="translate(715,601)"/>
<path d="M0 0 C3.4375 2 3.4375 2 6 5 C6.9882819 9.01793296 6.3811861 12.12327196 4.75 15.875 C1.8954757 19.34120808 0.00764703 19.87175401 -4.4375 20.4375 C-8 20 -8 20 -10.875 18 C-13.71238974 13.9942733 -14 11.9090291 -14 7 C-12.79014576 4.0708792 -11.76935187 2.57701391 -9.25 0.6875 C-5.9260257 -0.32815881 -3.46313738 -0.41796486 0 0 Z " fill="#302D3B" transform="translate(543,209)"/>
<path d="M0 0 C0.33 2.64 0.66 5.28 1 8 C-2.72433382 6.7874262 -6.37802806 5.49140021 -10 4 C-8.66666667 3.33333333 -7.33333333 2.66666667 -6 2 C-5.29875 1.62875 -4.5975 1.2575 -3.875 0.875 C-2 0 -2 0 0 0 Z " fill="#E28C46" transform="translate(509,145)"/>
<path d="M0 0 C1.8871875 0.061875 1.8871875 0.061875 3.8125 0.125 C3.8125 0.455 3.8125 0.785 3.8125 1.125 C2.265625 1.186875 2.265625 1.186875 0.6875 1.25 C-3.52066229 2.20023019 -5.24997289 3.18846514 -8.09765625 6.29296875 C-10.04747826 9.57062654 -9.57210535 12.40714828 -9.1875 16.125 C-9.8475 15.795 -10.5075 15.465 -11.1875 15.125 C-11.67720976 7.901781 -11.67720976 7.901781 -9.375 4.25 C-6.24102661 1.20556871 -4.33437751 -0.14211074 0 0 Z " fill="#575F6A" transform="translate(461.1875,207.875)"/>
<path d="M0 0 C0 0.33 0 0.66 0 1 C-1.546875 1.3403125 -1.546875 1.3403125 -3.125 1.6875 C-7.34408258 2.86471856 -9.81536784 5.04838971 -13 8 C-10.64175733 0.72875178 -7.4631798 -0.43056807 0 0 Z " fill="#4B4F5A" transform="translate(340,687)"/>
<path d="M0 0 C0 0.33 0 0.66 0 1 C-1.546875 1.3403125 -1.546875 1.3403125 -3.125 1.6875 C-7.34408258 2.86471856 -9.81536784 5.04838971 -13 8 C-10.64175733 0.72875178 -7.4631798 -0.43056807 0 0 Z " fill="#393E4C" transform="translate(666,687)"/>
<path d="M0 0 C0.66 0.33 1.32 0.66 2 1 C1.195625 1.66 0.39125 2.32 -0.4375 3 C-3.75148924 6.87979228 -3.74577025 9.00014825 -4 14 C-4.33 14 -4.66 14 -5 14 C-5.78774617 5.96498906 -5.78774617 5.96498906 -2.5 1.9375 C-1.2625 0.9784375 -1.2625 0.9784375 0 0 Z " fill="#484B57" transform="translate(261,317)"/>
</svg>
