<?xml version="1.0" encoding="UTF-8"?>
<svg version="1.1" xmlns="http://www.w3.org/2000/svg" width="1000" height="1000">
<path d="M0 0 C0.92028079 -0.00205263 1.84056158 -0.00410527 2.78872967 -0.0062201 C5.86532811 -0.01186408 8.94188143 -0.01043607 12.01848412 -0.00901413 C14.2496268 -0.01159928 16.48076902 -0.01461285 18.71191061 -0.01801753 C24.83822923 -0.02607356 30.96453612 -0.02787633 37.09085941 -0.028615 C43.02155539 -0.03027767 48.95224598 -0.03659755 54.88293866 -0.04269341 C70.76858606 -0.05873214 86.65423248 -0.06465481 102.53988653 -0.06944216 C110.06187832 -0.0717808 117.58386936 -0.07538381 125.10586056 -0.07913754 C150.87700998 -0.09197278 176.64815898 -0.1026907 202.41931152 -0.10614014 C204.03629222 -0.10636177 205.65327292 -0.10658355 207.27025362 -0.10680549 C208.89104988 -0.10702613 210.51184613 -0.10724661 212.13264239 -0.10746694 C215.38400817 -0.10790948 218.63537395 -0.1083566 221.88673973 -0.10880661 C222.69288588 -0.108916 223.49903203 -0.10902539 224.32960684 -0.1091381 C250.44518981 -0.11276546 276.56074496 -0.12867354 302.67631728 -0.15199697 C330.31544187 -0.17663571 357.95455058 -0.1903149 385.59368646 -0.19150805 C388.6324656 -0.19167949 391.67124474 -0.19189492 394.71002388 -0.19214249 C395.45820536 -0.19219826 396.20638684 -0.19225402 396.97724048 -0.19231148 C408.9791515 -0.19345858 420.98103382 -0.20445167 432.98293517 -0.21902954 C445.0659226 -0.23345115 457.14887353 -0.23659979 469.23186721 -0.22858956 C475.76831808 -0.2245468 482.30469229 -0.22554298 488.84113312 -0.23964691 C494.83987073 -0.25247148 500.83844132 -0.2511139 506.83717899 -0.2390562 C508.99275741 -0.23711389 511.14834801 -0.24010868 513.30390938 -0.24890056 C532.27175137 -0.32128723 550.99873695 1.37585264 569.47658348 5.81892776 C571.08557518 6.20020828 571.08557518 6.20020828 572.72707176 6.58919144 C618.98575729 17.95485318 666.71396508 43.8853318 697.59377098 80.88142776 C699.06500924 82.63958801 700.57929295 84.3617505 702.10939598 86.06892776 C738.35759974 126.70170266 762.72393857 183.94498013 762.60801125 238.76227474 C762.6110902 240.14189413 762.6110902 240.14189413 762.61423135 241.54938462 C762.61986648 244.61814315 762.61844843 247.68685629 762.61702538 250.75561905 C762.61961103 252.98349999 762.62262474 255.21138046 762.62602878 257.4392603 C762.63407878 263.55191801 762.63588724 269.66456395 762.63662624 275.77722633 C762.6382898 281.69613752 762.64461036 287.61504334 762.65070466 293.53395123 C762.66673704 309.38561576 762.67266519 325.2372793 762.6774534 341.08895048 C762.67979253 348.59523269 762.68339557 356.10151414 762.68714878 363.60779576 C762.69998303 389.32690819 762.71070138 415.0460202 762.71415138 440.76513577 C762.71437301 442.37857835 762.7145948 443.99202094 762.71481673 445.60546352 C762.71503737 447.22270114 762.71525785 448.83993877 762.71547818 450.45717639 C762.71592072 453.70137672 762.71636784 456.94557705 762.71681786 460.18977737 C762.71692725 460.99414579 762.71703664 461.79851421 762.71714934 462.62725743 C762.72077704 488.68765556 762.73668689 514.74802582 762.76000822 540.80841329 C762.784647 568.3916884 762.79832613 595.9749476 762.7995193 623.55823404 C762.79969074 626.59081893 762.79990616 629.62340381 762.80015373 632.65598869 C762.8002095 633.40264052 762.80026527 634.14929235 762.80032273 634.91856999 C762.80146977 646.89532058 762.81246229 658.87204241 762.82704079 670.84878332 C762.84146237 682.90588395 762.84461103 694.96294801 762.83660081 707.0200549 C762.83255814 713.54233591 762.83355381 720.06454011 762.84765816 726.58681107 C762.86048315 732.57255594 762.8591248 738.55813343 762.84706745 744.54387835 C762.84512521 746.69471628 762.84811954 748.84556643 762.85691181 750.99638727 C762.92941003 769.95088724 761.22899225 788.66674947 756.78908348 807.13142776 C756.53489647 808.2040889 756.28070946 809.27675003 756.01881981 810.38191605 C746.00506796 851.13827571 725.75985237 887.93939194 697.53127098 918.85408401 C695.7709255 920.80518937 694.08474025 922.7915632 692.41408348 924.81892776 C689.763201 927.93335254 686.83595646 930.55704858 683.71877098 933.19783401 C681.21497107 935.35703429 678.82403243 937.61807809 676.41408348 939.88142776 C631.69633281 980.48931657 570.81771685 1000.49437509 511.12654686 1000.3988533 C508.89292522 1000.40259601 506.65930489 1000.40719999 504.4256866 1000.41258395 C498.32482363 1000.42475306 492.22401575 1000.42456068 486.12314343 1000.4221952 C480.2069607 1000.42182763 474.2907938 1000.43082781 468.37461891 1000.43942097 C454.78817099 1000.45870525 441.20173822 1000.46438716 427.61527821 1000.46553509 C417.11484838 1000.46645645 406.61442443 1000.47058493 396.11399651 1000.47693634 C393.08434511 1000.47873162 390.0546937 1000.48051125 387.0250423 1000.4822861 C385.89504645 1000.48294924 385.89504645 1000.48294924 384.74222241 1000.48362578 C363.56748103 1000.495925 342.3927417 1000.50382787 321.2179966 1000.50293922 C320.42056585 1000.50290807 319.6231351 1000.50287691 318.80153978 1000.50284481 C314.7604497 1000.50267861 310.71935962 1000.50248053 306.67826954 1000.50227539 C305.47455662 1000.50221556 305.47455662 1000.50221556 304.24652627 1000.50215451 C302.6237255 1000.50207364 301.00092473 1000.50199004 299.37812397 1000.50190373 C274.1535965 1000.50067937 248.92912289 1000.51567406 223.70461082 1000.54304886 C195.31814488 1000.57384297 166.93171431 1000.59097687 138.54523063 1000.58912241 C135.51180697 1000.58897317 132.47838331 1000.58887575 129.44495964 1000.58881378 C128.69814078 1000.58879047 127.95132192 1000.58876716 127.18187218 1000.58874315 C115.21944892 1000.58868188 103.25707281 1000.60139507 91.29466352 1000.61867831 C79.24715953 1000.63572303 67.1997237 1000.63754014 55.15221426 1000.62445967 C48.63937809 1000.6177677 42.12667663 1000.61768705 35.61385345 1000.63516617 C-15.13170596 1000.76294466 -15.13170596 1000.76294466 -37.52341652 996.13142776 C-38.29188329 995.97714113 -39.06035007 995.8228545 -39.85210371 995.66389251 C-43.76526767 994.86841355 -47.61337513 993.94969307 -51.46091652 992.88142776 C-52.56677101 992.58260696 -53.6726255 992.28378616 -54.81199074 991.97591019 C-80.10102271 984.94186273 -104.83527718 973.97036671 -126.52341652 959.13142776 C-127.42060402 958.52500443 -127.42060402 958.52500443 -128.33591652 957.90633011 C-141.71791954 948.81074993 -153.74749737 938.19418194 -165.52341652 927.13142776 C-166.17954933 926.51783401 -166.83568214 925.90424026 -167.51169777 925.27205276 C-172.6641471 920.2972741 -177.0657616 914.72479095 -181.52341652 909.13142776 C-182.42410646 908.02176718 -183.32515896 906.9124008 -184.22654152 905.80330276 C-205.88288282 878.95506063 -221.2262621 847.42311814 -230.21091652 814.19392776 C-230.4843589 813.2148848 -230.75780128 812.23584183 -231.0395298 811.22713089 C-231.99070553 807.55116717 -232.7699533 803.85165041 -233.52341652 800.13142776 C-233.68900661 799.33168502 -233.85459669 798.53194227 -234.02520466 797.7079649 C-238.86239017 773.16515035 -238.09753688 748.28506256 -238.04631519 723.38520026 C-238.03811768 717.4782816 -238.04890213 711.57140295 -238.05890466 705.66449364 C-238.07982556 692.85962163 -238.07819928 680.05483009 -238.06658901 667.24995066 C-238.05647931 656.04339651 -238.05392193 644.83687166 -238.05867958 633.63031387 C-238.05898512 632.88351577 -238.05929066 632.13671768 -238.05960546 631.36728933 C-238.06085106 628.33488847 -238.06212468 625.30248763 -238.06344452 622.27008681 C-238.07564791 593.89269882 -238.06463862 565.51536171 -238.04305693 537.13798159 C-238.02407814 511.99205227 -238.0257768 486.84620403 -238.04490089 461.70027542 C-238.06637472 433.37084796 -238.07478204 405.04146536 -238.06245184 376.71203089 C-238.0611692 373.68553449 -238.05991782 370.65903808 -238.05867958 367.63254166 C-238.05836327 366.8874808 -238.05804696 366.14241994 -238.05772107 365.37478149 C-238.05319393 354.18231795 -238.05844951 342.98988712 -238.06859779 331.79742813 C-238.08009388 319.05588431 -238.07705083 306.31443268 -238.05547482 293.57290018 C-238.04484616 287.08429051 -238.04072366 280.59581035 -238.05407143 274.10719872 C-238.18989012 201.99182863 -222.94460013 137.06528324 -173.52341652 82.13142776 C-173.00859718 81.55489456 -172.49377785 80.97836136 -171.96335793 80.38435745 C-166.14548929 73.88722698 -160.24652004 67.70549178 -153.52341652 62.13142776 C-152.62880714 61.33736526 -151.73419777 60.54330276 -150.81247902 59.72517776 C-126.41215796 38.19083844 -97.24983031 22.50159242 -66.52341652 12.13142776 C-65.37099464 11.73528275 -65.37099464 11.73528275 -64.19529152 11.3311348 C-43.7891648 4.41068452 -21.60008652 -0.0454499 0 0 Z " fill="#6F22B7" transform="translate(237.52341651916504,-0.13142776489257813)"/>
<path d="M0 0 C0.77182617 0.01788574 1.54365234 0.03577148 2.33886719 0.05419922 C62.63247471 1.62997645 128.76553527 15.91294089 173 59 C174.31871094 60.25876953 174.31871094 60.25876953 175.6640625 61.54296875 C208.35156528 93.27568193 223.26174857 138.08594113 224.3515625 182.83642578 C224.56460387 208.75202056 219.47061311 233.72233631 208 257 C207.44441406 258.12792969 206.88882812 259.25585938 206.31640625 260.41796875 C201.14232302 270.41960307 195.18595596 280.18743853 187 288 C182.67196705 283.67196705 184.81530949 268.90270388 184.8125 263.25 C184.80025391 261.96867187 184.78800781 260.68734375 184.77539062 259.3671875 C184.75286792 244.56226582 187.70045596 231.98104402 192.68652344 218.15942383 C197.73334695 204.07429695 199.35971618 190.80728793 199.375 175.875 C199.39949219 174.60785156 199.42398437 173.34070313 199.44921875 172.03515625 C199.4864732 159.97713185 197.07775866 150.15479315 189 141 C184.79580463 141.49290566 182.95133278 143.76290745 180.1875 146.8125 C179.37667969 147.68519531 178.56585937 148.55789063 177.73046875 149.45703125 C175.76429338 151.78414051 175.76429338 151.78414051 176.14453125 154.140625 C176.88907146 155.75889505 177.68989161 157.35103774 178.5 158.9375 C185.71846442 173.67519819 180.44289694 197.26811933 175.3671875 212.109375 C174.91197665 213.40643202 174.45624416 214.70330608 174 216 C165.37981383 241.1861485 164.10668803 265.64246076 168 292 C168.09651855 292.66612305 168.19303711 293.33224609 168.29248047 294.01855469 C169.44447685 301.78554505 170.87274633 309.47247007 172.52734375 317.1484375 C178.0186193 343.02824072 182.2594356 372.53404886 167.5546875 396.33984375 C158.77058714 408.68817331 145.19511588 413.15527311 131.3125 417.8125 C116.22047631 423.0564228 102.91814038 429.15573259 90.41796875 439.15234375 C88 441 88 441 85.80078125 442.00390625 C83.45032382 443.30405082 83.07727576 444.56956079 82 447 C80.8945968 448.57642476 79.76780561 450.13797537 78.625 451.6875 C71.60800027 461.62217114 68.79637322 471.25812861 68.734375 483.36328125 C68 486 68 486 65.53125 487.7265625 C61.30708978 489.24987692 57.15634223 490.23054518 52.75 491.0625 C51.86014404 491.23241455 50.97028809 491.4023291 50.0534668 491.57739258 C30.47174769 495.20531403 10.85889179 495.60493948 -9 496 C-10.45092041 496.03504639 -10.45092041 496.03504639 -11.93115234 496.07080078 C-36.58959627 496.63980501 -63.55240548 496.28432362 -87 488 C-87.10957031 487.03320312 -87.21914063 486.06640625 -87.33203125 485.0703125 C-89.58265809 466.58955548 -95.25938968 450.44191414 -110.19921875 438.296875 C-124.123143 427.63741146 -139.59475364 421.803928 -156.17773438 416.67578125 C-170.43734613 412.17274596 -181.93333133 406.81504225 -189.39453125 393.375 C-200.14679491 370.7717012 -197.94141299 346.6254681 -193 323 C-191.61811799 316.34218605 -190.25858461 309.68239161 -189 303 C-188.84611816 302.19288574 -188.69223633 301.38577148 -188.53369141 300.55419922 C-186.25058073 288.0970537 -185.69129305 275.7570071 -185.625 263.125 C-185.61714478 262.39336639 -185.60928955 261.66173279 -185.60119629 260.90792847 C-185.45832044 243.8321066 -188.93326847 229.1184742 -194.77148438 213.046875 C-199.03506954 200.88960712 -200.3590736 188.9616752 -200.375 176.125 C-200.39949219 175.0628125 -200.42398438 174.000625 -200.44921875 172.90625 C-200.47472835 166.05267209 -199.41389575 161.92371634 -196 156 C-196 151.79452429 -198.36738124 149.83289639 -201 146.8125 C-201.47695313 146.25369141 -201.95390625 145.69488281 -202.4453125 145.11914062 C-203.62366206 143.74047164 -204.81098952 142.36948528 -206 141 C-211.52319929 143.21882304 -213.50330008 147.8527419 -216 153 C-224.72795705 174.80366966 -218.07569951 204.27567033 -210.31933594 225.35644531 C-202.25144169 247.40757715 -203.31290282 269.01572237 -206 292 C-206.66 292 -207.32 292 -208 292 C-209.64853979 289.86731655 -211.1488064 287.74894933 -212.625 285.5 C-213.0694043 284.82654541 -213.51380859 284.15309082 -213.97167969 283.45922852 C-218.61516992 276.27212276 -222.42015513 268.76126147 -226 261 C-226.54527344 259.82566406 -227.09054687 258.65132813 -227.65234375 257.44140625 C-231.49230924 248.83323933 -234.4874291 240.06908989 -237 231 C-237.21543457 230.22301758 -237.43086914 229.44603516 -237.65283203 228.64550781 C-246.93020318 194.38954872 -248.01048561 159.91355582 -237 126 C-236.78504883 125.33194336 -236.57009766 124.66388672 -236.34863281 123.97558594 C-230.70838083 106.85248911 -222.003149 91.23097715 -211 77 C-210.31808594 76.09507812 -209.63617188 75.19015625 -208.93359375 74.2578125 C-172.16923677 27.23850205 -114.15040842 10.01847121 -57 3 C-38.13298972 0.74774865 -19.00321217 -0.46007777 0 0 Z " fill="#FEFEFE" transform="translate(511,164)"/>
<path d="M0 0 C2.76171875 0.0078125 2.76171875 0.0078125 6 1 C7.64850965 3.69756124 8.72125893 5.95167257 9.8125 8.875 C10.14233887 9.71071533 10.47217773 10.54643066 10.81201172 11.4074707 C11.9146063 14.25837682 12.96424801 17.12415027 14 20 C14.37592285 21.04236816 14.7518457 22.08473633 15.13916016 23.15869141 C21.65378005 41.48123102 27.75465761 60.08347699 30.08984375 79.44921875 C30.18276703 80.18160767 30.27569031 80.91399658 30.37142944 81.6685791 C30.8293004 85.28336549 31.240869 88.89044564 31.56152344 92.52001953 C32.56935796 101.84313466 35.26896322 106.59724912 42.08837891 112.6875 C72.06253993 136.49391063 106.95029262 142.21691557 144.5 142.25 C145.19765472 142.25067474 145.89530945 142.25134949 146.61410522 142.25204468 C179.55413989 142.2017947 214.90571454 134.90592554 239.546875 111.67578125 C244.36592289 106.41933571 246.57650862 102.10293979 247.5 95.0625 C247.74397941 93.4503977 247.98881234 91.8384244 248.234375 90.2265625 C248.35876953 89.37610352 248.48316406 88.52564453 248.61132812 87.64941406 C251.84983287 65.57387798 257.13705181 44.59268217 264.625 23.5625 C264.98489014 22.55074707 265.34478027 21.53899414 265.71557617 20.49658203 C272.02226395 3.2819205 272.02226395 3.2819205 275.96728516 0.72485352 C278 0 278 0 281 0 C279.40540465 4.82352675 277.78345738 9.63335012 276.09765625 14.42578125 C268.54473755 36.11654411 264.18542551 55.22808861 267.27661133 78.17871094 C270.87507962 105.42284305 264.83271857 134.40522509 248.10546875 156.40625 C244.56808074 160.76399701 240.8465365 164.91437348 237 169 C236.44957031 169.61488281 235.89914062 170.22976563 235.33203125 170.86328125 C216.33060674 191.27221868 184.49228023 199.57971069 157.52734375 200.87890625 C148.0193188 201.17434726 138.51035651 201.15506913 129 201 C128.20384277 200.98743164 127.40768555 200.97486328 126.58740234 200.96191406 C98.61281153 200.35363585 69.05185406 193.04093069 48 174 C47.15695312 173.23945312 46.31390625 172.47890625 45.4453125 171.6953125 C32.18584406 159.09675215 20.97498988 142.03418226 17 124 C16.73574219 122.88109375 16.47148437 121.7621875 16.19921875 120.609375 C12.75082724 104.46240431 12.38768564 88.4321865 14.5078125 72.09765625 C17.44915534 48.96016996 10.02368385 25.86624746 1.1015625 4.7734375 C0 2 0 2 0 0 Z " fill="#FDFDFD" transform="translate(360,603)"/>
<path d="M0 0 C3.12125672 0.39809721 6.24342736 0.78836591 9.36572266 1.17822266 C50.75636142 6.40742922 50.75636142 6.40742922 60.95556641 19.21337891 C66.51619297 26.99538979 69.49161265 34.82942972 68.89306641 44.52587891 C67.25958761 53.42251942 64.05916328 61.51703305 60.45556641 69.77587891 C59.73916992 71.45423828 59.73916992 71.45423828 59.00830078 73.16650391 C54.37121106 83.95457546 50.1941433 92.08691037 41.89306641 100.52587891 C41.24080078 101.19103516 40.58853516 101.85619141 39.91650391 102.54150391 C30.17648477 111.76045206 17.75888333 115.05460441 4.61572266 114.83447266 C-5.54545209 113.99215072 -13.4392815 108.62652284 -20.21240234 101.22509766 C-22.12941781 98.92398073 -23.98435643 96.58734788 -25.80566406 94.20996094 C-27.22872678 92.36825613 -28.68422485 90.55498495 -30.14208984 88.74072266 C-45.3979195 69.53989546 -60.26576525 48.93841159 -58.10693359 23.52587891 C-55.89145683 13.47013981 -50.61064863 5.36666588 -42.10693359 -0.47412109 C-29.60106052 -6.642843 -13.23245333 -1.69254713 0 0 Z " fill="#6F22B7" transform="translate(593.10693359375,420.47412109375)"/>
<path d="M0 0 C7.34238979 6.59865634 10.7643414 15.73083185 11.36328125 25.421875 C11.58530191 34.0271578 11.2789344 40.84691342 7.125 48.56640625 C6.57714844 49.68015625 6.02929688 50.79390625 5.46484375 51.94140625 C-2.0914286 67.03196762 -12.16956075 80.57734994 -22.875 93.56640625 C-23.2963623 94.08638184 -23.71772461 94.60635742 -24.15185547 95.14208984 C-30.41097918 102.79919042 -37.75414037 109.79245484 -47.875 111.56640625 C-62.55105866 112.64241536 -74.04951057 109.51296297 -85.875 100.56640625 C-88.7645931 98.06743406 -91.39611824 95.47251011 -93.875 92.56640625 C-94.33237549 92.0353125 -94.78975098 91.50421875 -95.26098633 90.95703125 C-99.8458792 85.29605472 -102.36589312 79.21136776 -104.9375 72.44140625 C-105.36724121 71.32991211 -105.79698242 70.21841797 -106.23974609 69.07324219 C-107.08326877 66.88334599 -107.92136741 64.691351 -108.75341797 62.49707031 C-109.68025367 60.07527323 -110.63916498 57.67380886 -111.62890625 55.27734375 C-115.87158253 44.56791018 -116.59940995 34.85617609 -112.140625 24.0703125 C-106.62866059 13.16546933 -98.03617527 7.05655201 -86.875 2.56640625 C-81.68846905 1.29556674 -76.47762038 0.59321709 -71.1875 -0.05859375 C-69.7074764 -0.25578498 -68.22766127 -0.45454659 -66.74804688 -0.65478516 C-63.6794918 -1.06536734 -60.60955634 -1.46143104 -57.53759766 -1.84570312 C-53.6698853 -2.32968608 -49.80649321 -2.84131092 -45.94364929 -3.36257935 C-42.96796951 -3.76190652 -39.9908231 -4.14918019 -37.01303101 -4.53240967 C-35.60562218 -4.71421429 -34.19856348 -4.89875357 -32.79190063 -5.08624268 C-20.6962628 -6.68249937 -10.09472209 -7.71825627 0 0 Z " fill="#6F22B7" transform="translate(455.875,423.43359375)"/>
<path d="M0 0 C6.21356638 8.26521566 8.01926609 22.52432714 8.0703125 32.55859375 C7.75620917 42.84206953 7.75620917 42.84206953 12.0625 51.75 C13.93281476 53.46125794 13.93281476 53.46125794 16 55 C17.48330649 56.28691051 18.96255333 57.57851663 20.4375 58.875 C21.11683594 59.42929687 21.79617188 59.98359375 22.49609375 60.5546875 C22.99238281 61.03164063 23.48867188 61.50859375 24 62 C24 62.66 24 63.32 24 64 C24.99 64.33 25.98 64.66 27 65 C27 65.66 27 66.32 27 67 C27.99 67.33 28.98 67.66 30 68 C31.56420147 69.71438748 33.05612002 71.4956177 34.5 73.3125 C35.2734375 74.27800781 36.046875 75.24351562 36.84375 76.23828125 C37.5553125 77.14964844 38.266875 78.06101562 39 79 C39.58910156 79.72574219 40.17820312 80.45148438 40.78515625 81.19921875 C42 83 42 83 41.9375 85.5 C40.55093638 89.19750299 38.75787196 91.15667123 35.16796875 92.87890625 C23.78466414 97.38434421 8.56015088 97.96384143 -3.1875 94.5 C-7.99009111 93.08428555 -12.39874473 92.63388414 -17.375 92.5625 C-19.33566406 92.53349609 -19.33566406 92.53349609 -21.3359375 92.50390625 C-32.49577374 93.23249026 -42.78995982 97.97224424 -52.625 102.9375 C-54.38915306 103.80775146 -56.1533322 104.67795365 -57.91885376 105.54542542 C-59.13149645 106.14126957 -60.34355188 106.73831038 -61.55502319 107.33653259 C-67.94231068 110.48417152 -74.40570248 113.46268069 -80.875 116.4375 C-90.50779172 120.8812306 -100.08299236 125.42837413 -109.625 130.0625 C-121.90735346 136.02486521 -134.27041843 141.79585256 -146.68408203 147.47949219 C-152.66993612 150.22429408 -158.64680644 152.98856391 -164.625 155.75 C-166.82548441 156.76570391 -169.0260017 157.78133659 -171.2265625 158.796875 C-172.61222412 159.43641113 -172.61222412 159.43641113 -174.02587891 160.08886719 C-174.67733887 160.38954102 -175.32879883 160.69021484 -176 161 C-177.2374287 156.79899615 -176.6640958 153.18806265 -175.9375 148.9375 C-175.804646 148.1525415 -175.67179199 147.36758301 -175.53491211 146.55883789 C-173.8788428 137.4662159 -171.1937512 128.66507601 -168 120 C-167.7210791 119.20005615 -167.4421582 118.4001123 -167.15478516 117.57592773 C-165.36631894 112.93942591 -163.91948849 110.16190238 -159.18139648 107.9753418 C-158.54403564 107.715354 -157.9066748 107.45536621 -157.25 107.1875 C-155.80767224 106.53327782 -154.3663274 105.87688587 -152.92578125 105.21875 C-152.13896973 104.86941406 -151.3521582 104.52007813 -150.54150391 104.16015625 C-145.76892727 101.98155066 -141.11608608 99.55940103 -136.4375 97.1875 C-124.6989745 91.3011041 -112.86194349 85.63231855 -101 80 C-81.39202703 70.71939614 -81.39202703 70.71939614 -62 61 C-60.90171875 60.44054687 -59.8034375 59.88109375 -58.671875 59.3046875 C-43.86780339 51.30751314 -36.06579001 37.8438001 -30 22.6875 C-25.55038031 11.99405913 -13.08065992 -4.05951515 0 0 Z " fill="#FDFDFD" transform="translate(821,505)"/>
<path d="M0 0 C12.39635876 4.95126224 17.96187168 17.24451724 23.53515625 28.5625 C31.29082688 43.67037398 38.97021419 51.01525403 53.90478516 58.64941406 C56.84091686 60.15520268 59.75675271 61.6961423 62.671875 63.2421875 C86.53590771 75.83472781 110.86083787 87.54612805 135.41577148 98.72680664 C137.50993813 99.6862409 139.59735376 100.66058822 141.67675781 101.65161133 C143.67422617 102.5962406 145.69293004 103.49714891 147.72949219 104.35424805 C153.14365743 106.84676131 156.10377809 108.81350809 158.37890625 114.44140625 C159.01663704 116.48942367 159.60923083 118.55194498 160.16015625 120.625 C160.47927979 121.70040039 160.79840332 122.77580078 161.12719727 123.88378906 C162.01762189 126.93285375 162.84872962 129.99161953 163.66015625 133.0625 C163.96155518 134.14797119 163.96155518 134.14797119 164.26904297 135.25537109 C166.3548417 142.78929998 167.25282255 150.26697565 167.66015625 158.0625 C163.66223714 157.43896714 160.47437719 156.17210171 156.84765625 154.39453125 C155.70578857 153.83870361 154.5639209 153.28287598 153.38745117 152.71020508 C152.14501383 152.09848163 150.90258237 151.48674625 149.66015625 150.875 C148.3535774 150.23724724 147.04668666 149.60013309 145.73950195 148.96362305 C143.03291546 147.64498524 140.32767945 146.32363866 137.62353516 145 C131.70757394 142.10572147 125.77839383 139.23885393 119.84765625 136.375 C118.67807373 135.80998779 117.50849121 135.24497559 116.3034668 134.6628418 C101.64373218 127.58839857 86.93704649 120.61220738 72.22518921 113.6469574 C67.23542641 111.28431002 62.24859444 108.91563521 57.26435852 106.54135132 C54.15371482 105.06068357 51.04102869 103.58434821 47.92782593 102.10906982 C46.47826929 101.42111268 45.02953253 100.73142487 43.58169556 100.03985596 C31.81023417 94.41949006 22.54076222 90.54988518 9.28515625 90.75 C8.22554687 90.74677734 7.1659375 90.74355469 6.07421875 90.74023438 C-0.0372266 90.78142671 -5.69834307 91.40052462 -11.68261719 92.60180664 C-16.04357749 93.35788272 -20.35963805 93.44534819 -24.77734375 93.4375 C-25.68605225 93.43661377 -26.59476074 93.43572754 -27.53100586 93.43481445 C-36.41433215 93.2787999 -44.290804 91.7440586 -51.33984375 86.0625 C-50.97135123 77.21867953 -45.52587212 71.95395559 -39.33984375 66.0625 C-38.06820032 64.77163086 -36.7974464 63.47988516 -35.52734375 62.1875 C-32.22608403 58.87375915 -28.79302674 55.79314617 -25.19921875 52.80078125 C-24.585625 52.22714844 -23.97203125 51.65351562 -23.33984375 51.0625 C-22.623125 50.4128125 -21.90640625 49.763125 -21.16796875 49.09375 C-18.33421494 44.3950471 -18.57090608 39.64398609 -18.33984375 34.25 C-16.78348952 8.9143841 -16.78348952 8.9143841 -9.33984375 -0.9375 C-6.07225498 -2.57129438 -3.35185404 -1.08030979 0 0 Z " fill="#FEFEFE" transform="translate(189.33984375,507.9375)"/>
<path d="M0 0 C5.96473132 1.85872761 11.58679842 4.05181076 17.20703125 6.7734375 C17.96232117 7.1337204 18.71761108 7.4940033 19.49578857 7.86520386 C21.10546336 8.6336607 22.71403399 9.40443415 24.32156372 10.17736816 C28.55843532 12.21443846 32.80339436 14.23455649 37.046875 16.2578125 C37.89419693 16.66245728 38.74151886 17.06710205 39.61451721 17.48400879 C47.24050536 21.12348963 54.89433161 24.70040321 62.5625 28.25 C63.64055908 28.74935059 64.71861816 29.24870117 65.8293457 29.76318359 C68.88541871 31.17721973 71.94269269 32.58863497 75 34 C76.13518066 34.52561523 77.27036133 35.05123047 78.43994141 35.59277344 C79.57737793 36.1190332 80.71481445 36.64529297 81.88671875 37.1875 C82.90854248 37.66058594 83.93036621 38.13367188 84.9831543 38.62109375 C100.89428428 45.89357592 113.63790068 49.20115436 131 45 C144.42742217 41.78427141 157.472757 41.61607342 169.75 49 C172 51 172 51 173.125 52.875 C172.80177667 58.36979657 167.74557726 62.42467626 164 66 C163.42378906 66.59683594 162.84757813 67.19367188 162.25390625 67.80859375 C158.66963416 71.50825488 155.01422197 74.84642631 150.9375 78 C149.28698466 79.32753314 147.64089936 80.66059922 146 82 C145.30003906 82.54398438 144.60007812 83.08796875 143.87890625 83.6484375 C137.46631635 89.54108768 137.68628924 97.4456174 137.16064453 105.60546875 C135.60126857 128.84917606 135.60126857 128.84917606 129.80859375 137.8515625 C128 139 128 139 124.66015625 138.9453125 C120.61186802 137.89975673 118.59026724 136.5826167 115.4375 133.875 C114.54933594 133.12992188 113.66117188 132.38484375 112.74609375 131.6171875 C106.15869411 125.33901145 102.32170342 119.0688595 98.375 110.875 C90.8028473 95.75820795 82.04458446 85.7553829 66.64453125 78.2734375 C65.21918181 77.5707613 63.79422574 76.8672867 62.36962891 76.16308594 C61.64471252 75.80549194 60.91979614 75.44789795 60.1729126 75.07946777 C56.72806292 73.36812227 53.30644044 71.61246358 49.88671875 69.8515625 C49.21872253 69.50777054 48.55072632 69.16397858 47.86248779 68.80976868 C45.80364995 67.74916225 43.7455094 66.68721295 41.6875 65.625 C40.97043884 65.25527069 40.25337769 64.88554138 39.5145874 64.50460815 C29.06055451 59.11391643 18.62709626 53.68651679 8.23291016 48.18115234 C3.93001115 45.90502886 -0.37933219 43.64112988 -4.6875 41.375 C-6.29559651 40.52869066 -7.90367178 39.68234097 -9.51171875 38.8359375 C-11.23841797 37.92714844 -11.23841797 37.92714844 -13 37 C-11.81579134 33.25270957 -10.46362557 29.81268232 -8.6875 26.3125 C-5.82142058 20.18062088 -4.22539981 13.83296561 -2.61206055 7.28637695 C-1.08254608 1.08254608 -1.08254608 1.08254608 0 0 Z " fill="#FEFEFE" transform="translate(645,722)"/>
<path d="M0 0 C2.17566781 2.17566781 2.41382384 2.99137542 3.078125 5.89453125 C3.26665039 6.67948975 3.45517578 7.46444824 3.64941406 8.27319336 C3.84760742 9.11116455 4.04580078 9.94913574 4.25 10.8125 C6.0692834 18.16254383 8.34059023 24.6629709 11.765625 31.43359375 C12.84289766 33.67336633 13.44812576 35.59909214 14 38 C6.51857342 42.68940496 -1.22630622 46.7779598 -9.08908081 50.77661133 C-18.75375195 55.69405766 -28.37321027 60.64650984 -37.7734375 66.05664062 C-41.98810536 68.46965376 -46.26958698 70.67084913 -50.625 72.8125 C-52.64744504 73.82410359 -54.66854107 74.83836498 -56.68945312 75.85302734 C-58.34932954 76.67700234 -60.01549199 77.48835933 -61.68554688 78.29150391 C-74.91082486 84.68973993 -83.84181899 90.09289542 -91 103 C-93.00295476 106.42729356 -95.03406025 109.83774509 -97.0625 113.25 C-97.8217981 114.54369507 -97.8217981 114.54369507 -98.59643555 115.86352539 C-102.44647545 122.33771252 -106.57940655 127.7352347 -112 133 C-112.51433594 133.53753906 -113.02867187 134.07507813 -113.55859375 134.62890625 C-116.65690135 137.85592693 -118.88153519 139.85764993 -123.4375 140.4375 C-127 140 -127 140 -129.125 138.20703125 C-131.91710136 133.43137455 -132.07009298 128.69401316 -132.5625 123.25 C-132.79999813 120.99963994 -133.04089887 118.74963644 -133.28515625 116.5 C-133.40262207 115.3965625 -133.52008789 114.293125 -133.64111328 113.15625 C-134.13304159 108.82995807 -134.76468247 104.54104433 -135.5 100.25 C-135.7165625 98.95578125 -135.933125 97.6615625 -136.15625 96.328125 C-138.3308952 87.75035782 -145.25671875 82.30792341 -151.75 76.75 C-155.43163617 73.57440546 -158.91787465 70.22834624 -162.375 66.8125 C-162.89932617 66.30106445 -163.42365234 65.78962891 -163.96386719 65.26269531 C-168.8338628 60.4054068 -168.8338628 60.4054068 -170 57 C-169.68061051 50.93159977 -169.68061051 50.93159977 -167.82421875 48.390625 C-161.34123648 43.44856571 -149.85992167 43.04270185 -142 44 C-139.32119181 44.63663034 -136.66220817 45.30146673 -134 46 C-121.21147872 49.313193 -107.46388227 49.77512373 -95 45 C-94.34612305 44.75781738 -93.69224609 44.51563477 -93.01855469 44.26611328 C-73.21806338 36.89005906 -54.06119967 27.72978143 -35.24853516 18.13818359 C-32.50958634 16.75175804 -29.76098403 15.38538371 -27.01171875 14.01953125 C-25.94775879 13.49037109 -24.88379883 12.96121094 -23.78759766 12.41601562 C-21.69540694 11.3757803 -19.60266594 10.33665071 -17.50927734 9.29882812 C-11.58481494 6.3459353 -5.75288442 3.27516142 0 0 Z " fill="#FEFEFE" transform="translate(355,721)"/>
<path d="M0 0 C0.99 0.33 1.98 0.66 3 1 C3.11591761 12.10927069 3.20472764 23.2183972 3.25906086 34.3281498 C3.28513998 39.48705044 3.32050755 44.64553693 3.37719727 49.80419922 C3.43157671 54.78386879 3.46143322 59.76314034 3.47438622 64.74308395 C3.48361542 66.6417098 3.50163822 68.54031418 3.52865028 70.43877029 C3.56501995 73.10109551 3.56994212 75.76178221 3.56762695 78.42431641 C3.58560333 79.20690826 3.60357971 79.98950012 3.62210083 80.79580688 C3.58403923 84.84857266 3.1507074 87.31338635 0.58952332 90.53598022 C-2 93 -2 93 -4 93 C-4.25136719 93.58652344 -4.50273437 94.17304687 -4.76171875 94.77734375 C-7.56244192 99.80450931 -13.72621285 104.81330777 -19 107 C-22.19880472 107.69227863 -24.82161792 107.85205304 -28 107 C-34.81760351 101.69905558 -36.3356519 92.72794401 -37.46875 84.6640625 C-39.94040302 58.76787974 -32.95954378 35.23162589 -16.55859375 14.953125 C-13.02188892 10.87106568 -9.1933672 7.38790855 -5 4 C-4.05125 3.154375 -3.1025 2.30875 -2.125 1.4375 C-1.073125 0.7259375 -1.073125 0.7259375 0 0 Z " fill="#6F23B7" transform="translate(493,512)"/>
<path d="M0 0 C17.77125566 8.88562783 29.73490613 27.56827711 36.35253906 45.875 C37.52659473 49.72831089 38.12492867 53.64304377 38.6875 57.625 C38.81342529 58.50019287 38.93935059 59.37538574 39.0690918 60.27709961 C41.10572468 75.32501748 41.52653038 92.71374181 32.125 105.5625 C29.2256321 107.52383711 27.52538968 108 24 108 C16.70456912 105.32500868 11.42491105 100.4658229 6 95 C5.41956436 94.56531906 4.83912872 94.13063812 4.24110413 93.68278503 C0.66991646 90.56247928 -1.11887067 87.67268087 -1.62245178 82.96359253 C-1.92009885 77.78973581 -1.81422596 72.62006182 -1.71875 67.44140625 C-1.70822101 65.52710836 -1.70065698 63.61279206 -1.69592285 61.69847107 C-1.6749485 56.67921969 -1.61108351 51.66137925 -1.53894043 46.64263916 C-1.48695554 42.53069982 -1.46508566 38.41885716 -1.44481659 34.30665684 C-1.40262457 25.83127159 -1.34145624 17.35580745 -1.22460938 8.88110352 C-1.21720734 8.09310364 -1.2098053 7.30510376 -1.20217896 6.4932251 C-1.11556432 1.11556432 -1.11556432 1.11556432 0 0 Z " fill="#6F22B7" transform="translate(506,512)"/>
<path d="M0 0 C9.25415843 3.07914132 16.38990791 11.31638131 20.921875 19.703125 C23.70995058 25.6429382 24.24577745 31.07512709 24.36328125 37.546875 C24.57339844 38.35640625 24.78351563 39.1659375 25 40 C25.82642502 40.43822586 26.65285004 40.87645172 27.50431824 41.32795715 C30 43 30 43 30.60127258 45.37284851 C30.59016953 46.30772598 30.57906647 47.24260345 30.56762695 48.20581055 C30.5672493 49.26668381 30.56687164 50.32755707 30.56648254 51.420578 C30.54067612 52.56440445 30.51486969 53.7082309 30.48828125 54.88671875 C30.48120651 56.05886429 30.47413177 57.23100983 30.46684265 58.43867493 C30.43881479 62.18892772 30.37605598 65.93769713 30.3125 69.6875 C30.2874282 72.22719201 30.2646131 74.76690738 30.24414062 77.30664062 C30.18896039 83.53826804 30.10524887 89.76902807 30 96 C24.80232667 93.45971924 24.80232667 93.45971924 23 91 C22.38477294 88.54815553 21.93234238 86.24320398 21.5703125 83.75390625 C21.45523346 83.03574738 21.34015442 82.3175885 21.22158813 81.57766724 C20.97532705 80.03961666 20.733934 78.50078021 20.49694824 76.96127319 C19.87260864 72.93477456 19.19806593 68.91676856 18.5234375 64.8984375 C18.39159058 64.11093613 18.25974365 63.32343475 18.12390137 62.5120697 C15.01518956 44.12327168 9.10093378 26.71352457 3.06567383 9.11767578 C2.02850321 6.0833874 1.01016614 3.04337226 0 0 Z " fill="#FAFAFA" transform="translate(380,612)"/>
<path d="M0 0 C0.33 0.66 0.66 1.32 1 2 C0.23562062 4.27772725 -0.59681985 6.46478971 -1.5 8.6875 C-9.27797686 28.72817757 -15.25593031 49.73130079 -17.76171875 71.12109375 C-17.87870117 72.10907959 -17.99568359 73.09706543 -18.11621094 74.11499023 C-18.32307726 75.97254293 -18.50660194 77.83291983 -18.66113281 79.69555664 C-19.34689226 86.12485867 -21.47688238 90.33265759 -26 95 C-26.33 95 -26.66 95 -27 95 C-27 76.85 -27 58.7 -27 40 C-25.02 39.01 -23.04 38.02 -21 37 C-20.16579283 34.28042351 -19.72880826 32.15086527 -19.4375 29.375 C-17.89349017 18.81973769 -13.5612603 10.22519722 -5.0625 3.45703125 C-3.40400682 2.26331741 -1.70545491 1.12560024 0 0 Z " fill="#FBFBFB" transform="translate(618,614)"/>
<path d="M0 0 C4.95 0 9.9 0 15 0 C15 10.56 15 21.12 15 32 C2 32 2 32 0 31 C0 20.77 0 10.54 0 0 Z " fill="#FBFBFB" transform="translate(482,668)"/>
<path d="M0 0 C4.62 0 9.24 0 14 0 C14 10.23 14 20.46 14 31 C9.38 31 4.76 31 0 31 C0 20.77 0 10.54 0 0 Z " fill="#FCFCFC" transform="translate(505,668)"/>
<path d="M0 0 C0 8.91 0 17.82 0 27 C-6.01380547 29.5773452 -8.91304181 30.4660563 -15 31 C-15.02465746 26.8882744 -15.04283959 22.77657722 -15.05493164 18.66479492 C-15.0599708 17.26504772 -15.06680216 15.8653058 -15.07543945 14.46557617 C-15.0875232 12.45754223 -15.09269807 10.44947043 -15.09765625 8.44140625 C-15.10289307 7.23170166 -15.10812988 6.02199707 -15.11352539 4.77563477 C-15 2 -15 2 -14 1 C-9.16965754 0.2631681 -4.93772248 0 0 0 Z " fill="#FAFAFB" transform="translate(562,664)"/>
<path d="M0 0 C4.95 0 9.9 0 15 0 C15 9.24 15 18.48 15 28 C7 28 7 28 0 27 C0 18.09 0 9.18 0 0 Z " fill="#FCFCFC" transform="translate(482,708)"/>
<path d="M0 0 C4.29 0 8.58 0 13 0 C13 9.57 13 19.14 13 29 C8.38 29 3.76 29 -1 29 C-1.02291487 25.0306345 -1.04284015 21.0614368 -1.05493164 17.09204102 C-1.05997057 15.74079614 -1.06680177 14.38955674 -1.07543945 13.03833008 C-1.08752419 11.09979566 -1.09269828 9.161222 -1.09765625 7.22265625 C-1.10289307 6.05484619 -1.10812988 4.88703613 -1.11352539 3.68383789 C-1 1 -1 1 0 0 Z " fill="#FBFBFB" transform="translate(506,707)"/>
<path d="M0 0 C0 8.58 0 17.16 0 26 C-5.12066444 28.56033222 -8.60366856 29.79047743 -14 31 C-14.95376567 27.79217914 -15.11621181 24.91812604 -15.09765625 21.578125 C-15.09443359 20.55332031 -15.09121094 19.52851562 -15.08789062 18.47265625 C-15.07951172 17.40917969 -15.07113281 16.34570312 -15.0625 15.25 C-15.05798828 14.17105469 -15.05347656 13.09210937 -15.04882812 11.98046875 C-15.03705727 9.32025617 -15.02061399 6.66015635 -15 4 C-13.58398286 3.51891725 -12.16715563 3.04021859 -10.75 2.5625 C-9.96109375 2.29566406 -9.1721875 2.02882813 -8.359375 1.75390625 C-2.87046632 0 -2.87046632 0 0 0 Z " fill="#F9F9F9" transform="translate(562,700)"/>
<path d="M0 0 C4.62 0.66 9.24 1.32 14 2 C14 11.57 14 21.14 14 31 C6 30 6 30 0 28 C0 18.76 0 9.52 0 0 Z " fill="#FDFDFD" transform="translate(439,664)"/>
<path d="M0 0 C1.81242052 -0.02687279 3.62495233 -0.04633715 5.4375 -0.0625 C6.44683594 -0.07410156 7.45617187 -0.08570313 8.49609375 -0.09765625 C11 0 11 0 12 1 C12.08790975 3.29151417 12.10694038 5.58572524 12.09765625 7.87890625 C12.0962413 8.5655687 12.09482635 9.25223114 12.09336853 9.95970154 C12.08775479 12.16067801 12.07520007 14.36155409 12.0625 16.5625 C12.05748676 18.05143083 12.05292355 19.54036324 12.04882812 21.02929688 C12.03778093 24.68623075 12.02050713 28.34310558 12 32 C10.3954444 31.85851011 8.79136233 31.71164314 7.1875 31.5625 C6.29417969 31.48128906 5.40085937 31.40007813 4.48046875 31.31640625 C2 31 2 31 -1 30 C-1.02945031 26.68751922 -1.04694801 23.37507289 -1.0625 20.0625 C-1.07087891 19.13630859 -1.07925781 18.21011719 -1.08789062 17.25585938 C-1.10837786 11.41699697 -0.75429787 5.79086947 0 0 Z " fill="#F7F7F7" transform="translate(462,667)"/>
<path d="M0 0 C4.62 1.32 9.24 2.64 14 4 C14 12.58 14 21.16 14 30 C5 29 5 29 0 27 C0 18.09 0 9.18 0 0 Z " fill="#FDFDFD" transform="translate(439,700)"/>
<path d="M0 0 C3.96 0 7.92 0 12 0 C12 9.9 12 19.8 12 30 C8.04 30.33 4.08 30.66 0 31 C0 20.77 0 10.54 0 0 Z " fill="#FBFBFB" transform="translate(527,667)"/>
<path d="M0 0 C4.29 0.33 8.58 0.66 13 1 C13 9.91 13 18.82 13 28 C1 27 1 27 0 26 C-0.08748207 24.07332493 -0.10697334 22.14348139 -0.09765625 20.21484375 C-0.09443359 19.04501953 -0.09121094 17.87519531 -0.08789062 16.66992188 C-0.07951172 15.43822266 -0.07113281 14.20652344 -0.0625 12.9375 C-0.05798828 11.70193359 -0.05347656 10.46636719 -0.04882812 9.19335938 C-0.03699618 6.12888587 -0.01906008 3.06443707 0 0 Z " fill="#F7F7F7" transform="translate(461,706)"/>
<path d="M0 0 C0 9.24 0 18.48 0 28 C-3.96 28.66 -7.92 29.32 -12 30 C-12 20.43 -12 10.86 -12 1 C-3 0 -3 0 0 0 Z " fill="#FBFBFB" transform="translate(539,705)"/>
<path d="M0 0 C0.29146369 4.04013515 0.46829657 8.07757429 0.625 12.125 C0.70878906 13.26710938 0.79257812 14.40921875 0.87890625 15.5859375 C0.97785838 18.98989072 0.94060483 21.72199781 0 25 C-3.75624707 28.65797809 -8.09209704 30.36403235 -13 32 C-13 23.42 -13 14.84 -13 6 C-2 0 -2 0 0 0 Z " fill="#FBFBFB" transform="translate(583,691)"/>
<path d="M0 0 C0.66 0.33 1.32 0.66 2 1 C3.63834567 20.86683169 3.63834567 20.86683169 -0.12109375 25.76171875 C-2.75090144 27.27700707 -5.06648573 28.24698768 -8 29 C-8.99 29.33 -9.98 29.66 -11 30 C-11 21.42 -11 12.84 -11 4 C-3 1 -3 1 0 0 Z " fill="#F9F9F9" transform="translate(581,658)"/>
<path d="M0 0 C10 2 10 2 13 3 C13 11.58 13 20.16 13 29 C7 27 7 27 0 23 C0 15.41 0 7.82 0 0 Z " fill="#F7F7F7" transform="translate(418,659)"/>
<path d="M0 0 C5.94 2.475 5.94 2.475 12 5 C12 13.58 12 22.16 12 31 C2.96069869 27.98689956 2.96069869 27.98689956 0 25 C-0.75483241 20.73355592 -0.56220079 16.56521829 -0.375 12.25 C-0.34792969 11.07566406 -0.32085937 9.90132812 -0.29296875 8.69140625 C-0.2222878 5.79348724 -0.11467129 2.89651184 0 0 Z " fill="#FCFCFC" transform="translate(418,691)"/>
</svg>
