<?xml version="1.0" encoding="UTF-8"?>
<svg version="1.1" xmlns="http://www.w3.org/2000/svg" width="1000" height="1000">
<path d="M0 0 C0.92028079 -0.00205263 1.84056158 -0.00410527 2.78872967 -0.0062201 C5.86532811 -0.01186408 8.94188143 -0.01043607 12.01848412 -0.00901413 C14.2496268 -0.01159928 16.48076902 -0.01461285 18.71191061 -0.01801753 C24.83822923 -0.02607356 30.96453612 -0.02787633 37.09085941 -0.028615 C43.02155539 -0.03027767 48.95224598 -0.03659755 54.88293866 -0.04269341 C70.76858606 -0.05873214 86.65423248 -0.06465481 102.53988653 -0.06944216 C110.06187832 -0.0717808 117.58386936 -0.07538381 125.10586056 -0.07913754 C150.87700998 -0.09197278 176.64815898 -0.1026907 202.41931152 -0.10614014 C204.03629222 -0.10636177 205.65327292 -0.10658355 207.27025362 -0.10680549 C208.89104988 -0.10702613 210.51184613 -0.10724661 212.13264239 -0.10746694 C215.38400817 -0.10790948 218.63537395 -0.1083566 221.88673973 -0.10880661 C222.69288588 -0.108916 223.49903203 -0.10902539 224.32960684 -0.1091381 C250.44518981 -0.11276546 276.56074496 -0.12867354 302.67631728 -0.15199697 C330.31544187 -0.17663571 357.95455058 -0.1903149 385.59368646 -0.19150805 C388.6324656 -0.19167949 391.67124474 -0.19189492 394.71002388 -0.19214249 C395.45820536 -0.19219826 396.20638684 -0.19225402 396.97724048 -0.19231148 C408.9791515 -0.19345858 420.98103382 -0.20445167 432.98293517 -0.21902954 C445.0659226 -0.23345115 457.14887353 -0.23659979 469.23186721 -0.22858956 C475.76831808 -0.2245468 482.30469229 -0.22554298 488.84113312 -0.23964691 C494.83987073 -0.25247148 500.83844132 -0.2511139 506.83717899 -0.2390562 C508.99275741 -0.23711389 511.14834801 -0.24010868 513.30390938 -0.24890056 C532.27175137 -0.32128723 550.99873695 1.37585264 569.47658348 5.81892776 C571.08557518 6.20020828 571.08557518 6.20020828 572.72707176 6.58919144 C618.98575729 17.95485318 666.71396508 43.8853318 697.59377098 80.88142776 C699.06500924 82.63958801 700.57929295 84.3617505 702.10939598 86.06892776 C738.35759974 126.70170266 762.72393857 183.94498013 762.60801125 238.76227474 C762.6110902 240.14189413 762.6110902 240.14189413 762.61423135 241.54938462 C762.61986648 244.61814315 762.61844843 247.68685629 762.61702538 250.75561905 C762.61961103 252.98349999 762.62262474 255.21138046 762.62602878 257.4392603 C762.63407878 263.55191801 762.63588724 269.66456395 762.63662624 275.77722633 C762.6382898 281.69613752 762.64461036 287.61504334 762.65070466 293.53395123 C762.66673704 309.38561576 762.67266519 325.2372793 762.6774534 341.08895048 C762.67979253 348.59523269 762.68339557 356.10151414 762.68714878 363.60779576 C762.69998303 389.32690819 762.71070138 415.0460202 762.71415138 440.76513577 C762.71437301 442.37857835 762.7145948 443.99202094 762.71481673 445.60546352 C762.71503737 447.22270114 762.71525785 448.83993877 762.71547818 450.45717639 C762.71592072 453.70137672 762.71636784 456.94557705 762.71681786 460.18977737 C762.71692725 460.99414579 762.71703664 461.79851421 762.71714934 462.62725743 C762.72077704 488.68765556 762.73668689 514.74802582 762.76000822 540.80841329 C762.784647 568.3916884 762.79832613 595.9749476 762.7995193 623.55823404 C762.79969074 626.59081893 762.79990616 629.62340381 762.80015373 632.65598869 C762.8002095 633.40264052 762.80026527 634.14929235 762.80032273 634.91856999 C762.80146977 646.89532058 762.81246229 658.87204241 762.82704079 670.84878332 C762.84146237 682.90588395 762.84461103 694.96294801 762.83660081 707.0200549 C762.83255814 713.54233591 762.83355381 720.06454011 762.84765816 726.58681107 C762.86048315 732.57255594 762.8591248 738.55813343 762.84706745 744.54387835 C762.84512521 746.69471628 762.84811954 748.84556643 762.85691181 750.99638727 C762.92941003 769.95088724 761.22899225 788.66674947 756.78908348 807.13142776 C756.53489647 808.2040889 756.28070946 809.27675003 756.01881981 810.38191605 C746.00506796 851.13827571 725.75985237 887.93939194 697.53127098 918.85408401 C695.7709255 920.80518937 694.08474025 922.7915632 692.41408348 924.81892776 C689.763201 927.93335254 686.83595646 930.55704858 683.71877098 933.19783401 C681.21497107 935.35703429 678.82403243 937.61807809 676.41408348 939.88142776 C631.69633281 980.48931657 570.81771685 1000.49437509 511.12654686 1000.3988533 C508.89292522 1000.40259601 506.65930489 1000.40719999 504.4256866 1000.41258395 C498.32482363 1000.42475306 492.22401575 1000.42456068 486.12314343 1000.4221952 C480.2069607 1000.42182763 474.2907938 1000.43082781 468.37461891 1000.43942097 C454.78817099 1000.45870525 441.20173822 1000.46438716 427.61527821 1000.46553509 C417.11484838 1000.46645645 406.61442443 1000.47058493 396.11399651 1000.47693634 C393.08434511 1000.47873162 390.0546937 1000.48051125 387.0250423 1000.4822861 C385.89504645 1000.48294924 385.89504645 1000.48294924 384.74222241 1000.48362578 C363.56748103 1000.495925 342.3927417 1000.50382787 321.2179966 1000.50293922 C320.42056585 1000.50290807 319.6231351 1000.50287691 318.80153978 1000.50284481 C314.7604497 1000.50267861 310.71935962 1000.50248053 306.67826954 1000.50227539 C305.47455662 1000.50221556 305.47455662 1000.50221556 304.24652627 1000.50215451 C302.6237255 1000.50207364 301.00092473 1000.50199004 299.37812397 1000.50190373 C274.1535965 1000.50067937 248.92912289 1000.51567406 223.70461082 1000.54304886 C195.31814488 1000.57384297 166.93171431 1000.59097687 138.54523063 1000.58912241 C135.51180697 1000.58897317 132.47838331 1000.58887575 129.44495964 1000.58881378 C128.69814078 1000.58879047 127.95132192 1000.58876716 127.18187218 1000.58874315 C115.21944892 1000.58868188 103.25707281 1000.60139507 91.29466352 1000.61867831 C79.24715953 1000.63572303 67.1997237 1000.63754014 55.15221426 1000.62445967 C48.63937809 1000.6177677 42.12667663 1000.61768705 35.61385345 1000.63516617 C-15.13170596 1000.76294466 -15.13170596 1000.76294466 -37.52341652 996.13142776 C-38.29188329 995.97714113 -39.06035007 995.8228545 -39.85210371 995.66389251 C-43.76526767 994.86841355 -47.61337513 993.94969307 -51.46091652 992.88142776 C-52.56677101 992.58260696 -53.6726255 992.28378616 -54.81199074 991.97591019 C-80.10102271 984.94186273 -104.83527718 973.97036671 -126.52341652 959.13142776 C-127.42060402 958.52500443 -127.42060402 958.52500443 -128.33591652 957.90633011 C-141.71791954 948.81074993 -153.74749737 938.19418194 -165.52341652 927.13142776 C-166.17954933 926.51783401 -166.83568214 925.90424026 -167.51169777 925.27205276 C-172.6641471 920.2972741 -177.0657616 914.72479095 -181.52341652 909.13142776 C-182.42410646 908.02176718 -183.32515896 906.9124008 -184.22654152 905.80330276 C-205.88288282 878.95506063 -221.2262621 847.42311814 -230.21091652 814.19392776 C-230.4843589 813.2148848 -230.75780128 812.23584183 -231.0395298 811.22713089 C-231.99070553 807.55116717 -232.7699533 803.85165041 -233.52341652 800.13142776 C-233.68900661 799.33168502 -233.85459669 798.53194227 -234.02520466 797.7079649 C-238.86239017 773.16515035 -238.09753688 748.28506256 -238.04631519 723.38520026 C-238.03811768 717.4782816 -238.04890213 711.57140295 -238.05890466 705.66449364 C-238.07982556 692.85962163 -238.07819928 680.05483009 -238.06658901 667.24995066 C-238.05647931 656.04339651 -238.05392193 644.83687166 -238.05867958 633.63031387 C-238.05898512 632.88351577 -238.05929066 632.13671768 -238.05960546 631.36728933 C-238.06085106 628.33488847 -238.06212468 625.30248763 -238.06344452 622.27008681 C-238.07564791 593.89269882 -238.06463862 565.51536171 -238.04305693 537.13798159 C-238.02407814 511.99205227 -238.0257768 486.84620403 -238.04490089 461.70027542 C-238.06637472 433.37084796 -238.07478204 405.04146536 -238.06245184 376.71203089 C-238.0611692 373.68553449 -238.05991782 370.65903808 -238.05867958 367.63254166 C-238.05836327 366.8874808 -238.05804696 366.14241994 -238.05772107 365.37478149 C-238.05319393 354.18231795 -238.05844951 342.98988712 -238.06859779 331.79742813 C-238.08009388 319.05588431 -238.07705083 306.31443268 -238.05547482 293.57290018 C-238.04484616 287.08429051 -238.04072366 280.59581035 -238.05407143 274.10719872 C-238.18989012 201.99182863 -222.94460013 137.06528324 -173.52341652 82.13142776 C-173.00859718 81.55489456 -172.49377785 80.97836136 -171.96335793 80.38435745 C-166.14548929 73.88722698 -160.24652004 67.70549178 -153.52341652 62.13142776 C-152.62880714 61.33736526 -151.73419777 60.54330276 -150.81247902 59.72517776 C-126.41215796 38.19083844 -97.24983031 22.50159242 -66.52341652 12.13142776 C-65.37099464 11.73528275 -65.37099464 11.73528275 -64.19529152 11.3311348 C-43.7891648 4.41068452 -21.60008652 -0.0454499 0 0 Z " fill="#258D34" transform="translate(237.52341651916504,-0.13142776489257813)"/>
<path d="M0 0 C8.30743957 0.23364674 13.89873285 3.17050275 21 7.3125 C22.09852295 7.94115967 23.1970459 8.56981934 24.32885742 9.2175293 C33.62982196 14.6177603 42.40208562 20.55332753 51 27 C52.10462086 27.81105189 53.21005018 28.62100421 54.31640625 29.4296875 C65.38411514 37.59972038 75.85925146 46.48175856 86.24975586 55.48706055 C87.42752745 56.50514543 88.61076303 57.51693975 89.79907227 58.52270508 C95.480865 63.38563193 100.77219681 68.61963606 106.0456543 73.9152832 C107.5599258 75.43491668 109.0794743 76.94912517 110.59960938 78.46289062 C115.4115179 83.2718535 120.13017312 88.11856888 124.52905273 93.31469727 C126.1116962 95.12797326 127.78187485 96.81524869 129.5 98.5 C133.21442593 102.15638803 136.59999454 106.05356509 140 110 C140.49516113 110.54342041 140.99032227 111.08684082 141.50048828 111.64672852 C146.44392649 117.13345548 150.68926316 122.98459456 154.875 129.0625 C155.58261475 130.08762695 156.29022949 131.11275391 157.01928711 132.16894531 C161.84168646 139.20449635 166.49661042 146.27802195 170.69921875 153.703125 C171.69246578 155.4569666 172.69399712 157.20611914 173.69921875 158.953125 C181.73369722 172.93477414 189.35634966 186.85401746 195 202 C195.43119141 203.13501953 195.43119141 203.13501953 195.87109375 204.29296875 C211.90180899 246.82779986 218.81877319 289.62736852 218 335 C218.83917969 334.18208984 218.83917969 334.18208984 219.6953125 333.34765625 C244.4986792 310.01973098 281.49351694 296.9994839 315.375 296.8125 C316.55835938 296.79832031 317.74171875 296.78414063 318.9609375 296.76953125 C322 297 322 297 325 299 C324.5708943 304.56430509 323.00136139 308.11077445 319.8125 312.5625 C309.02698544 328.43872584 303.15756103 347.34946252 306.6484375 366.5703125 C311.46258242 385.62115949 319.19760565 404.63020892 328.07348633 422.13452148 C336.26848895 438.63465719 341.51102539 457.17162853 345.875 475 C346.06586182 475.76199707 346.25672363 476.52399414 346.45336914 477.30908203 C350.22340599 493.5132368 350.34484601 509.82387831 350.31567383 526.37207031 C350.31252342 530.09730594 350.33601881 533.82173743 350.36132812 537.546875 C350.40152961 552.60850971 349.42278838 567.13634199 347 582 C346.78843614 583.35285572 346.57692368 584.70571948 346.36547852 586.05859375 C341.24192099 617.44662259 330.60520927 646.01718397 309 670 C308.49678223 670.56203125 307.99356445 671.1240625 307.47509766 671.703125 C301.33344815 678.53650858 295.1823413 685.24130135 288 691 C287.01 691.81597656 286.02 692.63195312 285 693.47265625 C276.11236982 700.7035556 266.7286415 706.96388209 257 713 C256.34322266 713.41024414 255.68644531 713.82048828 255.00976562 714.24316406 C222.29682013 734.60192842 185.5729237 745.08632622 147 746 C145.88238281 746.03996094 144.76476562 746.07992187 143.61328125 746.12109375 C132.6684392 746.33325146 121.77237031 745.36622465 110.8671875 744.53515625 C109.15958252 744.40536377 109.15958252 744.40536377 107.41748047 744.27294922 C105.13927218 744.09099202 102.86216372 743.89469603 100.58642578 743.68408203 C93.96236038 743.0937036 87.72936105 742.97826355 81.125 743.75 C80.26479248 743.84071777 79.40458496 743.93143555 78.51831055 744.02490234 C73.51752701 744.58793836 68.7135452 745.45940601 63.8125 746.625 C48.71023754 749.85056537 32.39712825 749.7084155 18 744 C14.08701319 742.77760684 11.01983082 743.22490771 7.02514648 743.97973633 C-39.97884342 752.7169705 -97.19579472 744.65802991 -137.1875 717.75 C-139.46929076 716.18170943 -141.73430799 714.59166894 -144 713 C-144.99644531 712.34515625 -145.99289062 711.6903125 -147.01953125 711.015625 C-150.28721198 708.8057649 -153.40610779 706.44331568 -156.5 704 C-157.10021973 703.52651123 -157.70043945 703.05302246 -158.31884766 702.56518555 C-171.92576077 691.7536557 -184.12081777 680.60858837 -195 667 C-195.64710938 666.23171875 -196.29421875 665.4634375 -196.9609375 664.671875 C-215.94338543 641.89293748 -229.36232446 614.20717914 -238.3125 586.125 C-238.51955566 585.48737732 -238.72661133 584.84975464 -238.93994141 584.19281006 C-242.76256641 572.32502614 -244.94880688 560.28146633 -247 548 C-247.33762926 546.00713096 -247.67544016 544.01429268 -248.01342773 542.02148438 C-249.0442013 535.91252153 -250.05476789 529.80029928 -251.0625 523.6875 C-252.21743645 516.6946649 -253.37547613 509.70237427 -254.54598999 502.71212769 C-254.84169866 500.94564754 -255.13636816 499.17899302 -255.42984009 497.41213989 C-255.82020432 495.07067873 -256.21749691 492.73050967 -256.6171875 490.390625 C-256.83616699 489.09543945 -257.05514648 487.80025391 -257.28076172 486.46582031 C-258.43451805 480.90617169 -259.90676009 475.09323991 -264 471 C-263.625 468.875 -263.625 468.875 -263 467 C-258.19890362 465.39654503 -254.80400864 466.89643474 -250.375 468.8125 C-249.70726562 469.08642578 -249.03953125 469.36035156 -248.3515625 469.64257812 C-245.35120555 470.89372697 -242.71234766 472.19176823 -240 474 C-239.98541748 473.32461182 -239.97083496 472.64922363 -239.95581055 471.95336914 C-239.75086021 463.29693336 -239.41166125 454.64874077 -239 446 C-238.94038086 444.70626465 -238.88076172 443.4125293 -238.81933594 442.07958984 C-237.14467844 409.93344709 -229.67148414 377.32447509 -216.8125 347.75 C-216.43158203 346.86940918 -216.05066406 345.98881836 -215.65820312 345.08154297 C-204.12528427 318.86993756 -189.15146446 294.78209109 -169.59375 273.828125 C-167.44444034 271.48460062 -165.43600303 269.09484809 -163.4375 266.625 C-159.72575353 262.32908036 -155.13927288 259.3719721 -150 257 C-149.01 257 -148.02 257 -147 257 C-147.268125 258.19625 -147.53625 259.3925 -147.8125 260.625 C-147.99167969 261.45386719 -148.17085938 262.28273438 -148.35546875 263.13671875 C-148.80335541 265.12642132 -149.28790465 267.10808182 -149.80078125 269.08203125 C-156.01113548 294.36494254 -149.7155337 317.45747027 -138 340 C-137.87995605 339.33693848 -137.75991211 338.67387695 -137.63623047 337.99072266 C-135.05732825 323.94625893 -132.22643142 310.3155357 -127 297 C-126.56929199 295.90147705 -126.56929199 295.90147705 -126.12988281 294.78076172 C-119.36943498 277.91618509 -109.88942468 263.0979725 -98.84375 248.7421875 C-96.23226173 245.33992103 -93.78935542 241.85752187 -91.375 238.3125 C-87.96002937 233.31663881 -84.37501486 228.50595384 -80.65966797 223.73364258 C-78.04074073 220.36666836 -75.49300423 216.96111252 -73 213.5 C-60.46975806 196.18548387 -60.46975806 196.18548387 -55.5 191.625 C-51.47349017 187.82640582 -48.68241894 183.21991735 -45.68920898 178.60327148 C-43.45139238 175.15632916 -41.18305549 171.86107439 -38.5625 168.6875 C-32.94852115 161.65678592 -28.54858402 153.74015091 -24 146 C-23.64292969 145.40541992 -23.28585937 144.81083984 -22.91796875 144.19824219 C-2.48555378 109.9474908 16.16954766 60.00649372 6.22265625 20.296875 C4.8409827 15.20685788 3.01259666 10.36103368 0.953125 5.50390625 C0 3 0 3 0 0 Z " fill="#FE5022" transform="translate(458,155)"/>
<path d="M0 0 C0 3 0 3 -1.3125 4.625 C-7.16847743 12.86674601 -7.00059509 23.286078 -6 33 C-5.09198518 37.54495589 -3.74040805 41.70969177 -2 46 C-1.52626953 47.21816406 -1.52626953 47.21816406 -1.04296875 48.4609375 C4.24184487 60.37650979 13.6839434 70.96655774 22.55078125 80.375 C24.41074773 82.3684569 26.17753821 84.38210196 27.94140625 86.45703125 C33.5058522 92.84531205 39.61679454 98.72163961 45.625 104.6875 C46.85179732 105.90926946 48.07836153 107.13127305 49.3046875 108.35351562 C51.55666986 110.59739624 53.80998637 112.83991744 56.06494141 115.08081055 C56.80624802 115.81872581 56.80624802 115.81872581 57.56253052 116.57154846 C58.94925167 117.94957004 60.34074923 119.32277993 61.73242188 120.69580078 C64.35184274 123.35752495 66.62728163 126.21422418 68.875 129.1875 C69.30989746 129.75919922 69.74479492 130.33089844 70.19287109 130.91992188 C77.02249449 139.94541163 83.26773616 149.23476002 89 159 C89.91652344 160.48113281 89.91652344 160.48113281 90.8515625 161.9921875 C101.40170414 180.62922186 102.89666788 203.53990176 103.7980957 224.49584961 C103.98220289 226.77926852 104.36748508 228.80374081 105 231 C106.63370402 227.00350092 108.25537175 223.00222187 109.875 219 C110.56529297 217.31197266 110.56529297 217.31197266 111.26953125 215.58984375 C113.61778777 209.77025151 115.69044226 204.14137423 117 198 C117.99 198 118.98 198 120 198 C121.39845011 201.64489657 122.71560537 205.31339289 124 209 C124.34675781 209.99128906 124.69351562 210.98257813 125.05078125 212.00390625 C133.73062006 239.31691254 133.64310217 272.07133308 128 300 C127.78174561 301.24499268 127.78174561 301.24499268 127.55908203 302.51513672 C125.0176815 316.69588277 119.45264896 329.20029694 113.1875 342.0625 C112.61489944 343.24199219 112.61489944 343.24199219 112.0307312 344.4453125 C93.58835294 382.15879603 68.42138782 410.02516843 28 424 C19.88953159 426.49250141 11.69889423 427.20489369 3.265625 427.68359375 C-0.18890414 428.01830291 -3.37745612 428.74961106 -6.75 429.5625 C-23.70804376 433.12333663 -43.06752847 433.46045022 -58.04296875 423.9140625 C-60.71444064 422.66630916 -63.34645435 422.31484354 -66.25 421.8125 C-89.83292473 417.14609149 -111.164924 400.38620158 -126 382 C-127.06541016 380.74316406 -127.06541016 380.74316406 -128.15234375 379.4609375 C-144.99150374 358.77360643 -156.31332931 334.36433129 -164 309 C-164.31001953 307.9790625 -164.62003906 306.958125 -164.93945312 305.90625 C-169.57128682 290.3843761 -172.58022427 275.13331098 -174 259 C-174.0928125 258.00323242 -174.185625 257.00646484 -174.28125 255.97949219 C-175.03132 247.28135902 -175.24047034 238.60069989 -175.25 229.875 C-175.25200912 228.78046509 -175.25200912 228.78046509 -175.25405884 227.66381836 C-175.24993571 217.20982855 -174.8030742 206.90209073 -173.6875 196.5 C-173.56987305 195.36159668 -173.45224609 194.22319336 -173.33105469 193.05029297 C-172.61676537 187.16882377 -172.61676537 187.16882377 -172 185 C-169 183 -169 183 -166.65625 183.19140625 C-156.83070933 186.18241642 -148.55165099 193.47108534 -140.60351562 199.75244141 C-136.49057223 202.95237148 -132.23352577 205.96272099 -128 209 C-128.10828125 207.65035156 -128.10828125 207.65035156 -128.21875 206.2734375 C-131.49842362 160.81351704 -126.08300044 109.57043879 -95.32763672 73.55566406 C-93.93744187 71.92669724 -92.58029646 70.27334921 -91.22265625 68.6171875 C-79.36866735 54.37370552 -66.08618222 41.03214746 -52 29 C-50.98995191 28.11173746 -49.98077223 27.222486 -48.97265625 26.33203125 C-37.18904904 16.13011628 -24.9737101 5.96602843 -10 1 C-6.52674819 -0.1577506 -3.63932552 -0.06866652 0 0 Z " fill="#FEBD55" transform="translate(529,472)"/>
<path d="M0 0 C3.42372603 0.68264783 6.15144449 2.01030943 9.21875 3.66015625 C10.22768311 4.20244873 11.23661621 4.74474121 12.27612305 5.3034668 C13.87194214 6.17418823 13.87194214 6.17418823 15.5 7.0625 C16.58772705 7.65522705 17.6754541 8.2479541 18.79614258 8.85864258 C26.14329064 12.89899532 33.24079804 17.02267897 40 22 C40.52062012 22.38220703 41.04124023 22.76441406 41.57763672 23.15820312 C49.08283899 28.70199316 56.24055631 34.55967168 63 41 C63.57540527 41.54817383 64.15081055 42.09634766 64.74365234 42.66113281 C82.72014044 59.90038552 95.7082449 79.89137669 107 102 C107.46921875 102.85335937 107.9384375 103.70671875 108.421875 104.5859375 C112.03724148 111.30337769 114.20160254 118.39356158 116.32324219 125.68408203 C117.03681436 128.12598162 117.77194922 130.56082576 118.5078125 132.99609375 C122.67616074 146.96884826 125.71041106 160.98886962 128.0390625 175.37890625 C130.5414346 190.43784352 134.43650481 204.1824895 140 218.39306641 C140.84930314 220.6071433 141.63724992 222.82119916 142.375 225.07421875 C147.14735593 239.60670537 154.77107106 255.32218413 166 266 C166.515625 264.865625 167.03125 263.73125 167.5625 262.5625 C174.54669072 248.85903614 186.10027538 240.68017401 199.5 233.875 C200.26546143 233.48441406 201.03092285 233.09382812 201.81958008 232.69140625 C205.66173125 230.82525489 208.62049871 229.46125183 213 230 C212.67 232.31 212.34 234.62 212 237 C211.34 237 210.68 237 210 237 C208.57551677 262.27127174 213.03422602 284.97034731 221.22607422 308.78686523 C231.89271103 341.26946912 238.65992081 378.76580442 238.03710938 412.94628906 C238.00596779 414.66973017 237.9930151 416.39348671 237.984375 418.1171875 C236.92733024 444.7698162 221.44679174 473.86844786 205.27441406 494.38330078 C204.12191361 495.84534254 202.993079 497.32596374 201.8671875 498.80859375 C175.33355113 532.75752394 133.75284171 557.23938497 91 564 C89.33378756 564.03890881 87.66587684 564.05130418 86 564 C88.21520719 561.78479281 90.32880146 560.98612694 93.20458984 559.84423828 C106.55867369 554.49579933 116.63095706 545.88246973 127 536 C127.5377002 535.48856445 128.07540039 534.97712891 128.62939453 534.45019531 C142.69272635 520.77718955 151.50521657 503.44586434 160 486 C160.48162598 485.0291748 160.96325195 484.05834961 161.45947266 483.05810547 C167.74516563 470.32711757 172.32726151 457.95302301 175 444 C175.16081055 443.20932129 175.32162109 442.41864258 175.48730469 441.60400391 C181.04946577 413.45488146 180.35589783 380.21378217 171 353 C170.69578125 352.08605469 170.3915625 351.17210937 170.078125 350.23046875 C169.80484375 349.41191406 169.5315625 348.59335937 169.25 347.75 C168 344 168 344 168 342 C167.01 342 166.02 342 165 342 C164.93683594 343.05445313 164.87367188 344.10890625 164.80859375 345.1953125 C164.02422382 351.45097284 161.44577922 357.08560363 159.0625 362.875 C158.60681641 364.01453125 158.15113281 365.1540625 157.68164062 366.328125 C154.27671547 374.72328453 154.27671547 374.72328453 152 377 C151.30107458 373.13403544 150.84645586 369.38050336 150.67578125 365.45703125 C149.35420782 340.14514888 145.40252907 317.79098254 132 296 C131.46221924 295.1030542 131.46221924 295.1030542 130.91357422 294.18798828 C126.18639923 286.36589156 120.40155302 279.31852564 114.63671875 272.25 C109 265.31128417 109 265.31128417 109 263 C108.40766068 262.73265045 107.81532135 262.4653009 107.20503235 262.18984985 C104.96720921 260.98230587 103.50825032 259.75590398 101.71948242 257.96240234 C101.10171432 257.34771088 100.48394623 256.73301941 99.84745789 256.09970093 C99.19010147 255.435159 98.53274506 254.77061707 97.85546875 254.0859375 C97.16745682 253.39746735 96.47944489 252.70899719 95.77058411 251.99966431 C94.31497932 250.54104017 92.86180403 249.07998809 91.41088867 247.61669922 C89.21121696 245.39891228 87.00379113 243.18909123 84.79492188 240.98046875 C83.37713428 239.55775978 81.95980219 238.13459669 80.54296875 236.7109375 C79.89168503 236.05854095 79.24040131 235.40614441 78.56938171 234.73397827 C59.97949153 215.95499991 40.81000125 194.23275779 40.67651367 166.60083008 C40.8007348 158.38549629 42.82909208 151.47474716 48 145 C36.06753497 143.61250407 25.16848806 151.2654147 16 158 C14.9378125 158.77601563 13.875625 159.55203125 12.78125 160.3515625 C6.10101494 165.32164942 -0.11880917 170.67552315 -6.1875 176.37109375 C-8.64932722 178.67221836 -11.15394389 180.90385875 -13.6875 183.125 C-24.96053329 193.26708173 -35.74218585 203.97732806 -45 216 C-45.78246094 216.93070313 -46.56492187 217.86140625 -47.37109375 218.8203125 C-78.05040572 256.24811587 -82.44798724 307.57531467 -79 354 C-84.47139615 350.4404143 -89.77814564 346.72674196 -94.98974609 342.79711914 C-105.76631528 334.13349521 -105.76631528 334.13349521 -118 328 C-119.67498069 328.28866689 -121.34390829 328.61757468 -123 329 C-128.34844186 366.65720323 -128.21195069 406.15463396 -118 443 C-117.61303955 444.41418213 -117.61303955 444.41418213 -117.21826172 445.85693359 C-108.50373444 477.21567239 -94.52415223 507.1456813 -72 531 C-70.97172519 532.2229482 -69.95017386 533.45160233 -68.9375 534.6875 C-57.51049463 547.96753327 -41.79017556 556.08092674 -26 563 C-26 563.33 -26 563.66 -26 564 C-51.98098276 565.18394352 -73.94127789 556.02865667 -97.0625 545 C-97.66929596 544.71312317 -98.27609192 544.42624634 -98.90127563 544.13067627 C-122.67092784 532.83752118 -141.11329817 516.47876041 -156 495 C-156.64001953 494.09507812 -156.64001953 494.09507812 -157.29296875 493.171875 C-168.05923419 477.93346854 -176.47882287 461.46743873 -183 444 C-183.25201172 443.33307129 -183.50402344 442.66614258 -183.76367188 441.97900391 C-201.42561418 394.48672917 -205.40089783 342.74753091 -197 293 C-196.85578613 292.12682129 -196.71157227 291.25364258 -196.56298828 290.35400391 C-193.41848294 272.13111902 -187.09322828 253.88700556 -179.25 237.1875 C-178.89784424 236.43605713 -178.54568848 235.68461426 -178.18286133 234.91040039 C-175.95648474 230.38724177 -173.52734273 226.6240602 -170 223 C-169.01 223 -168.02 223 -167 223 C-166.731875 224.258125 -166.46375 225.51625 -166.1875 226.8125 C-161.08073407 249.6082434 -151.34267341 267.22048487 -132 281 C-132.0721875 280.41476562 -132.144375 279.82953125 -132.21875 279.2265625 C-135.15528517 252.06361221 -130.74066151 226.43713554 -118.88867188 201.87255859 C-118.14978905 200.31562692 -117.46602702 198.73268101 -116.796875 197.14453125 C-113.47722552 189.55145239 -107.92535519 183.79989309 -102.47070312 177.68115234 C-100.39727199 175.31102506 -98.45298258 172.84473892 -96.5 170.375 C-93.17398025 166.2823659 -89.65972863 162.47807384 -85.9375 158.75 C-85.23173828 158.04302979 -85.23173828 158.04302979 -84.51171875 157.32177734 C-81.89097901 154.74153667 -79.19303736 152.28895206 -76.40136719 149.89477539 C-68.65298918 143.13117488 -61.45889272 135.76252848 -54.16625977 128.51635742 C-52.27953743 126.64286561 -50.3848746 124.77862098 -48.4855957 122.91772461 C-23.88883415 98.81354078 1.6957959 67.09604446 2.71240234 30.7746582 C2.67277281 26.16014916 2.41926736 21.59486282 2 17 C1.92217285 16.12907715 1.8443457 15.2581543 1.76416016 14.36083984 C1.30601303 9.55166673 0.7181524 4.77699585 0 0 Z " fill="#FE9435" transform="translate(481,328)"/>
<path d="M0 0 C12.04195573 -0.8160964 23.53796651 8.92011673 32.22802734 16.42285156 C55.50338495 37.13913843 70.72990544 61.44213069 73 93 C73.95606413 118.13180761 73.95606413 118.13180761 72 124 C71.96045766 126.33299825 71.95598268 128.66708189 72 131 C72.65484375 130.49210938 73.3096875 129.98421875 73.984375 129.4609375 C85.79837253 120.55038004 96.9684258 114.37368441 112 115 C111.62488281 115.43570313 111.24976563 115.87140625 110.86328125 116.3203125 C110.35152344 116.91585937 109.83976563 117.51140625 109.3125 118.125 C108.81363281 118.70507812 108.31476563 119.28515625 107.80078125 119.8828125 C107.20652344 120.58148437 106.61226562 121.28015625 106 122 C105.16210938 122.92683594 104.32421875 123.85367188 103.4609375 124.80859375 C93.52039278 136.83547192 94.51357117 156.75574683 93.76953125 171.46484375 C92.63655542 193.2051536 87.59436136 215.72238054 72 232 C71.34 232 70.68 232 70 232 C70 232.66 70 233.32 70 234 C49.81959421 252.59085328 25.62214584 258.18836744 -1.18701172 257.17333984 C-20.28354596 255.9965876 -37.77320004 241.3462456 -50.10546875 227.6640625 C-51.86861015 225.50781452 -53.45339505 223.31600185 -55 221 C-55.59296875 220.12214844 -56.1859375 219.24429688 -56.796875 218.33984375 C-61.80489396 210.38907861 -64.852636 202.12049194 -67 193 C-67.18618896 192.22446777 -67.37237793 191.44893555 -67.56420898 190.64990234 C-69.56005062 180.80565704 -69.40777204 170.79791744 -69.42553711 160.79541016 C-69.43734464 157.66617425 -69.48656506 154.53897289 -69.53710938 151.41015625 C-69.63428358 139.03989158 -68.34227082 127.88609301 -65.17602539 115.92333984 C-64.05035509 111.62872423 -63.5791488 107.45560328 -63.32493591 103.02822876 C-63 101 -63 101 -61 99 C-53.08944347 99.7697643 -46.75131852 109.34978338 -42 115 C-40.73342742 116.48281668 -39.46268307 117.96208157 -38.1875 119.4375 C-37.62417969 120.09621094 -37.06085938 120.75492188 -36.48046875 121.43359375 C-35.06530792 123.11019986 -35.06530792 123.11019986 -33 124 C-32.63068359 123.17242188 -32.63068359 123.17242188 -32.25390625 122.328125 C-30.75097799 119.53764137 -28.90563609 117.23533588 -26.9375 114.75 C-6.05089297 87.36684717 5.72015518 48.27388992 1.27807617 13.94091797 C1.015685 12.05050358 0.72740428 10.1637348 0.4375 8.27734375 C0.06144425 5.46028324 -0.08573751 2.83469648 0 0 Z " fill="#FEFEFE" transform="translate(493,646)"/>
<path d="M0 0 C1.32 0 2.64 0 4 0 C5.91123419 1.98145526 7.49615198 3.86584729 9.125 6.0625 C9.60437012 6.69373779 10.08374023 7.32497559 10.57763672 7.9753418 C31.19720251 35.43984401 48.7836876 68.23165887 44.28149414 103.62963867 C41.8933801 120.08542233 37.27630102 135.75366978 27 149 C25.70636185 150.81109341 24.41470757 152.62360545 23.125 154.4375 C20.58813838 157.9027239 17.98646448 161.30681493 15.3347168 164.68481445 C7.03905354 175.2983602 -0.10856146 185.62086517 -4.44213867 198.49121094 C-5.19921875 200.578125 -5.19921875 200.578125 -7 204 C-10.20703125 205.484375 -10.20703125 205.484375 -13 206 C-22.30165347 197.27969987 -29.04817789 186.64389394 -35.78271484 175.91943359 C-36.79551692 174.32243201 -37.84104196 172.74624055 -38.89453125 171.17578125 C-46.51276519 159.50734699 -48.87223412 145.7023183 -47 132 C-45.78358532 126.3579947 -43.42441455 121.20977033 -41 116 C-40.60312988 115.12682129 -40.20625977 114.25364258 -39.79736328 113.35400391 C-34.17036095 101.02303051 -27.95836136 89.11104529 -21.30322266 77.31152344 C-20.87315918 76.5487207 -20.4430957 75.78591797 -20 75 C-19.29496338 73.75138184 -19.29496338 73.75138184 -18.57568359 72.47753906 C-11.94605122 60.6362362 -6.73416666 49.33570594 -4 36 C-3.82758789 35.17363037 -3.65517578 34.34726074 -3.47753906 33.49584961 C-2.06647913 26.29774857 -1.39748974 19.12307365 -0.875 11.8125 C-0.78863281 10.66974609 -0.70226562 9.52699219 -0.61328125 8.34960938 C-0.40369333 5.56674754 -0.19935585 2.78361028 0 0 Z " fill="#FE4F22" transform="translate(290,170)"/>
<path d="M0 0 C9.74332651 1.47536143 18.86064907 13.50735999 25.5 20.1875 C26.41128662 21.10152588 27.32257324 22.01555176 28.26147461 22.95727539 C35.1050792 29.90719077 41.36440805 37.03317647 47 45 C47.77214844 45.90878906 48.54429687 46.81757813 49.33984375 47.75390625 C52.04971992 53.05251119 50.99470438 57.84073099 49.24853516 63.38671875 C48.33580709 65.79112539 47.34189739 68.14329666 46.3125 70.5 C45.58094524 72.25888639 44.85314697 74.01933937 44.12890625 75.78125 C43.76812988 76.65652344 43.40735352 77.53179687 43.03564453 78.43359375 C35.93520901 96.0290153 32.36206125 114.22782898 30 133 C20.20120742 131.19437979 13.67604833 121.37982 8 114 C7.18402344 112.97519531 6.36804688 111.95039063 5.52734375 110.89453125 C3.38816666 108.20248204 1.33037964 105.45809709 -0.7109375 102.69140625 C-2.03587885 100.95292259 -3.43287043 99.29415534 -4.84375 97.625 C-7.60206194 94.17538551 -9.53679836 91.20558263 -11 87 C-10.19886121 81.83421548 -8.27105014 77.66396585 -5.95751953 73.01464844 C-4.45319957 69.84951628 -3.35614648 66.59109209 -2.3125 63.25 C-2.10971436 62.60119873 -1.90692871 61.95239746 -1.69799805 61.28393555 C3.55858143 43.53033864 4.54420074 25.43325869 0.65625 7.36328125 C0 4 0 4 0 0 Z " fill="#FD4F22" transform="translate(711,305)"/>
<path d="M0 0 C-0.2165625 1.06476563 -0.433125 2.12953125 -0.65625 3.2265625 C-4.76784247 24.26738091 -3.3269857 41.38236986 8.625 59.5625 C12.74626533 65.98337728 15.74002801 71.2946966 14.4375 79.0625 C11.74020221 89.51452893 5.41324091 99.68610622 -3.0390625 106.421875 C-6 108 -6 108 -8.17578125 107.96484375 C-10.40511742 106.78573019 -11.5931638 105.51900639 -13.1875 103.5625 C-15.81239669 100.40703908 -18.50832456 97.37239601 -21.3125 94.375 C-33.88210942 80.36825094 -43.41294727 65.9391431 -43.2109375 46.56640625 C-42.5701951 35.7331135 -37.27018108 25.95176056 -30 18 C-28.01739574 16.31267723 -26.0167658 14.64633943 -24 13 C-23.175 12.154375 -22.35 11.30875 -21.5 10.4375 C-15.98217188 5.05761759 -7.94188241 0 0 0 Z " fill="#FD4F22" transform="translate(394,109)"/>
</svg>
