<?xml version="1.0" encoding="UTF-8"?>
<svg version="1.1" xmlns="http://www.w3.org/2000/svg" width="1000" height="1000">
<path d="M0 0 C0.92028079 -0.00205263 1.84056158 -0.00410527 2.78872967 -0.0062201 C5.86532811 -0.01186408 8.94188143 -0.01043607 12.01848412 -0.00901413 C14.2496268 -0.01159928 16.48076902 -0.01461285 18.71191061 -0.01801753 C24.83822923 -0.02607356 30.96453612 -0.02787633 37.09085941 -0.028615 C43.02155539 -0.03027767 48.95224598 -0.03659755 54.88293866 -0.04269341 C70.76858606 -0.05873214 86.65423248 -0.06465481 102.53988653 -0.06944216 C110.06187832 -0.0717808 117.58386936 -0.07538381 125.10586056 -0.07913754 C150.87700998 -0.09197278 176.64815898 -0.1026907 202.41931152 -0.10614014 C204.03629222 -0.10636177 205.65327292 -0.10658355 207.27025362 -0.10680549 C208.89104988 -0.10702613 210.51184613 -0.10724661 212.13264239 -0.10746694 C215.38400817 -0.10790948 218.63537395 -0.1083566 221.88673973 -0.10880661 C222.69288588 -0.108916 223.49903203 -0.10902539 224.32960684 -0.1091381 C250.44518981 -0.11276546 276.56074496 -0.12867354 302.67631728 -0.15199697 C330.31544187 -0.17663571 357.95455058 -0.1903149 385.59368646 -0.19150805 C388.6324656 -0.19167949 391.67124474 -0.19189492 394.71002388 -0.19214249 C395.45820536 -0.19219826 396.20638684 -0.19225402 396.97724048 -0.19231148 C408.9791515 -0.19345858 420.98103382 -0.20445167 432.98293517 -0.21902954 C445.0659226 -0.23345115 457.14887353 -0.23659979 469.23186721 -0.22858956 C475.76831808 -0.2245468 482.30469229 -0.22554298 488.84113312 -0.23964691 C494.83987073 -0.25247148 500.83844132 -0.2511139 506.83717899 -0.2390562 C508.99275741 -0.23711389 511.14834801 -0.24010868 513.30390938 -0.24890056 C532.27175137 -0.32128723 550.99873695 1.37585264 569.47658348 5.81892776 C571.08557518 6.20020828 571.08557518 6.20020828 572.72707176 6.58919144 C618.98575729 17.95485318 666.71396508 43.8853318 697.59377098 80.88142776 C699.06500924 82.63958801 700.57929295 84.3617505 702.10939598 86.06892776 C738.35759974 126.70170266 762.72393857 183.94498013 762.60801125 238.76227474 C762.6110902 240.14189413 762.6110902 240.14189413 762.61423135 241.54938462 C762.61986648 244.61814315 762.61844843 247.68685629 762.61702538 250.75561905 C762.61961103 252.98349999 762.62262474 255.21138046 762.62602878 257.4392603 C762.63407878 263.55191801 762.63588724 269.66456395 762.63662624 275.77722633 C762.6382898 281.69613752 762.64461036 287.61504334 762.65070466 293.53395123 C762.66673704 309.38561576 762.67266519 325.2372793 762.6774534 341.08895048 C762.67979253 348.59523269 762.68339557 356.10151414 762.68714878 363.60779576 C762.69998303 389.32690819 762.71070138 415.0460202 762.71415138 440.76513577 C762.71437301 442.37857835 762.7145948 443.99202094 762.71481673 445.60546352 C762.71503737 447.22270114 762.71525785 448.83993877 762.71547818 450.45717639 C762.71592072 453.70137672 762.71636784 456.94557705 762.71681786 460.18977737 C762.71692725 460.99414579 762.71703664 461.79851421 762.71714934 462.62725743 C762.72077704 488.68765556 762.73668689 514.74802582 762.76000822 540.80841329 C762.784647 568.3916884 762.79832613 595.9749476 762.7995193 623.55823404 C762.79969074 626.59081893 762.79990616 629.62340381 762.80015373 632.65598869 C762.8002095 633.40264052 762.80026527 634.14929235 762.80032273 634.91856999 C762.80146977 646.89532058 762.81246229 658.87204241 762.82704079 670.84878332 C762.84146237 682.90588395 762.84461103 694.96294801 762.83660081 707.0200549 C762.83255814 713.54233591 762.83355381 720.06454011 762.84765816 726.58681107 C762.86048315 732.57255594 762.8591248 738.55813343 762.84706745 744.54387835 C762.84512521 746.69471628 762.84811954 748.84556643 762.85691181 750.99638727 C762.92941003 769.95088724 761.22899225 788.66674947 756.78908348 807.13142776 C756.53489647 808.2040889 756.28070946 809.27675003 756.01881981 810.38191605 C746.00506796 851.13827571 725.75985237 887.93939194 697.53127098 918.85408401 C695.7709255 920.80518937 694.08474025 922.7915632 692.41408348 924.81892776 C689.763201 927.93335254 686.83595646 930.55704858 683.71877098 933.19783401 C681.21497107 935.35703429 678.82403243 937.61807809 676.41408348 939.88142776 C631.69633281 980.48931657 570.81771685 1000.49437509 511.12654686 1000.3988533 C508.89292522 1000.40259601 506.65930489 1000.40719999 504.4256866 1000.41258395 C498.32482363 1000.42475306 492.22401575 1000.42456068 486.12314343 1000.4221952 C480.2069607 1000.42182763 474.2907938 1000.43082781 468.37461891 1000.43942097 C454.78817099 1000.45870525 441.20173822 1000.46438716 427.61527821 1000.46553509 C417.11484838 1000.46645645 406.61442443 1000.47058493 396.11399651 1000.47693634 C393.08434511 1000.47873162 390.0546937 1000.48051125 387.0250423 1000.4822861 C385.89504645 1000.48294924 385.89504645 1000.48294924 384.74222241 1000.48362578 C363.56748103 1000.495925 342.3927417 1000.50382787 321.2179966 1000.50293922 C320.42056585 1000.50290807 319.6231351 1000.50287691 318.80153978 1000.50284481 C314.7604497 1000.50267861 310.71935962 1000.50248053 306.67826954 1000.50227539 C305.47455662 1000.50221556 305.47455662 1000.50221556 304.24652627 1000.50215451 C302.6237255 1000.50207364 301.00092473 1000.50199004 299.37812397 1000.50190373 C274.1535965 1000.50067937 248.92912289 1000.51567406 223.70461082 1000.54304886 C195.31814488 1000.57384297 166.93171431 1000.59097687 138.54523063 1000.58912241 C135.51180697 1000.58897317 132.47838331 1000.58887575 129.44495964 1000.58881378 C128.69814078 1000.58879047 127.95132192 1000.58876716 127.18187218 1000.58874315 C115.21944892 1000.58868188 103.25707281 1000.60139507 91.29466352 1000.61867831 C79.24715953 1000.63572303 67.1997237 1000.63754014 55.15221426 1000.62445967 C48.63937809 1000.6177677 42.12667663 1000.61768705 35.61385345 1000.63516617 C-15.13170596 1000.76294466 -15.13170596 1000.76294466 -37.52341652 996.13142776 C-38.29188329 995.97714113 -39.06035007 995.8228545 -39.85210371 995.66389251 C-43.76526767 994.86841355 -47.61337513 993.94969307 -51.46091652 992.88142776 C-52.56677101 992.58260696 -53.6726255 992.28378616 -54.81199074 991.97591019 C-80.10102271 984.94186273 -104.83527718 973.97036671 -126.52341652 959.13142776 C-127.42060402 958.52500443 -127.42060402 958.52500443 -128.33591652 957.90633011 C-141.71791954 948.81074993 -153.74749737 938.19418194 -165.52341652 927.13142776 C-166.17954933 926.51783401 -166.83568214 925.90424026 -167.51169777 925.27205276 C-172.6641471 920.2972741 -177.0657616 914.72479095 -181.52341652 909.13142776 C-182.42410646 908.02176718 -183.32515896 906.9124008 -184.22654152 905.80330276 C-205.88288282 878.95506063 -221.2262621 847.42311814 -230.21091652 814.19392776 C-230.4843589 813.2148848 -230.75780128 812.23584183 -231.0395298 811.22713089 C-231.99070553 807.55116717 -232.7699533 803.85165041 -233.52341652 800.13142776 C-233.68900661 799.33168502 -233.85459669 798.53194227 -234.02520466 797.7079649 C-238.86239017 773.16515035 -238.09753688 748.28506256 -238.04631519 723.38520026 C-238.03811768 717.4782816 -238.04890213 711.57140295 -238.05890466 705.66449364 C-238.07982556 692.85962163 -238.07819928 680.05483009 -238.06658901 667.24995066 C-238.05647931 656.04339651 -238.05392193 644.83687166 -238.05867958 633.63031387 C-238.05898512 632.88351577 -238.05929066 632.13671768 -238.05960546 631.36728933 C-238.06085106 628.33488847 -238.06212468 625.30248763 -238.06344452 622.27008681 C-238.07564791 593.89269882 -238.06463862 565.51536171 -238.04305693 537.13798159 C-238.02407814 511.99205227 -238.0257768 486.84620403 -238.04490089 461.70027542 C-238.06637472 433.37084796 -238.07478204 405.04146536 -238.06245184 376.71203089 C-238.0611692 373.68553449 -238.05991782 370.65903808 -238.05867958 367.63254166 C-238.05836327 366.8874808 -238.05804696 366.14241994 -238.05772107 365.37478149 C-238.05319393 354.18231795 -238.05844951 342.98988712 -238.06859779 331.79742813 C-238.08009388 319.05588431 -238.07705083 306.31443268 -238.05547482 293.57290018 C-238.04484616 287.08429051 -238.04072366 280.59581035 -238.05407143 274.10719872 C-238.18989012 201.99182863 -222.94460013 137.06528324 -173.52341652 82.13142776 C-173.00859718 81.55489456 -172.49377785 80.97836136 -171.96335793 80.38435745 C-166.14548929 73.88722698 -160.24652004 67.70549178 -153.52341652 62.13142776 C-152.62880714 61.33736526 -151.73419777 60.54330276 -150.81247902 59.72517776 C-126.41215796 38.19083844 -97.24983031 22.50159242 -66.52341652 12.13142776 C-65.37099464 11.73528275 -65.37099464 11.73528275 -64.19529152 11.3311348 C-43.7891648 4.41068452 -21.60008652 -0.0454499 0 0 Z " fill="#2A5ABA" transform="translate(237.52341651916504,-0.13142776489257813)"/>
<path d="M0 0 C3.9787783 0.01606023 7.95732325 0.00589486 11.93610859 -0.00373363 C32.69874239 -0.04381526 53.11040378 0.18676488 73.6663208 3.44952393 C74.61123383 3.59430176 75.55614685 3.73907959 76.5296936 3.88824463 C120.75530399 10.72485202 160.89927289 33.45741293 187.5413208 69.76202393 C201.15948319 89.17737919 208.92068907 109.93070563 215.6663208 132.44952393 C215.98713623 133.51251709 216.30795166 134.57551025 216.63848877 135.67071533 C217.99824591 140.37231576 219.06764755 144.49982741 218.6663208 149.44952393 C219.45393799 149.51268799 220.24155518 149.57585205 221.05303955 149.64093018 C233.3264765 151.02078403 243.32783046 155.87078582 251.73272705 165.01593018 C262.57665307 178.66394211 263.18914899 194.29726635 263.11236572 210.99835205 C263.10385398 213.81354998 263.13272469 216.62671226 263.16436768 219.44171143 C263.23159784 236.69922117 261.11900234 252.35708644 249.1038208 265.63702393 C243.44100182 271.01505897 235.61532285 276.44952393 227.6663208 276.44952393 C227.55530811 284.24224493 227.5231013 292.03251452 227.54425049 299.82598877 C227.54231043 302.47384897 227.52269481 305.12176013 227.48468018 307.76934814 C227.4329699 311.58872639 227.44599724 315.40340623 227.4710083 319.22296143 C227.42639969 320.98293961 227.42639969 320.98293961 227.38088989 322.7784729 C227.49980726 329.69426672 228.60790853 333.10668037 233.57720947 338.05230713 C235.27275518 339.51900003 236.969027 340.98485432 238.6663208 342.44952393 C247.27522631 353.04061144 250.52027434 366.07160964 249.51251221 379.49884033 C247.99037394 393.71116505 240.27069054 406.91546882 229.9241333 416.63311768 C222.57909882 422.54218521 215.08290596 426.56264333 205.6663208 427.44952393 C204.54999268 427.55780518 203.43366455 427.66608643 202.2835083 427.77764893 C188.11111317 428.84832689 173.86863735 428.54373258 159.6663208 428.44952393 C159.36991699 429.21828857 159.07351318 429.98705322 158.76812744 430.77911377 C147.21408299 458.78224656 113.60309046 487.52610265 86.6663208 500.44952393 C83.6963208 501.43952393 80.7263208 502.42952393 77.6663208 503.44952393 C77.6663208 511.36952393 77.6663208 519.28952393 77.6663208 527.44952393 C80.8219458 527.38764893 83.9775708 527.32577393 87.2288208 527.26202393 C119.68049465 527.11195838 149.88884317 542.94647373 172.6663208 565.44952393 C188.6663208 581.8991107 188.6663208 581.8991107 188.6663208 588.44952393 C188.01070726 588.44453794 187.35509373 588.43955194 186.67961311 588.43441486 C170.6948006 588.31665154 154.7111014 588.26005288 138.72590828 588.27074146 C130.99532113 588.27445004 123.26579878 588.2577899 115.53546143 588.19244385 C108.79413124 588.13551054 102.05398879 588.11754327 95.31245697 588.14551753 C91.74537231 588.15898081 88.18067349 588.15351054 84.61389542 588.10129738 C69.46594487 587.03586908 69.46594487 587.03586908 55.76083374 591.89190674 C53.18108156 594.4275084 51.45494025 597.31139655 49.6663208 600.44952393 C34.8333978 613.91034512 14.40147437 616.42269036 -4.64373779 615.63604736 C-19.92084912 614.57671599 -35.79820474 607.71315213 -46.3336792 596.44952393 C-46.67980318 595.89218284 -47.02592716 595.33484175 -47.38253975 594.76061153 C-49.52909464 591.61733839 -51.17133579 589.74113142 -54.94095993 588.79541206 C-58.26333056 588.54649382 -61.52504921 588.51857048 -64.85662842 588.56304932 C-66.11571518 588.55227356 -67.37480194 588.5414978 -68.67204285 588.53039551 C-72.11211579 588.50173869 -75.55082366 588.51586716 -78.99089575 588.53783727 C-82.59046108 588.55349774 -86.18976163 588.52959256 -89.78927612 588.50993347 C-96.59972443 588.47872398 -103.40966837 588.48295638 -110.22014821 588.50000805 C-117.97598643 588.5176946 -125.73155522 588.49574025 -133.48735404 588.47050107 C-149.43623854 588.41948542 -165.38473114 588.41810459 -181.3336792 588.44952393 C-180.56580588 587.02664973 -179.79282018 585.60653392 -179.01776123 584.18756104 C-178.37292282 583.00087074 -178.37292282 583.00087074 -177.71505737 581.79020691 C-175.59030084 578.18990284 -172.98329791 575.12418648 -170.2086792 572.01202393 C-169.35282227 571.04389771 -169.35282227 571.04389771 -168.47967529 570.05621338 C-159.23226698 559.74001559 -149.11177639 551.64324179 -137.3336792 544.44952393 C-136.74103271 544.08584717 -136.14838623 543.72217041 -135.53778076 543.34747314 C-115.00433086 530.9943399 -93.94313985 527.13261841 -70.3336792 527.44952393 C-70.6636792 519.85952393 -70.9936792 512.26952393 -71.3336792 504.44952393 C-73.7468042 503.27389893 -76.1599292 502.09827393 -78.6461792 500.88702393 C-108.64022412 485.93990585 -135.73161069 460.64626511 -152.3336792 431.44952393 C-152.3336792 430.78952393 -152.3336792 430.12952393 -152.3336792 429.44952393 C-153.56332397 429.45737915 -153.56332397 429.45737915 -154.81781006 429.46539307 C-210.30869619 429.77287571 -210.30869619 429.77287571 -226.5211792 414.82452393 C-238.08935036 402.54373442 -243.50665213 388.07655706 -243.41571045 371.46075439 C-242.81478688 356.72739612 -234.37344281 345.48928754 -224.3336792 335.44952393 C-224.18508571 332.36678357 -224.09827903 329.30386797 -224.0524292 326.21905518 C-224.03401978 325.27704758 -224.01561035 324.33503998 -223.99664307 323.36448669 C-223.93770656 320.33039819 -223.8851108 317.29624831 -223.8336792 314.26202393 C-223.40376609 289.47371633 -223.40376609 289.47371633 -222.3336792 277.44952393 C-223.3649292 277.42889893 -224.3961792 277.40827393 -225.4586792 277.38702393 C-235.8291554 276.05842199 -245.99232002 269.55401801 -252.3336792 261.44952393 C-262.34853116 248.46297523 -262.99833283 232.47916173 -262.85516357 216.74981689 C-262.83369991 213.95222346 -262.85509107 211.15719684 -262.8805542 208.35968018 C-262.90591257 192.66077398 -261.37445172 178.215036 -251.3336792 165.44952393 C-250.83352295 164.79596924 -250.3333667 164.14241455 -249.8180542 163.46905518 C-240.1993111 152.46579602 -225.15562887 149.54604603 -211.3336792 148.44952393 C-211.22410889 147.73409424 -211.11453857 147.01866455 -211.00164795 146.28155518 C-209.77652583 138.5822105 -208.16668975 131.02596755 -206.3336792 123.44952393 C-205.6736792 123.44952393 -205.0136792 123.44952393 -204.3336792 123.44952393 C-204.25891357 122.91327393 -204.18414795 122.37702393 -204.1071167 121.82452393 C-202.21048073 110.51908599 -198.09073446 99.3106675 -191.72821045 89.75811768 C-190.20501849 87.37159119 -190.20501849 87.37159119 -189.02508545 84.24249268 C-187.08257259 79.56904632 -184.28080291 75.50570476 -181.4586792 71.32452393 C-180.94176514 70.53948486 -180.42485107 69.7544458 -179.89227295 68.94561768 C-177.01369225 64.64587372 -174.10349936 60.98826929 -170.3336792 57.44952393 C-169.7355542 56.66577393 -169.1374292 55.88202393 -168.5211792 55.07452393 C-165.47744787 51.42204633 -161.95495072 48.51722528 -158.3336792 45.44952393 C-157.35914795 44.59874268 -156.3846167 43.74796143 -155.3805542 42.87139893 C-135.32310164 25.44952393 -135.32310164 25.44952393 -128.3336792 25.44952393 C-128.3336792 24.78952393 -128.3336792 24.12952393 -128.3336792 23.44952393 C-125.56542732 22.27638367 -122.79439434 21.11082178 -120.0211792 19.94952393 C-119.23549561 19.61565674 -118.44981201 19.28178955 -117.64031982 18.93780518 C-116.88299561 18.62198486 -116.12567139 18.30616455 -115.34539795 17.98077393 C-114.64890137 17.68751221 -113.95240479 17.39425049 -113.23480225 17.09210205 C-111.3336792 16.44952393 -111.3336792 16.44952393 -108.3336792 16.44952393 C-108.3336792 15.78952393 -108.3336792 15.12952393 -108.3336792 14.44952393 C-82.43413134 5.97055276 -82.43413134 5.97055276 -73.3336792 6.44952393 C-73.3336792 5.78952393 -73.3336792 5.12952393 -73.3336792 4.44952393 C-48.85176402 0.30236609 -24.77761253 -0.14201101 0 0 Z " fill="#474655" transform="translate(499.33367919921875,121.55047607421875)"/>
<path d="M0 0 C11.88 0.66 23.76 1.32 36 2 C36.04898438 5.25359375 36.09796875 8.5071875 36.1484375 11.859375 C36.20260731 15.04675487 36.25985165 18.23406595 36.31738281 21.42138672 C36.35542146 23.61892468 36.39031576 25.81651959 36.421875 28.01416016 C36.83509404 56.43588191 42.50503115 76.19420339 61 98 C61.58523438 98.70769531 62.17046875 99.41539062 62.7734375 100.14453125 C76.50457844 116.3920125 95.26212359 126.45276946 116.41210938 128.79785156 C125.91796776 129.54038465 135.47883961 129.25084565 145 129 C145.81484863 128.98453125 146.62969727 128.9690625 147.46923828 128.953125 C168.19353077 128.50972583 184.21651296 121.71022469 201.4375 110.6875 C211.61828247 104.19512512 220.3224994 101.090538 232.61328125 103.515625 C239.68134608 105.70361472 245.49739113 109.79702459 251.59814453 113.85302734 C267.63323807 124.44948353 283.95986775 128.60254197 303 129 C304.44391113 129.04664795 304.44391113 129.04664795 305.91699219 129.09423828 C331.14524015 129.86780089 355.53464031 127.64904972 375 110 C376.09828125 109.11248047 376.09828125 109.11248047 377.21875 108.20703125 C394.58913021 93.86423491 408.66565181 71.44342571 411 49 C411.44569711 40.9253462 411.50890129 32.83458178 411.625 24.75 C411.6632483 22.54035034 411.70230383 20.3307145 411.7421875 18.12109375 C411.83744027 12.74751989 411.92269697 7.3738605 412 2 C414.60021973 1.89831543 414.60021973 1.89831543 417.20043945 1.79663086 C418.73675522 1.73643265 418.73675522 1.73643265 420.30410767 1.67501831 C422.41127008 1.59279074 424.51848624 1.51193708 426.62573242 1.43188477 C427.56779541 1.39377686 428.5098584 1.35566895 429.48046875 1.31640625 C430.41785889 1.27974854 431.35524902 1.24309082 432.32104492 1.20532227 C437.88750724 0.89465833 443.44256949 0.44132641 449 0 C448.99032196 0.69189423 448.98064392 1.38378845 448.97067261 2.09664917 C448.88788487 8.65732494 448.85390267 15.21629731 448.87302971 21.77750969 C448.88118554 25.15004441 448.87129853 28.52040518 448.81835938 31.89257812 C448.76666121 35.7814288 448.77967337 39.66566333 448.8046875 43.5546875 C448.76007889 45.34747635 448.76007889 45.34747635 448.71456909 47.17648315 C448.83237623 54.1501361 449.89665769 57.62565839 454.91088867 62.61645508 C456.60604822 64.07904134 458.30227367 65.54039397 460 67 C468.61054833 77.58825235 471.85379147 90.62424504 470.84619141 104.04931641 C469.32405314 118.26164113 461.60436974 131.46594489 451.2578125 141.18359375 C443.91277802 147.09266128 436.41658516 151.1131194 427 152 C425.88367188 152.10828125 424.76734375 152.2165625 423.6171875 152.328125 C409.44479237 153.39880296 395.20231655 153.09420865 381 153 C380.70359619 153.76876465 380.40719238 154.5375293 380.10180664 155.32958984 C368.54776218 183.33272263 334.93676966 212.07657872 308 225 C303.545 226.485 303.545 226.485 299 228 C299 235.92 299 243.84 299 252 C303.7334375 251.9071875 303.7334375 251.9071875 308.5625 251.8125 C341.01417385 251.66243446 371.22252237 267.49694981 394 290 C410 306.44958678 410 306.44958678 410 313 C409.34438646 312.99501401 408.68877293 312.99002802 408.01329231 312.98489094 C392.0284798 312.86712761 376.0447806 312.81052895 360.05958748 312.82121754 C352.32900033 312.82492611 344.59947798 312.80826598 336.86914062 312.74291992 C330.12781044 312.68598662 323.38766799 312.66801934 316.64613616 312.6959936 C313.07905151 312.70945688 309.51435269 312.70398661 305.94757462 312.65177345 C290.79962407 311.58634516 290.79962407 311.58634516 277.09451294 316.44238281 C274.51476076 318.97798448 272.78861945 321.86187262 271 325 C256.167077 338.4608212 235.73515357 340.97316644 216.68994141 340.18652344 C201.41283008 339.12719207 185.53547446 332.26362821 175 321 C174.65387602 320.44265891 174.30775204 319.88531782 173.95113945 319.31108761 C171.80458456 316.16781446 170.16234341 314.2916075 166.39271927 313.34588814 C163.07034864 313.09696989 159.80862999 313.06904656 156.47705078 313.11352539 C155.21796402 313.10274963 153.95887726 313.09197388 152.66163635 313.08087158 C149.22156341 313.05221477 145.78285554 313.06634324 142.34278345 313.08831334 C138.74321812 313.10397381 135.14391757 313.08006864 131.54440308 313.06040955 C124.73395477 313.02920005 117.92401083 313.03343246 111.11353099 313.05048412 C103.35769276 313.06817067 95.60212398 313.04621632 87.84632516 313.02097714 C71.89744066 312.96996149 55.94894805 312.96858066 40 313 C40.76787331 311.5771258 41.54085902 310.15700999 42.31591797 308.73803711 C42.96075638 307.55134682 42.96075638 307.55134682 43.61862183 306.34068298 C45.74337836 302.74037891 48.35038129 299.67466255 51.125 296.5625 C51.69557129 295.91708252 52.26614258 295.27166504 52.85400391 294.60668945 C62.10141222 284.29049167 72.22190281 276.19371786 84 269 C84.59264648 268.63632324 85.18529297 268.27264648 85.79589844 267.89794922 C106.32934834 255.54481598 127.39053935 251.68309449 151 252 C150.67 244.41 150.34 236.82 150 229 C147.586875 227.824375 145.17375 226.64875 142.6875 225.4375 C112.69345508 210.49038192 85.60206851 185.19674118 69 156 C69 155.34 69 154.68 69 154 C68.18023682 154.00523682 67.36047363 154.01047363 66.51586914 154.01586914 C11.02498301 154.32335178 11.02498301 154.32335178 -5.1875 139.375 C-16.75567116 127.0942105 -22.17297293 112.62703313 -22.08203125 96.01123047 C-21.45688452 80.68397236 -12.38732378 69.38732378 -2 59 C-1.62923529 56.41307593 -1.62923529 56.41307593 -1.58935547 53.35693359 C-1.54946503 52.17586029 -1.50957458 50.99478699 -1.46847534 49.77792358 C-1.43505035 48.49769318 -1.40162537 47.21746277 -1.3671875 45.8984375 C-1.32562531 44.59170074 -1.28406311 43.28496399 -1.24124146 41.93862915 C-1.13081928 38.46347337 -1.03199356 34.98808019 -0.93554688 31.51251221 C-0.83510189 27.96646012 -0.72384346 24.42074869 -0.61328125 20.875 C-0.39711603 13.91692702 -0.1990611 6.9586678 0 0 Z " fill="#FEB46A" transform="translate(278,397)"/>
<path d="M0 0 C1.68213814 -0.00875675 3.36427211 -0.01834754 5.0464012 -0.02869719 C9.65473543 -0.05445344 14.26303307 -0.06777049 18.87142289 -0.07885134 C23.84703107 -0.09286546 28.82258558 -0.11810078 33.79815674 -0.14151001 C45.80343115 -0.19519697 57.80872855 -0.22910571 69.81408289 -0.25896242 C73.20591494 -0.26747593 76.59774555 -0.27643171 79.9895761 -0.28552032 C101.06516993 -0.34171371 122.14077045 -0.39043626 143.21642017 -0.41966724 C148.09274116 -0.42654603 152.969062 -0.43351077 157.84538269 -0.44059753 C159.05731628 -0.44235195 160.26924987 -0.44410636 161.51790871 -0.44591393 C181.16121533 -0.47559044 200.8040926 -0.54995155 220.44719354 -0.64242236 C240.62503845 -0.73662933 260.80266285 -0.78930497 280.98072642 -0.80178469 C292.30598368 -0.8098576 303.63055137 -0.8363256 314.9555912 -0.90963173 C324.59729808 -0.97195615 334.23818314 -0.99686142 343.88007811 -0.97301213 C348.79761162 -0.96200498 353.71341511 -0.96869885 358.63069153 -1.02364731 C363.13770671 -1.07359561 367.64176133 -1.07220602 372.14883741 -1.03093299 C373.7739819 -1.02492217 375.39932752 -1.03731105 377.02414332 -1.07054315 C385.61477006 -1.23547328 391.85120583 -0.53473913 398.29024792 5.58163929 C400.07847913 7.44722121 401.82223881 9.35689687 403.50920105 11.31452942 C404.69534625 12.66811996 404.69534625 12.66811996 405.90545398 14.04905576 C413.54165138 23.03295607 418.30314072 31.69700307 420.50920105 43.31452942 C420.68048523 44.21485901 420.85176941 45.1151886 421.02824402 46.0428009 C424.112145 67.02115476 423.79827797 92.36805053 411.08732605 110.00984192 C400.27641061 124.20862588 400.27641061 124.20862588 393.50920105 128.31452942 C390.48179013 128.68942624 390.48179013 128.68942624 386.85322666 128.68925953 C386.18222169 128.69332025 385.51121671 128.69738098 384.81987825 128.70156476 C382.56104443 128.71154703 380.30282669 128.70006279 378.04400635 128.68875122 C376.41227075 128.6914906 374.78053691 128.69554164 373.14880747 128.70079488 C368.65644915 128.71140939 364.16428901 128.70323471 359.67193925 128.69204438 C354.82985264 128.68322091 349.98779249 128.69164076 345.14570618 128.69790649 C335.65417419 128.7074093 326.16271807 128.70078059 316.6711917 128.68864355 C305.61582505 128.67503321 294.56047654 128.67666073 283.50510364 128.67877688 C263.77167196 128.68196928 244.03827633 128.67028734 224.30485535 128.65071106 C205.16552125 128.63172914 186.02622944 128.62461714 166.8868866 128.63020325 C146.04983546 128.63626686 125.21280294 128.6360715 104.37575334 128.62471741 C102.15153817 128.62351014 99.927323 128.62230415 97.70310783 128.62109947 C96.60876527 128.62049593 95.5144227 128.61989239 94.38691824 128.61927057 C86.68601405 128.61539625 78.9851168 128.61578326 71.28421211 128.61768532 C61.8885453 128.61981195 52.49291547 128.61454846 43.09725905 128.60007177 C38.30584888 128.59284785 33.51449246 128.58873349 28.72307777 128.59331512 C24.33022747 128.59741326 19.93748777 128.59216467 15.54465418 128.57968905 C13.96178297 128.57677866 12.37890121 128.57716816 10.79603279 128.58133212 C1.53341343 128.60347184 -7.36985993 128.04330615 -16.49079895 126.31452942 C-16.48532043 126.95998215 -16.47984192 127.60543488 -16.47419739 128.27044678 C-16.32180989 147.30397136 -16.84992398 166.29451933 -17.49079895 185.31452942 C-17.82079895 185.31452942 -18.15079895 185.31452942 -18.49079895 185.31452942 C-18.5157949 179.44701944 -18.53379691 173.57954147 -18.54573059 167.71199036 C-18.55071341 165.722076 -18.55750209 163.73216521 -18.5662384 161.74226379 C-18.61409668 150.54905638 -18.55205348 139.46787189 -17.49079895 128.31452942 C-18.52204895 128.29390442 -19.55329895 128.27327942 -20.61579895 128.25202942 C-30.98627515 126.92342749 -41.14943977 120.41902351 -47.49079895 112.31452942 C-57.50565091 99.32798073 -58.15545258 83.34416722 -58.01228333 67.61482239 C-57.99081966 64.81722895 -58.01221082 62.02220233 -58.03767395 59.22468567 C-58.06303232 43.52577947 -56.53157147 29.08004149 -46.49079895 16.31452942 C-45.9906427 15.66097473 -45.49048645 15.00742004 -44.97517395 14.33406067 C-33.52725636 1.23833676 -16.14385346 0.01546403 0 0 Z " fill="#595865" transform="translate(294.4907989501953,270.6854705810547)"/>
<path d="M0 0 C51.17836991 -0.06859998 102.35673519 -0.12149511 153.535142 -0.15319599 C159.57111688 -0.15694831 165.60709166 -0.16083126 171.64306641 -0.16479492 C173.44562018 -0.16597532 173.44562018 -0.16597532 175.28458919 -0.16717956 C194.76689631 -0.18024933 214.249177 -0.20391178 233.73146842 -0.23145839 C253.70783564 -0.25946895 273.68418898 -0.27616703 293.66057503 -0.28226548 C305.99659402 -0.28639098 318.33253829 -0.29944162 330.66853429 -0.3237494 C339.11678235 -0.33955295 347.56499154 -0.34441263 356.01325332 -0.34050413 C360.89444468 -0.33857416 365.77550509 -0.3416244 370.65667343 -0.35761642 C375.11883456 -0.37212971 379.5807757 -0.37300871 384.04294659 -0.36269668 C385.66343346 -0.3614207 387.28393362 -0.36529868 388.90439402 -0.37464955 C391.09511144 -0.38656341 393.28501834 -0.38027831 395.47572136 -0.36914349 C396.6961425 -0.37028265 397.91656364 -0.37142181 399.17396724 -0.37259549 C400.57285346 -0.18816072 400.57285346 -0.18816072 402 0 C404.16013116 3.24019674 404.25425611 4.13483501 404.27415466 7.87605286 C404.28412979 8.88120438 404.29410492 9.8863559 404.30438232 10.92196655 C404.305047 12.02384308 404.30571167 13.1257196 404.30639648 14.26098633 C404.31472 15.42221512 404.32304352 16.58344391 404.33161926 17.77986145 C404.35577617 21.63061852 404.36449862 25.48120637 404.37109375 29.33203125 C404.37779162 31.32875392 404.38449163 33.32547659 404.39152867 35.32219809 C404.41300509 41.60355894 404.42233521 47.88486575 404.42553711 54.16625977 C404.42917056 60.64032985 404.45905072 67.11392532 404.50094169 73.58785039 C404.5356663 79.14975855 404.55108593 84.71150962 404.55178314 90.27352542 C404.55257539 93.59384521 404.56366044 96.9135728 404.58978081 100.2338047 C404.61661421 103.93990071 404.61189199 107.64468677 404.59936523 111.35083008 C404.62161667 112.99453583 404.62161667 112.99453583 404.64431763 114.67144775 C404.56437264 122.97092513 404.56437264 122.97092513 401.58753967 126.66557312 C397.71317523 130.16094774 395.81456149 130.1268742 390.66427231 130.13701439 C390.00360809 130.13966622 389.34294387 130.14231804 388.66225952 130.14505023 C386.42682349 130.1527692 384.19144215 130.15330339 381.95599365 130.15390015 C380.34574567 130.15791306 378.7354987 130.16235099 377.12525296 130.1671797 C372.68334071 130.17917011 368.24143933 130.18479935 363.79951406 130.18936086 C359.01546973 130.19530758 354.23143848 130.2069197 349.44740295 130.21765137 C337.8856358 130.24219612 326.32386432 130.25680524 314.76207912 130.26971143 C311.49822612 130.27342175 308.23437355 130.27739511 304.97052097 130.2814641 C284.71581889 130.30669818 264.46111616 130.32875802 244.20640182 130.34119225 C239.51276395 130.34412209 234.8191261 130.34708373 230.12548828 130.35009766 C228.95886277 130.35084371 227.79223726 130.35158976 226.59025946 130.35235842 C207.68303743 130.36501753 188.77590933 130.39824688 169.86873123 130.43989949 C150.47084543 130.48228394 131.07300776 130.50588322 111.67507577 130.51111281 C100.77827164 130.51453081 89.8816143 130.52633185 78.98485565 130.55921555 C69.70638893 130.58716925 60.42809907 130.59823598 51.1495935 130.58702008 C46.41362177 130.58182149 41.6780207 130.58479788 36.94210243 130.60948563 C32.60796841 130.63189081 28.27447318 130.63130675 23.94032863 130.61228175 C22.37096973 130.60946943 20.80156832 130.61514842 19.23227808 130.63009469 C6.03244801 130.74814323 6.03244801 130.74814323 2.09050369 127.58699989 C-0.70410795 124.12866588 -1.12511725 122.57622512 -1.12698364 118.22401428 C-1.12980347 117.21590195 -1.13262329 116.20778961 -1.13552856 115.16912842 C-1.13350433 114.05894348 -1.1314801 112.94875854 -1.12939453 111.80493164 C-1.13114685 110.63903 -1.13289917 109.47312836 -1.13470459 108.27189636 C-1.1391213 104.40130137 -1.13618554 100.53075174 -1.1328125 96.66015625 C-1.13348564 93.97977135 -1.1344541 91.29938785 -1.13571167 88.6190033 C-1.13753243 82.99412542 -1.13512976 77.36926065 -1.13037109 71.74438477 C-1.12493129 65.23922964 -1.12668945 58.73410587 -1.1321975 52.22895151 C-1.13673443 46.64759142 -1.13737625 41.06624077 -1.13475883 35.48487943 C-1.13319892 32.14977029 -1.1333864 28.81467914 -1.13629532 25.47957039 C-1.13882627 21.76117947 -1.13497478 18.04284927 -1.12939453 14.32446289 C-1.13141876 13.21630219 -1.13344299 12.10814148 -1.13552856 10.96640015 C-1.13270874 9.95546799 -1.12988892 8.94453583 -1.12698364 7.90296936 C-1.12660662 7.02341111 -1.12622959 6.14385286 -1.12584114 5.23764133 C-1 3 -1 3 0 0 Z " fill="#6A6A71" transform="translate(302,752)"/>
<path d="M0 0 C4.76477752 -0.07505102 9.52919901 -0.12901989 14.29443359 -0.16479492 C15.91005458 -0.17973355 17.5256361 -0.20009201 19.14111328 -0.22631836 C35.67093807 -0.48763921 50.20118031 1.39865768 62.8125 13.1875 C75.66533324 26.98302763 76.52833921 43.64904364 76.44604492 61.54882812 C76.43753318 64.36402605 76.46640389 67.17718833 76.49804688 69.9921875 C76.56527704 87.24969725 74.45268154 102.90756251 62.4375 116.1875 C55.98317828 122.23534726 48.13162987 127.44913458 39.0625 127.375 C37.81146484 127.26285156 37.81146484 127.26285156 36.53515625 127.1484375 C33.94525935 126.90003739 33.94525935 126.90003739 31.20629883 127.48461914 C28.12141862 127.98048316 25.28390007 128.11442957 22.1640625 128.09765625 C21.10058594 128.09443359 20.03710938 128.09121094 18.94140625 128.08789062 C17.84699219 128.07951172 16.75257813 128.07113281 15.625 128.0625 C14.50738281 128.05798828 13.38976562 128.05347656 12.23828125 128.04882812 C9.49213196 128.03709244 6.74609414 128.02067363 4 128 C4.00444122 128.56217224 4.00888245 129.12434448 4.01345825 129.70355225 C4.05806129 135.60947094 4.08801816 141.51534098 4.10986328 147.42138672 C4.11985682 149.61899767 4.13345618 151.81659555 4.15087891 154.01416016 C4.37083164 182.49157013 -1.47276566 202.21197241 -20 224 C-20.93585938 225.13695312 -20.93585938 225.13695312 -21.890625 226.296875 C-36.57050212 243.6024212 -56.36664039 254.11458969 -79 256 C-87.66788221 256.38817643 -96.32993497 256.22842259 -105 256 C-105.81484863 255.98453125 -106.62969727 255.9690625 -107.46923828 255.953125 C-128.19353077 255.50972583 -144.21651296 248.71022469 -161.4375 237.6875 C-171.62295706 231.19214409 -179.91403232 228.4978346 -192.203125 230.328125 C-198.29808015 231.95654813 -203.39025998 235.65702821 -208.64355469 239.01953125 C-226.09390715 250.13090792 -242.19190829 255.56563626 -263 256 C-263.96260742 256.03109863 -264.92521484 256.06219727 -265.91699219 256.09423828 C-290.15484345 256.8374328 -315.14286062 255.02332582 -334 238 C-334.85722656 237.28328125 -335.71445312 236.5665625 -336.59765625 235.828125 C-354.2163636 220.66265538 -369.96361485 198.61494256 -372 175 C-372.32964015 166.9228407 -372.18907134 158.83145121 -372.125 150.75 C-372.1149518 148.54036863 -372.1058292 146.33073285 -372.09765625 144.12109375 C-372.07578478 138.74729838 -372.04245259 133.37367014 -372 128 C-370.81806725 128.00138269 -370.81806725 128.00138269 -369.61225706 128.00279331 C-322.91593383 128.05640688 -276.21975896 128.06840823 -229.52341888 128.02634037 C-223.91706139 128.02132571 -218.31070366 128.01665888 -212.7043457 128.01220703 C-211.58821657 128.0113149 -210.47208744 128.01042277 -209.32213622 128.0095036 C-191.24776042 127.99588615 -173.17351154 128.01044828 -155.09915257 128.03541696 C-136.55440922 128.06040848 -118.00985274 128.05513461 -99.46512169 128.02174091 C-88.02108539 128.00208816 -76.57755756 128.00606755 -65.13355332 128.04023629 C-57.28690248 128.0614033 -49.44062591 128.05318306 -41.59401048 128.02184123 C-37.06608678 128.00462355 -32.53912754 128.00037507 -28.01125336 128.03101921 C-23.86336237 128.05880543 -19.71723908 128.04958071 -15.56944727 128.01125896 C-14.07131955 128.00388902 -12.57305088 128.00995313 -11.07505316 128.03102028 C-3.9109975 128.12477281 1.66205186 128.03925778 7.30392551 123.10107422 C8.57283139 121.76821275 9.81112584 120.40471351 11 119 C11.79792969 118.13632812 12.59585937 117.27265625 13.41796875 116.3828125 C15.32343716 113.95155259 17.1842286 111.49908494 19 109 C19.55816406 108.25363281 20.11632812 107.50726563 20.69140625 106.73828125 C29.20737281 94.16709252 29.36407308 79.80063833 29.375 65.1875 C29.37699402 64.47866669 29.37898804 63.76983337 29.38104248 63.03952026 C29.37360566 39.64497741 23.51713456 23.91118151 7 7 C4.71224233 4.93797933 2.36663349 2.97219457 0 1 C0 0.67 0 0.34 0 0 Z " fill="#383642" transform="translate(686,271)"/>
<path d="M0 0 C0 7.59 0 15.18 0 23 C3.155625 22.938125 6.31125 22.87625 9.5625 22.8125 C42.01417385 22.66243446 72.22252237 38.49694981 95 61 C111 77.44958678 111 77.44958678 111 84 C110.34438646 83.99501401 109.68877293 83.99002802 109.01329231 83.98489094 C93.0284798 83.86712761 77.0447806 83.81052895 61.05958748 83.82121754 C53.32900033 83.82492611 45.59947798 83.80826598 37.86914062 83.74291992 C31.12781044 83.68598662 24.38766799 83.66801934 17.64613616 83.6959936 C14.07905151 83.70945688 10.51435269 83.70398661 6.94757462 83.65177345 C-8.20037593 82.58634516 -8.20037593 82.58634516 -21.90548706 87.44238281 C-24.48523924 89.97798448 -26.21138055 92.86187262 -28 96 C-42.832923 109.4608212 -63.26484643 111.97316644 -82.31005859 111.18652344 C-97.58716992 110.12719207 -113.46452554 103.26362821 -124 92 C-124.34612398 91.44265891 -124.69224796 90.88531782 -125.04886055 90.31108761 C-127.19541544 87.16781446 -128.83765659 85.2916075 -132.60728073 84.34588814 C-135.92965136 84.09696989 -139.19137001 84.06904656 -142.52294922 84.11352539 C-143.78203598 84.10274963 -145.04112274 84.09197388 -146.33836365 84.08087158 C-149.77843659 84.05221477 -153.21714446 84.06634324 -156.65721655 84.08831334 C-160.25678188 84.10397381 -163.85608243 84.08006864 -167.45559692 84.06040955 C-174.26604523 84.02920005 -181.07598917 84.03343246 -187.88646901 84.05048412 C-195.64230724 84.06817067 -203.39787602 84.04621632 -211.15367484 84.02097714 C-227.10255934 83.96996149 -243.05105195 83.96858066 -259 84 C-258.23212669 82.5771258 -257.45914098 81.15700999 -256.68408203 79.73803711 C-256.25418976 78.94691025 -255.82429749 78.15578339 -255.38137817 77.34068298 C-253.25662164 73.74037891 -250.64961871 70.67466255 -247.875 67.5625 C-247.30442871 66.91708252 -246.73385742 66.27166504 -246.14599609 65.60668945 C-236.89858778 55.29049167 -226.77809719 47.19371786 -215 40 C-214.40735352 39.63632324 -213.81470703 39.27264648 -213.20410156 38.89794922 C-192.67065166 26.54481598 -171.60946065 22.68309449 -148 23 C-148 15.74 -148 8.48 -148 1 C-139 4 -139 4 -135.33203125 5.24609375 C-111.22897913 13.40528453 -88.85558874 18.00350024 -63.34423828 15.23193359 C-60.04698059 14.90571043 -56.74785791 14.81036588 -53.4375 14.6875 C-36.35243284 13.74826856 -19.58831806 8.05819524 -3.9765625 1.28515625 C-1 0 -1 0 0 0 Z " fill="#F99E3E" transform="translate(577,626)"/>
<path d="M0 0 C133.65 0 267.3 0 405 0 C405 41 405 41 400 47 C397.17682269 48.41158865 394.82343559 48.13079444 391.66427231 48.13701439 C391.00360809 48.13966622 390.34294387 48.14231804 389.66225952 48.14505023 C387.42682349 48.1527692 385.19144215 48.15330339 382.95599365 48.15390015 C381.34574567 48.15791306 379.7354987 48.16235099 378.12525296 48.1671797 C373.68334071 48.17917011 369.24143933 48.18479935 364.79951406 48.18936086 C360.01546973 48.19530758 355.23143848 48.2069197 350.44740295 48.21765137 C338.8856358 48.24219612 327.32386432 48.25680524 315.76207912 48.26971143 C312.49822612 48.27342175 309.23437355 48.27739511 305.97052097 48.2814641 C285.71581889 48.30669818 265.46111616 48.32875802 245.20640182 48.34119225 C240.51276395 48.34412209 235.8191261 48.34708373 231.12548828 48.35009766 C229.95886277 48.35084371 228.79223726 48.35158976 227.59025946 48.35235842 C208.68303743 48.36501753 189.77590933 48.39824688 170.86873123 48.43989949 C151.47084543 48.48228394 132.07300776 48.50588322 112.67507577 48.51111281 C101.77827164 48.51453081 90.8816143 48.52633185 79.98485565 48.55921555 C70.70638893 48.58716925 61.42809907 48.59823598 52.1495935 48.58702008 C47.41362177 48.58182149 42.6780207 48.58479788 37.94210243 48.60948563 C33.60796841 48.63189081 29.27447318 48.63130675 24.94032863 48.61228175 C23.37096973 48.60946943 21.80156832 48.61514842 20.23227808 48.63009469 C7.03244801 48.74814323 7.03244801 48.74814323 3.09050369 45.58699989 C-6.48219496 33.7407781 0 15.23054596 0 0 Z " fill="#EEEDED" transform="translate(301,834)"/>
<path d="M0 0 C51.17836991 -0.06859998 102.35673519 -0.12149511 153.535142 -0.15319599 C159.57111688 -0.15694831 165.60709166 -0.16083126 171.64306641 -0.16479492 C173.44562018 -0.16597532 173.44562018 -0.16597532 175.28458919 -0.16717956 C194.76689631 -0.18024933 214.249177 -0.20391178 233.73146842 -0.23145839 C253.70783564 -0.25946895 273.68418898 -0.27616703 293.66057503 -0.28226548 C305.99659402 -0.28639098 318.33253829 -0.29944162 330.66853429 -0.3237494 C339.11678235 -0.33955295 347.56499154 -0.34441263 356.01325332 -0.34050413 C360.89444468 -0.33857416 365.77550509 -0.3416244 370.65667343 -0.35761642 C375.11883456 -0.37212971 379.5807757 -0.37300871 384.04294659 -0.36269668 C385.66343346 -0.3614207 387.28393362 -0.36529868 388.90439402 -0.37464955 C391.09511144 -0.38656341 393.28501834 -0.38027831 395.47572136 -0.36914349 C396.6961425 -0.37028265 397.91656364 -0.37142181 399.17396724 -0.37259549 C400.57285346 -0.18816072 400.57285346 -0.18816072 402 0 C404.54931987 3.8239798 404.27071274 6.92303171 404.23046875 11.3515625 C404.23001053 12.16619965 404.22955231 12.98083679 404.2290802 13.82015991 C404.22606143 15.53995218 404.21818632 17.2597418 404.20581055 18.97949219 C404.18752185 21.62184245 404.18530112 24.26384297 404.18554688 26.90625 C404.18063283 28.57552388 404.17480501 30.24479538 404.16796875 31.9140625 C404.16685593 32.70881989 404.1657431 33.50357727 404.16459656 34.32241821 C404.1160586 39.8839414 404.1160586 39.8839414 403 41 C400.85769347 41.09801279 398.71208179 41.12371157 396.56753445 41.12304783 C395.88427763 41.12420167 395.20102082 41.12535552 394.49705926 41.12654433 C392.17879683 41.12921759 389.86060213 41.12468305 387.54234314 41.12025452 C385.87506057 41.12069007 384.20777807 41.12156469 382.54049593 41.12284368 C377.93651081 41.12509169 373.33254871 41.12106321 368.72856653 41.11606562 C363.77216424 41.11176566 358.81576336 41.11320722 353.85935974 41.1139679 C345.26460904 41.11449342 336.66986591 41.11134365 328.07511711 41.10573006 C315.64840037 41.0976189 303.2216873 41.09500023 290.7949682 41.09374207 C270.63568961 41.09155094 250.47641506 41.08488921 230.31713867 41.07543945 C210.72892273 41.0662669 191.14070789 41.0591853 171.55249023 41.05493164 C170.34600674 41.05466892 169.13952325 41.05440619 167.89647966 41.05413551 C161.84418551 41.05283052 155.79189136 41.0515668 149.7395972 41.05032361 C99.49306201 41.0399491 49.2465312 41.02232914 -1 41 C-1.02470696 35.64315122 -1.04286331 30.28633556 -1.05493164 24.92944336 C-1.0599624 23.10684634 -1.06678769 21.28425335 -1.07543945 19.46166992 C-1.08755997 16.84292606 -1.09324086 14.22423553 -1.09765625 11.60546875 C-1.10281754 10.78974899 -1.10797882 9.97402924 -1.11329651 9.1335907 C-1.1136246 5.82986071 -1.05225621 3.15676862 0 0 Z " fill="#EEECEC" transform="translate(302,752)"/>
<path d="M0 0 C0.44201248 0.87665314 0.88402496 1.75330627 1.33943176 2.65652466 C1.90404114 3.6452356 2.46865051 4.63394653 3.05036926 5.65261841 C6.80335205 13.41406872 9.55836986 21.1478247 11.83943176 29.46902466 C12.24041077 30.92876709 12.24041077 30.92876709 12.64949036 32.41799927 C14.47261025 39.39016768 14.47261025 39.39016768 13.33943176 41.65652466 C-119.32056824 41.32652466 -251.98056824 40.99652466 -388.66056824 40.65652466 C-379.48409765 5.48005407 -379.48409765 5.48005407 -372.66056824 -1.34347534 C-370.42776489 -1.62029743 -370.42776489 -1.62029743 -367.5900116 -1.65800476 C-365.97942619 -1.68597389 -365.97942619 -1.68597389 -364.33630371 -1.71450806 C-363.15295944 -1.724599 -361.96961517 -1.73468994 -360.75041199 -1.74508667 C-359.50797226 -1.76304794 -358.26553253 -1.78100922 -356.98544312 -1.79951477 C-352.85634363 -1.85442677 -348.72738705 -1.89271371 -344.59806824 -1.92550659 C-343.89487206 -1.93145269 -343.19167587 -1.93739879 -342.46717072 -1.94352508 C-335.83013888 -1.99947947 -329.19309894 -2.04814299 -322.55589294 -2.077672 C-314.07755098 -2.11575425 -305.60138822 -2.19072259 -297.12389469 -2.31751043 C-291.15772483 -2.40368472 -285.1921376 -2.44726782 -279.22536373 -2.45978945 C-275.66488918 -2.46837212 -272.10680792 -2.49516711 -268.54701233 -2.56763649 C-245.12397802 -3.02215381 -245.12397802 -3.02215381 -239.83122253 1.04681396 C-237.3506232 3.7968264 -235.59769143 6.51928722 -233.66056824 9.65652466 C-216.93927461 22.90138322 -197.43281936 26.24995982 -176.66056824 24.65652466 C-161.24211565 22.81138692 -145.92620346 15.32738889 -135.84806824 3.40652466 C-135.26412292 2.72074341 -134.68017761 2.03496216 -134.07853699 1.32839966 C-133.37664246 0.50082153 -133.37664246 0.50082153 -132.66056824 -0.34347534 C-130.99164767 -2.01239591 -128.96493414 -1.50390268 -126.66989136 -1.53533936 C-125.58887146 -1.55235397 -124.50785156 -1.56936859 -123.39407349 -1.5868988 C-121.59952477 -1.60731483 -121.59952477 -1.60731483 -119.76872253 -1.62814331 C-118.51679108 -1.64607437 -117.26485962 -1.66400543 -115.97499084 -1.68247986 C-111.81164199 -1.73983152 -107.64826498 -1.78894442 -103.48478699 -1.83566284 C-102.05317988 -1.85216892 -100.62157295 -1.86869042 -99.1899662 -1.8852272 C-93.23573788 -1.95318299 -87.2814896 -2.01822942 -81.3271513 -2.07581902 C-72.78579032 -2.15854382 -64.24502001 -2.25828685 -55.7041499 -2.38190925 C-49.70340417 -2.46739389 -43.70263227 -2.53364674 -37.7015031 -2.5855552 C-34.1150953 -2.61707703 -30.52924417 -2.65705745 -26.94319725 -2.71749496 C-22.94226644 -2.78440513 -18.94201808 -2.81156703 -14.94059753 -2.83517456 C-13.75030441 -2.86093063 -12.56001129 -2.88668671 -11.33364868 -2.91322327 C-3.3082082 -2.91392802 -3.3082082 -2.91392802 0 0 Z " fill="#6A6A70" transform="translate(690.6605682373047,711.3434753417969)"/>
<path d="M0 0 C-0.00967804 0.69189423 -0.01935608 1.38378845 -0.02932739 2.09664917 C-0.11211513 8.65732494 -0.14609733 15.21629731 -0.12697029 21.77750969 C-0.11881446 25.15004441 -0.12870147 28.52040518 -0.18164062 31.89257812 C-0.23333879 35.7814288 -0.22032663 39.66566333 -0.1953125 43.5546875 C-0.23992111 45.34747635 -0.23992111 45.34747635 -0.28543091 47.17648315 C-0.16762377 54.1501361 0.89665769 57.62565839 5.91088867 62.61645508 C7.60604822 64.07904134 9.30227367 65.54039397 11 67 C19.61054833 77.58825235 22.85379147 90.62424504 21.84619141 104.04931641 C20.32405314 118.26164113 12.60436974 131.46594489 2.2578125 141.18359375 C-5.08722198 147.09266128 -12.58341484 151.1131194 -22 152 C-23.11632812 152.10828125 -24.23265625 152.2165625 -25.3828125 152.328125 C-39.55520763 153.39880296 -53.79768345 153.09420865 -68 153 C-68.29640381 153.76876465 -68.59280762 154.5375293 -68.89819336 155.32958984 C-80.74174113 184.03438167 -114.05416668 211.08187862 -141 225 C-141.90395508 225.47832275 -141.90395508 225.47832275 -142.82617188 225.96630859 C-163.4870726 236.78586977 -187.45445977 245.39286218 -211 245 C-208.34296639 242.34296639 -205.22981268 241.34145329 -201.8125 239.9375 C-181.99050925 231.45668197 -162.21063919 218.02430284 -148.20703125 201.5234375 C-145.85582207 198.83515231 -143.42362911 196.23988221 -140.97167969 193.64379883 C-113.6161702 164.69624373 -113.6161702 164.69624373 -100.87109375 127.87890625 C-100 125 -100 125 -96.75390625 123.1640625 C-95.36362548 122.63274608 -93.96587165 122.12070734 -92.5625 121.625 C-85.28228508 118.75498502 -79.82810026 115.28428104 -74 110 C-73.2678125 109.40832031 -72.535625 108.81664062 -71.78125 108.20703125 C-54.41086979 93.86423491 -40.33434819 71.44342571 -38 49 C-37.55430289 40.9253462 -37.49109871 32.83458178 -37.375 24.75 C-37.3367517 22.54035034 -37.29769617 20.3307145 -37.2578125 18.12109375 C-37.16255973 12.74751989 -37.07730303 7.3738605 -37 2 C-36.30438965 1.97494385 -35.6087793 1.9498877 -34.89208984 1.92407227 C-31.71956545 1.80754026 -28.54729645 1.68507432 -25.375 1.5625 C-23.73337891 1.50352539 -23.73337891 1.50352539 -22.05859375 1.44335938 C-20.46337891 1.38051758 -20.46337891 1.38051758 -18.8359375 1.31640625 C-17.86188965 1.27974854 -16.8878418 1.24309082 -15.88427734 1.20532227 C-12.98025195 1.04907126 -12.98025195 1.04907126 -10.07275391 0.48022461 C-6.67521552 -0.05075887 -3.43335138 -0.06866703 0 0 Z " fill="#F99D3D" transform="translate(727,397)"/>
<path d="M0 0 C11.15507901 -0.07028838 22.31010321 -0.12320351 33.46536064 -0.15543652 C38.64821203 -0.17092623 43.8309092 -0.19184873 49.01367188 -0.22631836 C93.28067834 -0.51288584 93.28067834 -0.51288584 115 3 C115.94282837 3.14514038 116.88565674 3.29028076 117.85705566 3.43981934 C162.08563705 10.27329759 202.23131775 33.00566193 228.875 69.3125 C242.49316239 88.72785526 250.25436827 109.4811817 257 132 C257.32081543 133.06299316 257.64163086 134.12598633 257.97216797 135.22119141 C258.24818848 136.17558105 258.52420898 137.1299707 258.80859375 138.11328125 C259.04247803 138.92192627 259.2763623 139.73057129 259.51733398 140.5637207 C260 143 260 143 260 149 C243.17 149 226.34 149 209 149 C206.69 141.41 204.38 133.82 202 126 C183.25911938 79.14779845 152.51299547 43.76502994 105.8125 23.125 C72.03464126 8.81853413 36.19034263 4.6073975 0 1 C0 0.67 0 0.34 0 0 Z " fill="#363540" transform="translate(458,122)"/>
<path d="M0 0 C11.88 0.66 23.76 1.32 36 2 C36.04898438 5.25359375 36.09796875 8.5071875 36.1484375 11.859375 C36.20260731 15.04675487 36.25985165 18.23406595 36.31738281 21.42138672 C36.35542146 23.61892468 36.39031576 25.81651959 36.421875 28.01416016 C36.42780916 48.29863632 36.42780916 48.29863632 41.375 67.8125 C41.97441406 69.33810547 41.97441406 69.33810547 42.5859375 70.89453125 C43.9611687 74.1120482 43.9611687 74.1120482 46.10546875 77.2734375 C48.63896953 81.61172987 48.69480797 85.88594271 48.9375 90.8125 C50.45775004 111.2201657 57.42930883 132.56163999 67.96875 150.13671875 C69 152 69 152 69 154 C11.07561184 154.37003295 11.07561184 154.37003295 -5.1875 139.375 C-16.75567116 127.0942105 -22.17297293 112.62703313 -22.08203125 96.01123047 C-21.45688452 80.68397236 -12.38732378 69.38732378 -2 59 C-1.62923529 56.41307593 -1.62923529 56.41307593 -1.58935547 53.35693359 C-1.54946503 52.17586029 -1.50957458 50.99478699 -1.46847534 49.77792358 C-1.43505035 48.49769318 -1.40162537 47.21746277 -1.3671875 45.8984375 C-1.32562531 44.59170074 -1.28406311 43.28496399 -1.24124146 41.93862915 C-1.13081928 38.46347337 -1.03199356 34.98808019 -0.93554688 31.51251221 C-0.83510189 27.96646012 -0.72384346 24.42074869 -0.61328125 20.875 C-0.39711603 13.91692702 -0.1990611 6.9586678 0 0 Z " fill="#F99D3D" transform="translate(278,397)"/>
<path d="M0 0 C0.33 0 0.66 0 1 0 C1.7856511 14.40360345 -2.28815862 28.53149386 -7 42 C-7.2362207 42.67981934 -7.47244141 43.35963867 -7.71582031 44.06005859 C-10.56132085 52.16040249 -13.71842972 59.87383152 -17.80078125 67.44921875 C-19.09398481 69.9072043 -19.09398481 69.9072043 -19.41796875 72.41796875 C-20.21366027 75.94784856 -22.02901231 78.64919505 -24 81.625 C-24.40299316 82.24036621 -24.80598633 82.85573242 -25.22119141 83.48974609 C-29.10326199 89.31964673 -33.38920875 94.72726347 -38 100 C-38.84304688 100.96550781 -39.68609375 101.93101562 -40.5546875 102.92578125 C-55.28524354 119.51757938 -72.22878314 133.78772737 -92 144 C-92.90395508 144.47832275 -92.90395508 144.47832275 -93.82617188 144.96630859 C-114.4870726 155.78586977 -138.45445977 164.39286218 -162 164 C-159.34296639 161.34296639 -156.22981268 160.34145329 -152.8125 158.9375 C-132.99050925 150.45668197 -113.21063919 137.02430284 -99.20703125 120.5234375 C-96.85582207 117.83515231 -94.42362911 115.23988221 -91.97167969 112.64379883 C-64.6161702 83.69624373 -64.6161702 83.69624373 -51.87109375 46.87890625 C-51 44 -51 44 -47.75390625 42.1640625 C-46.36362548 41.63274608 -44.96587165 41.12070734 -43.5625 40.625 C-36.28228508 37.75498502 -30.82810026 34.28428104 -25 29 C-24.2678125 28.40832031 -23.535625 27.81664062 -22.78125 27.20703125 C-14.56012554 20.41881405 -8.32165304 11.74972933 -2.234375 3.06640625 C-1.49703125 2.05449219 -0.7596875 1.04257812 0 0 Z " fill="#EF9245" transform="translate(678,478)"/>
<path d="M0 0 C35.81663265 -1.00913789 66.52589931 11.33497996 92.73046875 35.7578125 C99.52656488 42.47202796 106.23889345 49.65658177 111 58 C111 58.99 111 59.98 111 61 C68.76 61 26.52 61 -17 61 C-15.25065707 57.50131413 -13.3705084 54.61934304 -11.125 51.4375 C-2.73607201 38.91489735 -0.83108632 25.62580345 -0.375 10.8125 C-0.33632813 9.76513672 -0.29765625 8.71777344 -0.2578125 7.63867188 C-0.16480563 5.09260887 -0.07896716 2.54653037 0 0 Z " fill="#EFEDED" transform="translate(577,649)"/>
<path d="M0 0 C0.01458252 0.61818604 0.02916504 1.23637207 0.04418945 1.87329102 C0.58894077 22.61426439 1.69601344 40.73165225 15.6796875 57.2578125 C17 59 17 59 17 61 C-25.24 61 -67.48 61 -111 61 C-107.5224025 54.74032451 -104.51687065 49.76907341 -99.875 44.5625 C-99.30442871 43.91708252 -98.73385742 43.27166504 -98.14599609 42.60668945 C-88.89858778 32.29049167 -78.77809719 24.19371786 -67 17 C-66.40735352 16.63632324 -65.81470703 16.27264648 -65.20410156 15.89794922 C-44.74133368 3.587339 -23.53354549 -0.41489111 0 0 Z " fill="#EFEDED" transform="translate(429,649)"/>
<path d="M0 0 C4.49043156 4.28087809 7.65449096 8.45187086 8.5 14.6875 C8.31571388 20.18536914 5.67224687 24.05762762 2 28 C-1.14950423 30.45139078 -4.40191126 32.28610124 -8 34 C-8.71027344 34.3403125 -9.42054688 34.680625 -10.15234375 35.03125 C-23.82011044 40.52889917 -41.61160564 36.92347667 -54.79199219 31.45458984 C-62.09482507 28.23229699 -68.39286726 24.37109735 -72 17 C-71.46400064 11.141621 -68.15836499 7.8748401 -64 4 C-48.47584802 -7.89350353 -16.36372808 -11.4124713 0 0 Z " fill="#EDEBEB" transform="translate(610,430)"/>
<path d="M0 0 C3.3808555 3.14150289 6.59232609 6.32997285 6.953125 11.140625 C1.9955705 21.57758184 -7.99400644 25.23975843 -18.359375 28.953125 C-23.68998647 30.61721485 -28.66542997 31.43855878 -34.234375 31.640625 C-35.89146484 31.73537109 -35.89146484 31.73537109 -37.58203125 31.83203125 C-45.64981215 32.1041762 -51.95193265 31.14912338 -59.234375 27.640625 C-60.34619141 27.1146875 -60.34619141 27.1146875 -61.48046875 26.578125 C-67.0284693 23.55766345 -70.59059555 19.37041609 -73.234375 13.640625 C-74.40563776 9.15780637 -73.45082216 5.50220402 -71.234375 1.515625 C-66.22921848 -5.68726313 -59.68334261 -9.22417341 -51.234375 -10.984375 C-34.23375573 -12.98881483 -13.7644577 -11.07870986 0 0 Z " fill="#EEECEC" transform="translate(459.234375,435.359375)"/>
<path d="M0 0 C0 19.14 0 38.28 0 58 C-3.09491484 56.76203406 -5.80038506 55.64183883 -8.6796875 54.08984375 C-9.36289062 53.73986328 -10.04609375 53.38988281 -10.75 53.02929688 C-12.13747972 52.31642816 -13.5157805 51.58532006 -14.8828125 50.83398438 C-22.66795319 46.93420556 -27.18863856 47.65409076 -37 47 C-37 32.15 -37 17.3 -37 2 C-25.375 1.5625 -25.375 1.5625 -21.74365234 1.43188477 C-20.78410645 1.39377686 -19.82456055 1.35566895 -18.8359375 1.31640625 C-17.37486572 1.26141968 -17.37486572 1.26141968 -15.88427734 1.20532227 C-12.98025195 1.04907126 -12.98025195 1.04907126 -10.07275391 0.48022461 C-7 0 -7 0 0 0 Z " fill="#FAB402" transform="translate(727,397)"/>
<path d="M0 0 C11.88 0.66 23.76 1.32 36 2 C36 16.85 36 31.7 36 47 C28.08 47.495 28.08 47.495 20 48 C16.1770201 49.3985867 13.10611626 50.64259382 9.625 52.5625 C8.0143022 53.39960556 6.40238479 54.23437 4.7890625 55.06640625 C4.10537598 55.43709229 3.42168945 55.80777832 2.71728516 56.18969727 C1 57 1 57 -1 57 C-1.11892178 37.95970901 -0.90598841 19.0257567 0 0 Z " fill="#FBB501" transform="translate(278,397)"/>
<path d="M0 0 C0.66 0.33 1.32 0.66 2 1 C-3.28 6.28 -8.56 11.56 -14 17 C-14.66 16.67 -15.32 16.34 -16 16 C-12.63699159 11.69114547 -9.03918174 8.14405459 -4.8671875 4.61328125 C-3.16296232 3.14080217 -1.56975784 1.61363306 0 0 Z " fill="#3F4A6F" transform="translate(344,164)"/>
<path d="M0 0 C0.66 0.33 1.32 0.66 2 1 C-1.3 4.3 -4.6 7.6 -8 11 C-8.33 10.34 -8.66 9.68 -9 9 C-8.06725891 7.87105124 -7.12859878 6.74699124 -6.1875 5.625 C-5.66542969 4.99851562 -5.14335937 4.37203125 -4.60546875 3.7265625 C-3 2 -3 2 0 0 Z " fill="#DCDBDB" transform="translate(397,428)"/>
</svg>
